<svg xmlns="http://www.w3.org/2000/svg" xmlns:xlink="http://www.w3.org/1999/xlink" contentStyleType="text/css" height="903px" preserveAspectRatio="none" style="width:929px;height:903px;background:#FFFFFF;" version="1.1" viewBox="0 0 929 903" width="929px" zoomAndPan="magnify"><defs/><g><!--class NFCCommMode--><g id="elem_NFCCommMode"><rect codeLine="4" fill="#F1F1F1" height="80.5938" id="NFCCommMode" rx="2.5" ry="2.5" style="stroke:#181818;stroke-width:0.5;" width="144.0615" x="7" y="759"/><ellipse cx="22" cy="775" fill="#EB937F" rx="11" ry="11" style="stroke:#181818;stroke-width:1;"/><path d="M26.1094,781 L18.3906,781 L18.3906,768.6094 L26.1094,768.6094 L26.1094,770.7656 L20.8438,770.7656 L20.8438,773.4375 L25.6094,773.4375 L25.6094,775.5938 L20.8438,775.5938 L20.8438,778.8438 L26.1094,778.8438 L26.1094,781 Z " fill="#000000"/><text fill="#000000" font-family="sans-serif" font-size="14" lengthAdjust="spacing" textLength="112.0615" x="36" y="779.8467">NFCCommMode</text><line style="stroke:#181818;stroke-width:0.5;" x1="8" x2="150.0615" y1="791" y2="791"/><text fill="#000000" font-family="sans-serif" font-size="14" lengthAdjust="spacing" textLength="22.8115" x="13" y="807.9951">I2C</text><text fill="#000000" font-family="sans-serif" font-size="14" lengthAdjust="spacing" textLength="21.458" x="13" y="824.292">SPI</text><line style="stroke:#181818;stroke-width:0.5;" x1="8" x2="150.0615" y1="831.5938" y2="831.5938"/></g><!--class NFCReadMode--><g id="elem_NFCReadMode"><rect codeLine="9" fill="#F1F1F1" height="80.5938" id="NFCReadMode" rx="2.5" ry="2.5" style="stroke:#181818;stroke-width:0.5;" width="134.252" x="186" y="759"/><ellipse cx="201" cy="775" fill="#EB937F" rx="11" ry="11" style="stroke:#181818;stroke-width:1;"/><path d="M205.1094,781 L197.3906,781 L197.3906,768.6094 L205.1094,768.6094 L205.1094,770.7656 L199.8438,770.7656 L199.8438,773.4375 L204.6094,773.4375 L204.6094,775.5938 L199.8438,775.5938 L199.8438,778.8438 L205.1094,778.8438 L205.1094,781 Z " fill="#000000"/><text fill="#000000" font-family="sans-serif" font-size="14" lengthAdjust="spacing" textLength="102.252" x="215" y="779.8467">NFCReadMode</text><line style="stroke:#181818;stroke-width:0.5;" x1="187" x2="319.252" y1="791" y2="791"/><text fill="#000000" font-family="sans-serif" font-size="14" lengthAdjust="spacing" textLength="60.5117" x="192" y="807.9951">POLLING</text><text fill="#000000" font-family="sans-serif" font-size="14" lengthAdjust="spacing" textLength="24.876" x="192" y="824.292">IRQ</text><line style="stroke:#181818;stroke-width:0.5;" x1="187" x2="319.252" y1="831.5938" y2="831.5938"/></g><!--class NFCCardType--><g id="elem_NFCCardType"><rect codeLine="14" fill="#F1F1F1" height="129.4844" id="NFCCardType" rx="2.5" ry="2.5" style="stroke:#181818;stroke-width:0.5;" width="159.1709" x="355.5" y="735"/><ellipse cx="384.6913" cy="751" fill="#EB937F" rx="11" ry="11" style="stroke:#181818;stroke-width:1;"/><path d="M388.8006,757 L381.0819,757 L381.0819,744.6094 L388.8006,744.6094 L388.8006,746.7656 L383.535,746.7656 L383.535,749.4375 L388.3006,749.4375 L388.3006,751.5938 L383.535,751.5938 L383.535,754.8438 L388.8006,754.8438 L388.8006,757 Z " fill="#000000"/><text fill="#000000" font-family="sans-serif" font-size="14" lengthAdjust="spacing" textLength="95.6348" x="401.8449" y="755.8467">NFCCardType</text><line style="stroke:#181818;stroke-width:0.5;" x1="356.5" x2="513.6709" y1="767" y2="767"/><text fill="#000000" font-family="sans-serif" font-size="14" lengthAdjust="spacing" textLength="75.708" x="361.5" y="783.9951">UNKNOWN</text><text fill="#000000" font-family="sans-serif" font-size="14" lengthAdjust="spacing" textLength="143.3291" x="361.5" y="800.292">MIFARE_CLASSIC_1K</text><text fill="#000000" font-family="sans-serif" font-size="14" lengthAdjust="spacing" textLength="143.3291" x="361.5" y="816.5889">MIFARE_CLASSIC_4K</text><text fill="#000000" font-family="sans-serif" font-size="14" lengthAdjust="spacing" textLength="147.1709" x="361.5" y="832.8857">MIFARE_ULTRALIGHT</text><text fill="#000000" font-family="sans-serif" font-size="14" lengthAdjust="spacing" textLength="39.4502" x="361.5" y="849.1826">NTAG</text><line style="stroke:#181818;stroke-width:0.5;" x1="356.5" x2="513.6709" y1="856.4844" y2="856.4844"/></g><!--class NFCCardInfo--><g id="elem_NFCCardInfo"><rect codeLine="22" fill="#F1F1F1" height="194.6719" id="NFCCardInfo" rx="2.5" ry="2.5" style="stroke:#181818;stroke-width:0.5;" width="196.9189" x="549.5" y="702"/><ellipse cx="599.8125" cy="718" fill="#ADD1B2" rx="11" ry="11" style="stroke:#181818;stroke-width:1;"/><path d="M602.7813,723.6406 Q602.2031,723.9375 601.5625,724.0781 Q600.9219,724.2344 600.2188,724.2344 Q597.7188,724.2344 596.3906,722.5938 Q595.0781,720.9375 595.0781,717.8125 Q595.0781,714.6875 596.3906,713.0313 Q597.7188,711.375 600.2188,711.375 Q600.9219,711.375 601.5625,711.5313 Q602.2188,711.6875 602.7813,711.9844 L602.7813,714.7031 Q602.1563,714.125 601.5625,713.8594 Q600.9688,713.5781 600.3438,713.5781 Q599,713.5781 598.3125,714.6563 Q597.625,715.7188 597.625,717.8125 Q597.625,719.9063 598.3125,720.9844 Q599,722.0469 600.3438,722.0469 Q600.9688,722.0469 601.5625,721.7813 Q602.1563,721.5 602.7813,720.9219 L602.7813,723.6406 Z " fill="#000000"/><text fill="#000000" font-family="sans-serif" font-size="14" lengthAdjust="spacing" textLength="87.7939" x="620.3125" y="722.8467">NFCCardInfo</text><line style="stroke:#181818;stroke-width:0.5;" x1="550.5" x2="745.4189" y1="734" y2="734"/><text fill="#000000" font-family="sans-serif" font-size="14" lengthAdjust="spacing" textLength="108.377" x="555.5" y="750.9951">+bool detected</text><text fill="#000000" font-family="sans-serif" font-size="14" lengthAdjust="spacing" textLength="106.1826" x="555.5" y="767.292">+uint8_t uid[7]</text><text fill="#000000" font-family="sans-serif" font-size="14" lengthAdjust="spacing" textLength="134.8867" x="555.5" y="783.5889">+uint8_t uidLength</text><text fill="#000000" font-family="sans-serif" font-size="14" lengthAdjust="spacing" textLength="177.0713" x="555.5" y="799.8857">+NFCCardType cardType</text><text fill="#000000" font-family="sans-serif" font-size="14" lengthAdjust="spacing" textLength="119.4375" x="555.5" y="816.1826">+uint32_t cardID</text><text fill="#000000" font-family="sans-serif" font-size="14" lengthAdjust="spacing" textLength="144.5938" x="555.5" y="832.4795">+bool hasClonedUID</text><text fill="#000000" font-family="sans-serif" font-size="14" lengthAdjust="spacing" textLength="156.2148" x="555.5" y="848.7764">+uint8_t clonedUID[7]</text><text fill="#000000" font-family="sans-serif" font-size="14" lengthAdjust="spacing" textLength="184.9189" x="555.5" y="865.0732">+uint8_t clonedUIDLength</text><text fill="#000000" font-family="sans-serif" font-size="14" lengthAdjust="spacing" textLength="149.126" x="555.5" y="881.3701">+uint32_t timestamp</text><line style="stroke:#181818;stroke-width:0.5;" x1="550.5" x2="745.4189" y1="888.6719" y2="888.6719"/></g><!--class NFCReader--><g id="elem_NFCReader"><rect codeLine="34" fill="#F1F1F1" height="618.3906" id="NFCReader" rx="2.5" ry="2.5" style="stroke:#181818;stroke-width:0.5;" width="454.9277" x="207.5" y="7"/><ellipse cx="391.4756" cy="23" fill="#ADD1B2" rx="11" ry="11" style="stroke:#181818;stroke-width:1;"/><path d="M394.4443,28.6406 Q393.8662,28.9375 393.2256,29.0781 Q392.585,29.2344 391.8818,29.2344 Q389.3818,29.2344 388.0537,27.5938 Q386.7412,25.9375 386.7412,22.8125 Q386.7412,19.6875 388.0537,18.0313 Q389.3818,16.375 391.8818,16.375 Q392.585,16.375 393.2256,16.5313 Q393.8818,16.6875 394.4443,16.9844 L394.4443,19.7031 Q393.8193,19.125 393.2256,18.8594 Q392.6318,18.5781 392.0068,18.5781 Q390.6631,18.5781 389.9756,19.6563 Q389.2881,20.7188 389.2881,22.8125 Q389.2881,24.9063 389.9756,25.9844 Q390.6631,27.0469 392.0068,27.0469 Q392.6318,27.0469 393.2256,26.7813 Q393.8193,26.5 394.4443,25.9219 L394.4443,28.6406 Z " fill="#000000"/><text fill="#000000" font-family="sans-serif" font-size="14" lengthAdjust="spacing" textLength="78.4766" x="411.9756" y="27.8467">NFCReader</text><line style="stroke:#181818;stroke-width:0.5;" x1="208.5" x2="661.4277" y1="39" y2="39"/><text fill="#000000" font-family="sans-serif" font-size="14" lengthAdjust="spacing" textLength="169.5996" x="213.5" y="55.9951">-Adafruit_PN532* pn532</text><text fill="#000000" font-family="sans-serif" font-size="14" lengthAdjust="spacing" textLength="203.2461" x="213.5" y="72.292">-NFCCommMode commMode</text><text fill="#000000" font-family="sans-serif" font-size="14" lengthAdjust="spacing" textLength="181.7334" x="213.5" y="88.5889">-NFCReadMode readMode</text><text fill="#000000" font-family="sans-serif" font-size="14" lengthAdjust="spacing" textLength="67.4912" x="213.5" y="104.8857">-int irqPin</text><text fill="#000000" font-family="sans-serif" font-size="14" lengthAdjust="spacing" textLength="84.7246" x="213.5" y="121.1826">-int resetPin</text><text fill="#000000" font-family="sans-serif" font-size="14" lengthAdjust="spacing" textLength="106.6475" x="213.5" y="137.4795">-bool initialized</text><text fill="#000000" font-family="sans-serif" font-size="14" lengthAdjust="spacing" textLength="155.5449" x="213.5" y="153.7764">-NFCCardInfo lastCard</text><text fill="#000000" font-family="sans-serif" font-size="14" lengthAdjust="spacing" textLength="112.4375" x="213.5" y="170.0732">-uint8_t keyA[6]</text><text fill="#000000" font-family="sans-serif" font-size="14" lengthAdjust="spacing" textLength="112.4648" x="213.5" y="186.3701">-uint8_t keyB[6]</text><line style="stroke:#181818;stroke-width:0.5;" x1="208.5" x2="661.4277" y1="193.6719" y2="193.6719"/><text fill="#000000" font-family="sans-serif" font-size="14" lengthAdjust="spacing" textLength="442.9277" x="213.5" y="210.667">+NFCReader(NFCCommMode mode, NFCReadMode readMode)</text><text fill="#000000" font-family="sans-serif" font-size="14" lengthAdjust="spacing" textLength="209.7334" x="213.5" y="226.9639">+NFCReader(int irq, int reset)</text><text fill="#000000" font-family="sans-serif" font-size="14" lengthAdjust="spacing" textLength="112.8613" x="213.5" y="243.2607">+~NFCReader()</text><text fill="#000000" font-family="sans-serif" font-size="14" lengthAdjust="spacing" textLength="4.4502" x="213.5" y="259.5576">&#160;</text><text fill="#000000" font-family="sans-serif" font-size="14" lengthAdjust="spacing" textLength="96.1611" x="213.5" y="275.8545">+bool begin()</text><text fill="#000000" font-family="sans-serif" font-size="14" lengthAdjust="spacing" textLength="179.7305" x="213.5" y="292.1514">+NFCCardInfo readCard()</text><text fill="#000000" font-family="sans-serif" font-size="14" lengthAdjust="spacing" textLength="226.543" x="213.5" y="308.4482">+NFCCardInfo getLastCardInfo()</text><text fill="#000000" font-family="sans-serif" font-size="14" lengthAdjust="spacing" textLength="154.2734" x="213.5" y="324.7451">+bool isCardPresent()</text><text fill="#000000" font-family="sans-serif" font-size="14" lengthAdjust="spacing" textLength="4.4502" x="213.5" y="341.042">&#160;</text><text fill="#000000" font-family="sans-serif" font-size="14" lengthAdjust="spacing" textLength="424.1699" x="213.5" y="357.3389">+bool authenticateBlock(uint8_t blockNumber, uint8_t* key)</text><text fill="#000000" font-family="sans-serif" font-size="14" lengthAdjust="spacing" textLength="373.4746" x="213.5" y="373.6357">+bool readBlock(uint8_t blockNumber, uint8_t* data)</text><text fill="#000000" font-family="sans-serif" font-size="14" lengthAdjust="spacing" textLength="376.8379" x="213.5" y="389.9326">+bool writeBlock(uint8_t blockNumber, uint8_t* data)</text><text fill="#000000" font-family="sans-serif" font-size="14" lengthAdjust="spacing" textLength="301.6016" x="213.5" y="406.2295">+bool formatSector(uint8_t sectorNumber)</text><text fill="#000000" font-family="sans-serif" font-size="14" lengthAdjust="spacing" textLength="4.4502" x="213.5" y="422.5264">&#160;</text><text fill="#000000" font-family="sans-serif" font-size="14" lengthAdjust="spacing" textLength="437.165" x="213.5" y="438.8232">+bool initializeCardForCloning(uint8_t* uid, uint8_t uidLength)</text><text fill="#000000" font-family="sans-serif" font-size="14" lengthAdjust="spacing" textLength="379.6475" x="213.5" y="455.1201">+bool writeClonedUID(uint8_t* uid, uint8_t uidLength)</text><text fill="#000000" font-family="sans-serif" font-size="14" lengthAdjust="spacing" textLength="383.2842" x="213.5" y="471.417">+bool readClonedUID(uint8_t* uid, uint8_t* uidLength)</text><text fill="#000000" font-family="sans-serif" font-size="14" lengthAdjust="spacing" textLength="163.7891" x="213.5" y="487.7139">+bool hasClonedData()</text><text fill="#000000" font-family="sans-serif" font-size="14" lengthAdjust="spacing" textLength="173.5781" x="213.5" y="504.0107">+bool clearClonedData()</text><text fill="#000000" font-family="sans-serif" font-size="14" lengthAdjust="spacing" textLength="4.4502" x="213.5" y="520.3076">&#160;</text><text fill="#000000" font-family="sans-serif" font-size="14" lengthAdjust="spacing" textLength="360.9512" x="213.5" y="536.6045">+bool waitForCardRemoval(unsigned long timeout)</text><text fill="#000000" font-family="sans-serif" font-size="14" lengthAdjust="spacing" textLength="283.1992" x="213.5" y="552.9014">+void printCardInfo(NFCCardInfo&amp; card)</text><text fill="#000000" font-family="sans-serif" font-size="14" lengthAdjust="spacing" textLength="332.3496" x="213.5" y="569.1982">+String getCardTypeString(NFCCardType type)</text><text fill="#000000" font-family="sans-serif" font-size="14" lengthAdjust="spacing" textLength="4.4502" x="213.5" y="585.4951">&#160;</text><text fill="#000000" font-family="sans-serif" font-size="14" lengthAdjust="spacing" textLength="413.6084" x="213.5" y="601.792">-NFCCardType identifyCardType(uint8_t* atqa, uint8_t sak)</text><text fill="#000000" font-family="sans-serif" font-size="14" lengthAdjust="spacing" textLength="122.582" x="213.5" y="618.0889">-void setupKeys()</text></g><!--class Adafruit_PN532--><g id="elem_Adafruit_PN532"><rect fill="#F1F1F1" height="48" id="Adafruit_PN532" rx="2.5" ry="2.5" style="stroke:#181818;stroke-width:0.5;" width="140.6162" x="781.5" y="775.5"/><ellipse cx="796.5" cy="791.5" fill="#ADD1B2" rx="11" ry="11" style="stroke:#181818;stroke-width:1;"/><path d="M799.4688,797.1406 Q798.8906,797.4375 798.25,797.5781 Q797.6094,797.7344 796.9063,797.7344 Q794.4063,797.7344 793.0781,796.0938 Q791.7656,794.4375 791.7656,791.3125 Q791.7656,788.1875 793.0781,786.5313 Q794.4063,784.875 796.9063,784.875 Q797.6094,784.875 798.25,785.0313 Q798.9063,785.1875 799.4688,785.4844 L799.4688,788.2031 Q798.8438,787.625 798.25,787.3594 Q797.6563,787.0781 797.0313,787.0781 Q795.6875,787.0781 795,788.1563 Q794.3125,789.2188 794.3125,791.3125 Q794.3125,793.4063 795,794.4844 Q795.6875,795.5469 797.0313,795.5469 Q797.6563,795.5469 798.25,795.2813 Q798.8438,795 799.4688,794.4219 L799.4688,797.1406 Z " fill="#000000"/><text fill="#000000" font-family="sans-serif" font-size="14" lengthAdjust="spacing" textLength="108.6162" x="810.5" y="796.3467">Adafruit_PN532</text><line style="stroke:#181818;stroke-width:0.5;" x1="782.5" x2="921.1162" y1="807.5" y2="807.5"/><line style="stroke:#181818;stroke-width:0.5;" x1="782.5" x2="921.1162" y1="815.5" y2="815.5"/></g><!--link NFCReader to NFCCommMode--><g id="link_NFCReader_NFCCommMode"><path codeLine="73" d="M207.27,625.01 C167.95,678.19 135.7165,721.785 111.9965,753.875 " fill="none" id="NFCReader-to-NFCCommMode" style="stroke:#181818;stroke-width:1;"/><polygon fill="#181818" points="108.43,758.7,116.9964,753.8402,111.4021,754.6792,110.5631,749.0849,108.43,758.7" style="stroke:#181818;stroke-width:1;"/></g><!--link NFCReader to NFCReadMode--><g id="link_NFCReader_NFCReadMode"><path codeLine="74" d="M318.58,625.01 C298.48,678.19 282.2915,720.9976 270.1615,753.0876 " fill="none" id="NFCReader-to-NFCReadMode" style="stroke:#181818;stroke-width:1;"/><polygon fill="#181818" points="268.04,758.7,274.9639,751.6957,269.8079,754.023,267.4806,748.867,268.04,758.7" style="stroke:#181818;stroke-width:1;"/></g><!--link NFCReader to NFCCardType--><g id="link_NFCReader_NFCCardType"><path codeLine="75" d="M435,625.01 C435,666.23 435,698.59 435,728.7 " fill="none" id="NFCReader-to-NFCCardType" style="stroke:#181818;stroke-width:1;"/><polygon fill="#181818" points="435,734.7,439,725.7,435,729.7,431,725.7,435,734.7" style="stroke:#181818;stroke-width:1;"/></g><!--link NFCReader to NFCCardInfo--><g id="link_NFCReader_NFCCardInfo"><path codeLine="76" d="M571.25,625.01 C583.38,652.43 592.5221,673.0932 602.8321,696.3932 " fill="none" id="NFCReader-to-NFCCardInfo" style="stroke:#181818;stroke-width:1;"/><polygon fill="#181818" points="605.26,701.88,605.2761,692.0312,603.2368,697.3076,597.9603,695.2683,605.26,701.88" style="stroke:#181818;stroke-width:1;"/></g><!--link NFCReader to Adafruit_PN532--><g id="link_NFCReader_Adafruit_PN532"><path codeLine="77" d="M662.72,579.94 C732.58,660.61 795.6121,733.3944 827.9321,770.7144 " fill="none" id="NFCReader-to-Adafruit_PN532" style="stroke:#181818;stroke-width:1;stroke-dasharray:7.0,7.0;"/><polygon fill="#181818" points="831.86,775.25,828.9918,765.828,828.5867,771.4704,822.9444,771.0652,831.86,775.25" style="stroke:#181818;stroke-width:1;"/><text fill="#000000" font-family="sans-serif" font-size="13" lengthAdjust="spacing" textLength="29.7832" x="742" y="668.0669">uses</text></g><!--SRC=[bLHRRzem57xFhx3wC063ggNTHNkebAQ3HQGfuw8zL1KoiG6BnAQsqvPDss-V7Up4MTZKvI6nltDEpldEJIGmnI23B-3yh7y9dWcI6qzi2Tr13ZEGf508NqfEbhd4OSBeb7p7uCppCCqp40-2W6NPBKCO_F20Ui9-K7oduz3xMMbDC4IErlWkYi9uUB2OV7Kr0yZHRB-pclDu5DzzYulpRJZm9vyNGUHFfs6mE1yTGozhw3oQJVme77wP5MWyyuVQMK7BUWlfYXblRy6IiHGWB74YCJ9OJgZyk93gY-u_F3J12DEroje1Toaavk2ONFILZSR36zVZ1eeWPHIZUObR1ud5cxvBKIs2qeqa6HOIPhiQPLqAp0tX7l0HNF6SoCKuVdVHxu0TLHyZSykRc4CbAclApS68b7j0-EEOK0VWM61PGGLfGeaaC5KDXHo7jY8gNgalHcGvR_7Ult__q4IlDLeLuK2pvLB8rAjxDF9smywGw5R1MvrVbLBRSskun6j2M-rw7nHKj1jzEIfSOnaPglfUwXnI93G-rW5G-OS_cCkDGaa29RvEMR9jsMmizItEioNcNPkYZivHxTywgjVO8IXXpV2PazTvR5Yk6C-WdAhXOhoq5SNrO5ndM3M8piA0SJqZXAvRfGSrVTtcA3QZBOVhlqoBkltRilCNqtAWRrGEwZLDKWnvJLWB5nAfcIh24von9vYsSYh8Mca3PRCkffhbPJi-COB0ZgjeoWvokkjDiMkixbJjSVK7rN5sHHsGbhkqf7gPa7grRKQGxhRLtW9LGg1yX5Kk1TosZNaHd9gTV3V2Uw6OgaLKhQ1UxyfTCKs9dTCZDdQp7fLevexazFGAdDJtt0du17A1XVSR]--></g></svg>