<?xml version="1.0" encoding="UTF-8" standalone="no"?>
<!DOCTYPE svg PUBLIC "-//W3C//DTD SVG 1.1//EN"
 "http://www.w3.org/Graphics/SVG/1.1/DTD/svg11.dtd">
<!-- Generated by graphviz version 2.43.0 (0)
 -->
<!-- Title: system_overview Pages: 1 -->
<svg width="377pt" height="305pt"
 viewBox="0.00 0.00 377.00 305.00" xmlns="http://www.w3.org/2000/svg" xmlns:xlink="http://www.w3.org/1999/xlink">
<g id="graph0" class="graph" transform="scale(1 1) rotate(0) translate(4 301)">
<title>system_overview</title>
<polygon fill="white" stroke="transparent" points="-4,4 -4,-301 373,-301 373,4 -4,4"/>
<!-- main -->
<g id="node1" class="node">
<title>main</title>
<polygon fill="lightblue" stroke="black" points="304.5,-297 222.5,-297 222.5,-261 304.5,-261 304.5,-297"/>
<text text-anchor="middle" x="263.5" y="-275.3" font-family="Times,serif" font-size="14.00">main.cpp</text>
</g>
<!-- acs -->
<g id="node2" class="node">
<title>acs</title>
<polygon fill="lightblue" stroke="black" points="273,-210 102,-210 102,-174 273,-174 273,-210"/>
<text text-anchor="middle" x="187.5" y="-188.3" font-family="Times,serif" font-size="14.00">AccessControlSystem</text>
</g>
<!-- main&#45;&gt;acs -->
<g id="edge1" class="edge">
<title>main&#45;&gt;acs</title>
<path fill="none" stroke="black" d="M248.12,-260.8C237.1,-248.47 222.08,-231.68 209.75,-217.89"/>
<polygon fill="black" stroke="black" points="212.13,-215.3 202.86,-210.18 206.91,-219.96 212.13,-215.3"/>
<text text-anchor="middle" x="256" y="-231.8" font-family="Times,serif" font-size="14.00">creates</text>
</g>
<!-- nfc -->
<g id="node3" class="node">
<title>nfc</title>
<polygon fill="lightblue" stroke="black" points="353.5,-123 253.5,-123 253.5,-87 353.5,-87 353.5,-123"/>
<text text-anchor="middle" x="303.5" y="-101.3" font-family="Times,serif" font-size="14.00">NFCReader</text>
</g>
<!-- main&#45;&gt;nfc -->
<g id="edge2" class="edge">
<title>main&#45;&gt;nfc</title>
<path fill="none" stroke="black" d="M276.41,-260.85C280.08,-255.37 283.81,-249.12 286.5,-243 302.56,-206.49 303.57,-195.58 308.5,-156 309.42,-148.59 309.17,-140.54 308.42,-133.11"/>
<polygon fill="black" stroke="black" points="311.89,-132.6 307.11,-123.15 304.95,-133.52 311.89,-132.6"/>
<text text-anchor="middle" x="332" y="-188.3" font-family="Times,serif" font-size="14.00">creates</text>
</g>
<!-- acs&#45;&gt;nfc -->
<g id="edge3" class="edge">
<title>acs&#45;&gt;nfc</title>
<path fill="none" stroke="black" d="M225.26,-173.91C235.15,-168.74 245.54,-162.65 254.5,-156 264.36,-148.68 274.08,-139.35 282.22,-130.73"/>
<polygon fill="black" stroke="black" points="285.04,-132.84 289.22,-123.1 279.88,-128.11 285.04,-132.84"/>
<text text-anchor="middle" x="288" y="-144.8" font-family="Times,serif" font-size="14.00">uses</text>
</g>
<!-- lcd -->
<g id="node5" class="node">
<title>lcd</title>
<polygon fill="lightblue" stroke="black" points="113,-123 0,-123 0,-87 113,-87 113,-123"/>
<text text-anchor="middle" x="56.5" y="-101.3" font-family="Times,serif" font-size="14.00">LiquidCrystal</text>
</g>
<!-- acs&#45;&gt;lcd -->
<g id="edge4" class="edge">
<title>acs&#45;&gt;lcd</title>
<path fill="none" stroke="black" d="M142.41,-173.84C131.26,-168.78 119.62,-162.76 109.5,-156 98.65,-148.75 87.94,-139.23 79.02,-130.44"/>
<polygon fill="black" stroke="black" points="81.5,-127.97 71.99,-123.3 76.51,-132.88 81.5,-127.97"/>
<text text-anchor="middle" x="138.5" y="-144.8" font-family="Times,serif" font-size="14.00">controls</text>
</g>
<!-- eeprom -->
<g id="node6" class="node">
<title>eeprom</title>
<polygon fill="lightblue" stroke="black" points="214,-123 131,-123 131,-87 214,-87 214,-123"/>
<text text-anchor="middle" x="172.5" y="-101.3" font-family="Times,serif" font-size="14.00">EEPROM</text>
</g>
<!-- acs&#45;&gt;eeprom -->
<g id="edge5" class="edge">
<title>acs&#45;&gt;eeprom</title>
<path fill="none" stroke="black" d="M179.25,-173.93C176.94,-168.35 174.72,-162.03 173.5,-156 172.04,-148.8 171.43,-140.89 171.28,-133.53"/>
<polygon fill="black" stroke="black" points="174.78,-133.31 171.33,-123.29 167.78,-133.27 174.78,-133.31"/>
<text text-anchor="middle" x="214" y="-144.8" font-family="Times,serif" font-size="14.00">stores data</text>
</g>
<!-- pn532 -->
<g id="node4" class="node">
<title>pn532</title>
<polygon fill="lightblue" stroke="black" points="369,-36 238,-36 238,0 369,0 369,-36"/>
<text text-anchor="middle" x="303.5" y="-14.3" font-family="Times,serif" font-size="14.00">Adafruit_PN532</text>
</g>
<!-- nfc&#45;&gt;pn532 -->
<g id="edge6" class="edge">
<title>nfc&#45;&gt;pn532</title>
<path fill="none" stroke="black" d="M303.5,-86.8C303.5,-75.16 303.5,-59.55 303.5,-46.24"/>
<polygon fill="black" stroke="black" points="307,-46.18 303.5,-36.18 300,-46.18 307,-46.18"/>
<text text-anchor="middle" x="320" y="-57.8" font-family="Times,serif" font-size="14.00">uses</text>
</g>
</g>
</svg>
