<?xml version="1.0" encoding="UTF-8" standalone="no"?>
<!DOCTYPE svg PUBLIC "-//W3C//DTD SVG 1.1//EN"
 "http://www.w3.org/Graphics/SVG/1.1/DTD/svg11.dtd">
<!-- Generated by graphviz version 2.43.0 (0)
 -->
<!-- Title: cloning_process Pages: 1 -->
<svg width="544pt" height="817pt"
 viewBox="0.00 0.00 544.04 817.00" xmlns="http://www.w3.org/2000/svg" xmlns:xlink="http://www.w3.org/1999/xlink">
<g id="graph0" class="graph" transform="scale(1 1) rotate(0) translate(4 813)">
<title>cloning_process</title>
<polygon fill="white" stroke="transparent" points="-4,4 -4,-813 540.04,-813 540.04,4 -4,4"/>
<!-- start -->
<g id="node1" class="node">
<title>start</title>
<ellipse fill="lightgreen" stroke="black" cx="402.04" cy="-791" rx="73.39" ry="18"/>
<text text-anchor="middle" x="402.04" y="-787.3" font-family="Times,serif" font-size="14.00">Start Cloning</text>
</g>
<!-- read_source -->
<g id="node2" class="node">
<title>read_source</title>
<polygon fill="lightblue" stroke="black" points="484.04,-736 320.04,-736 320.04,-698 484.04,-698 484.04,-736"/>
<text text-anchor="middle" x="402.04" y="-720.8" font-family="Times,serif" font-size="14.00">1. Read Source Card</text>
<text text-anchor="middle" x="402.04" y="-705.8" font-family="Times,serif" font-size="14.00">Get Physical UID</text>
</g>
<!-- start&#45;&gt;read_source -->
<g id="edge1" class="edge">
<title>start&#45;&gt;read_source</title>
<path fill="none" stroke="black" d="M402.04,-772.94C402.04,-764.99 402.04,-755.31 402.04,-746.31"/>
<polygon fill="black" stroke="black" points="405.54,-746.2 402.04,-736.2 398.54,-746.2 405.54,-746.2"/>
</g>
<!-- store_source -->
<g id="node3" class="node">
<title>store_source</title>
<polygon fill="cyan" stroke="black" points="473.54,-661 330.54,-661 330.54,-623 473.54,-623 473.54,-661"/>
<text text-anchor="middle" x="402.04" y="-645.8" font-family="Times,serif" font-size="14.00">Store Source UID</text>
<text text-anchor="middle" x="402.04" y="-630.8" font-family="Times,serif" font-size="14.00">in Memory</text>
</g>
<!-- read_source&#45;&gt;store_source -->
<g id="edge2" class="edge">
<title>read_source&#45;&gt;store_source</title>
<path fill="none" stroke="black" d="M402.04,-697.96C402.04,-689.88 402.04,-680.18 402.04,-671.18"/>
<polygon fill="black" stroke="black" points="405.54,-671.09 402.04,-661.09 398.54,-671.09 405.54,-671.09"/>
</g>
<!-- read_target -->
<g id="node4" class="node">
<title>read_target</title>
<polygon fill="lightblue" stroke="black" points="482.54,-586 321.54,-586 321.54,-548 482.54,-548 482.54,-586"/>
<text text-anchor="middle" x="402.04" y="-570.8" font-family="Times,serif" font-size="14.00">2. Read Target Card</text>
<text text-anchor="middle" x="402.04" y="-555.8" font-family="Times,serif" font-size="14.00">Get Physical UID</text>
</g>
<!-- store_source&#45;&gt;read_target -->
<g id="edge3" class="edge">
<title>store_source&#45;&gt;read_target</title>
<path fill="none" stroke="black" d="M402.04,-622.96C402.04,-614.88 402.04,-605.18 402.04,-596.18"/>
<polygon fill="black" stroke="black" points="405.54,-596.09 402.04,-586.09 398.54,-596.09 405.54,-596.09"/>
</g>
<!-- verify_target -->
<g id="node5" class="node">
<title>verify_target</title>
<polygon fill="yellow" stroke="black" points="474.04,-511 330.04,-511 330.04,-473 474.04,-473 474.04,-511"/>
<text text-anchor="middle" x="402.04" y="-495.8" font-family="Times,serif" font-size="14.00">3. Verify Target is</text>
<text text-anchor="middle" x="402.04" y="-480.8" font-family="Times,serif" font-size="14.00">Mifare Classic</text>
</g>
<!-- read_target&#45;&gt;verify_target -->
<g id="edge4" class="edge">
<title>read_target&#45;&gt;verify_target</title>
<path fill="none" stroke="black" d="M402.04,-547.96C402.04,-539.88 402.04,-530.18 402.04,-521.18"/>
<polygon fill="black" stroke="black" points="405.54,-521.09 402.04,-511.09 398.54,-521.09 405.54,-521.09"/>
</g>
<!-- auth -->
<g id="node6" class="node">
<title>auth</title>
<polygon fill="orange" stroke="black" points="410.04,-422 284.04,-422 284.04,-369 410.04,-369 410.04,-422"/>
<text text-anchor="middle" x="347.04" y="-406.8" font-family="Times,serif" font-size="14.00">4. Authenticate</text>
<text text-anchor="middle" x="347.04" y="-391.8" font-family="Times,serif" font-size="14.00">to Sector 1</text>
<text text-anchor="middle" x="347.04" y="-376.8" font-family="Times,serif" font-size="14.00">(Default Key A)</text>
</g>
<!-- verify_target&#45;&gt;auth -->
<g id="edge5" class="edge">
<title>verify_target&#45;&gt;auth</title>
<path fill="none" stroke="black" d="M391.44,-472.78C384.58,-460.99 375.42,-445.26 367.21,-431.15"/>
<polygon fill="black" stroke="black" points="370.04,-429.05 361.98,-422.17 363.99,-432.57 370.04,-429.05"/>
<text text-anchor="middle" x="399.04" y="-443.8" font-family="Times,serif" font-size="14.00">Valid</text>
</g>
<!-- fail -->
<g id="node11" class="node">
<title>fail</title>
<ellipse fill="red" stroke="black" cx="305.04" cy="-18" rx="68.49" ry="18"/>
<text text-anchor="middle" x="305.04" y="-14.3" font-family="Times,serif" font-size="14.00" fill="white">Clone Failed</text>
</g>
<!-- verify_target&#45;&gt;fail -->
<g id="edge6" class="edge">
<title>verify_target&#45;&gt;fail</title>
<path fill="none" stroke="black" d="M420.36,-472.9C436.36,-455.09 457.04,-426.3 457.04,-396.5 457.04,-396.5 457.04,-396.5 457.04,-105 457.04,-63.18 412.91,-41.46 372.21,-30.32"/>
<polygon fill="black" stroke="black" points="373.06,-26.92 362.51,-27.84 371.33,-33.7 373.06,-26.92"/>
<text text-anchor="middle" x="496.54" y="-250.8" font-family="Times,serif" font-size="14.00">Not Mifare</text>
<text text-anchor="middle" x="496.54" y="-235.8" font-family="Times,serif" font-size="14.00">Classic</text>
</g>
<!-- write_uid -->
<g id="node7" class="node">
<title>write_uid</title>
<polygon fill="pink" stroke="black" points="318.54,-318 157.54,-318 157.54,-280 318.54,-280 318.54,-318"/>
<text text-anchor="middle" x="238.04" y="-302.8" font-family="Times,serif" font-size="14.00">5. Write Source UID</text>
<text text-anchor="middle" x="238.04" y="-287.8" font-family="Times,serif" font-size="14.00">to Block 4</text>
</g>
<!-- auth&#45;&gt;write_uid -->
<g id="edge7" class="edge">
<title>auth&#45;&gt;write_uid</title>
<path fill="none" stroke="black" d="M298.66,-368.96C290.36,-363.57 282.14,-357.52 275.04,-351 267.39,-343.97 260.32,-335.13 254.46,-326.8"/>
<polygon fill="black" stroke="black" points="257.29,-324.74 248.81,-318.39 251.48,-328.65 257.29,-324.74"/>
<text text-anchor="middle" x="304.04" y="-339.8" font-family="Times,serif" font-size="14.00">Success</text>
</g>
<!-- auth&#45;&gt;fail -->
<g id="edge8" class="edge">
<title>auth&#45;&gt;fail</title>
<path fill="none" stroke="black" d="M347.04,-368.83C347.04,-349.82 347.04,-323.3 347.04,-300 347.04,-300 347.04,-300 347.04,-105 347.04,-82.99 335.8,-60.73 324.94,-44.37"/>
<polygon fill="black" stroke="black" points="327.63,-42.11 319.03,-35.93 321.9,-46.13 327.63,-42.11"/>
<text text-anchor="middle" x="388.04" y="-191.3" font-family="Times,serif" font-size="14.00">Auth Failed</text>
</g>
<!-- write_meta -->
<g id="node8" class="node">
<title>write_meta</title>
<polygon fill="pink" stroke="black" points="216.04,-214 70.04,-214 70.04,-176 216.04,-176 216.04,-214"/>
<text text-anchor="middle" x="143.04" y="-198.8" font-family="Times,serif" font-size="14.00">6. Write Metadata</text>
<text text-anchor="middle" x="143.04" y="-183.8" font-family="Times,serif" font-size="14.00">to Block 5</text>
</g>
<!-- write_uid&#45;&gt;write_meta -->
<g id="edge9" class="edge">
<title>write_uid&#45;&gt;write_meta</title>
<path fill="none" stroke="black" d="M194.96,-279.87C186.62,-274.96 178.49,-269.02 172.04,-262 162.16,-251.23 155.26,-236.56 150.67,-223.77"/>
<polygon fill="black" stroke="black" points="153.92,-222.45 147.48,-214.04 147.27,-224.64 153.92,-222.45"/>
<text text-anchor="middle" x="201.04" y="-243.3" font-family="Times,serif" font-size="14.00">Success</text>
</g>
<!-- write_uid&#45;&gt;fail -->
<g id="edge10" class="edge">
<title>write_uid&#45;&gt;fail</title>
<path fill="none" stroke="black" d="M236.54,-279.99C234.6,-250.74 232.81,-191.31 245.04,-143 254.2,-106.82 274.49,-68.67 288.94,-44.4"/>
<polygon fill="black" stroke="black" points="291.95,-46.17 294.15,-35.81 285.97,-42.54 291.95,-46.17"/>
<text text-anchor="middle" x="289.04" y="-146.8" font-family="Times,serif" font-size="14.00">Write Failed</text>
</g>
<!-- verify -->
<g id="node9" class="node">
<title>verify</title>
<polygon fill="violet" stroke="black" points="216.54,-125 67.54,-125 67.54,-87 216.54,-87 216.54,-125"/>
<text text-anchor="middle" x="142.04" y="-109.8" font-family="Times,serif" font-size="14.00">7. Verify Write</text>
<text text-anchor="middle" x="142.04" y="-94.8" font-family="Times,serif" font-size="14.00">Read Back Block 4</text>
</g>
<!-- write_meta&#45;&gt;verify -->
<g id="edge11" class="edge">
<title>write_meta&#45;&gt;verify</title>
<path fill="none" stroke="black" d="M142.83,-175.97C142.7,-164.19 142.52,-148.56 142.37,-135.16"/>
<polygon fill="black" stroke="black" points="145.86,-134.96 142.25,-125 138.86,-135.04 145.86,-134.96"/>
</g>
<!-- success -->
<g id="node10" class="node">
<title>success</title>
<ellipse fill="green" stroke="black" cx="89.04" cy="-18" rx="89.08" ry="18"/>
<text text-anchor="middle" x="89.04" y="-14.3" font-family="Times,serif" font-size="14.00" fill="white">Clone Successful</text>
</g>
<!-- verify&#45;&gt;success -->
<g id="edge12" class="edge">
<title>verify&#45;&gt;success</title>
<path fill="none" stroke="black" d="M106.13,-86.94C99.69,-82.02 93.83,-76.06 90.04,-69 86.37,-62.16 85.14,-54.01 85.1,-46.28"/>
<polygon fill="black" stroke="black" points="88.6,-46.36 85.65,-36.19 81.61,-45.98 88.6,-46.36"/>
<text text-anchor="middle" x="113.04" y="-57.8" font-family="Times,serif" font-size="14.00">Match</text>
</g>
<!-- verify&#45;&gt;fail -->
<g id="edge13" class="edge">
<title>verify&#45;&gt;fail</title>
<path fill="none" stroke="black" d="M143.75,-86.56C145.73,-75.63 149.96,-62.33 159.04,-54 170.66,-43.35 203.87,-34.95 235.69,-29.05"/>
<polygon fill="black" stroke="black" points="236.71,-32.43 245.94,-27.23 235.48,-25.54 236.71,-32.43"/>
<text text-anchor="middle" x="194.54" y="-57.8" font-family="Times,serif" font-size="14.00">Mismatch</text>
</g>
</g>
</svg>
