<?xml version="1.0" encoding="UTF-8" standalone="no"?>
<!DOCTYPE svg PUBLIC "-//W3C//DTD SVG 1.1//EN"
 "http://www.w3.org/Graphics/SVG/1.1/DTD/svg11.dtd">
<!-- Generated by graphviz version 2.43.0 (0)
 -->
<!-- Title: memory_structure Pages: 1 -->
<svg width="340pt" height="1002pt"
 viewBox="0.00 0.00 340.00 1002.00" xmlns="http://www.w3.org/2000/svg" xmlns:xlink="http://www.w3.org/1999/xlink">
<g id="graph0" class="graph" transform="scale(1 1) rotate(0) translate(4 998)">
<title>memory_structure</title>
<polygon fill="white" stroke="transparent" points="-4,4 -4,-998 336,-998 336,4 -4,4"/>
<g id="clust1" class="cluster">
<title>cluster_sector0</title>
<polygon fill="lightcoral" stroke="lightcoral" points="62,-595 62,-986 252,-986 252,-595 62,-595"/>
<text text-anchor="middle" x="157" y="-970.8" font-family="Times,serif" font-size="14.00">Sector 0 (Manufacturer)</text>
</g>
<g id="clust2" class="cluster">
<title>cluster_sector1</title>
<polygon fill="lightgreen" stroke="lightgreen" points="8,-134 8,-562 289,-562 289,-134 8,-134"/>
<text text-anchor="middle" x="148.5" y="-546.8" font-family="Times,serif" font-size="14.00">Sector 1 (Custom &#45; Used for Cloning)</text>
</g>
<g id="clust3" class="cluster">
<title>cluster_other</title>
<polygon fill="lightblue" stroke="lightblue" points="37,-8 37,-101 324,-101 324,-8 37,-8"/>
<text text-anchor="middle" x="180.5" y="-85.8" font-family="Times,serif" font-size="14.00">Sectors 2&#45;15 (Standard Data Storage)</text>
</g>
<!-- block0 -->
<g id="node1" class="node">
<title>block0</title>
<polygon fill="pink" stroke="black" points="71.5,-870.5 71.5,-954.5 224.5,-954.5 224.5,-870.5 71.5,-870.5"/>
<text text-anchor="middle" x="148" y="-939.3" font-family="Times,serif" font-size="14.00">Block 0</text>
<polyline fill="none" stroke="black" points="71.5,-931.5 224.5,-931.5 "/>
<text text-anchor="middle" x="148" y="-916.3" font-family="Times,serif" font-size="14.00">Physical UID</text>
<text text-anchor="middle" x="148" y="-901.3" font-family="Times,serif" font-size="14.00">(Read&#45;Only)</text>
<polyline fill="none" stroke="black" points="71.5,-893.5 224.5,-893.5 "/>
<text text-anchor="middle" x="148" y="-878.3" font-family="Times,serif" font-size="14.00">Manufacturer Data</text>
</g>
<!-- block1 -->
<g id="node2" class="node">
<title>block1</title>
<polygon fill="white" stroke="black" points="113.5,-786.5 113.5,-832.5 182.5,-832.5 182.5,-786.5 113.5,-786.5"/>
<text text-anchor="middle" x="148" y="-817.3" font-family="Times,serif" font-size="14.00">Block 1</text>
<polyline fill="none" stroke="black" points="113.5,-809.5 182.5,-809.5 "/>
<text text-anchor="middle" x="148" y="-794.3" font-family="Times,serif" font-size="14.00">Data</text>
</g>
<!-- block0&#45;&gt;block1 -->
<!-- block2 -->
<g id="node3" class="node">
<title>block2</title>
<polygon fill="white" stroke="black" points="113.5,-702.5 113.5,-748.5 182.5,-748.5 182.5,-702.5 113.5,-702.5"/>
<text text-anchor="middle" x="148" y="-733.3" font-family="Times,serif" font-size="14.00">Block 2</text>
<polyline fill="none" stroke="black" points="113.5,-725.5 182.5,-725.5 "/>
<text text-anchor="middle" x="148" y="-710.3" font-family="Times,serif" font-size="14.00">Data</text>
</g>
<!-- block1&#45;&gt;block2 -->
<!-- block3 -->
<g id="node4" class="node">
<title>block3</title>
<polygon fill="lightgray" stroke="black" points="82.5,-603.5 82.5,-664.5 213.5,-664.5 213.5,-603.5 82.5,-603.5"/>
<text text-anchor="middle" x="148" y="-649.3" font-family="Times,serif" font-size="14.00">Block 3</text>
<polyline fill="none" stroke="black" points="82.5,-641.5 213.5,-641.5 "/>
<text text-anchor="middle" x="148" y="-626.3" font-family="Times,serif" font-size="14.00">Sector Trailer</text>
<text text-anchor="middle" x="148" y="-611.3" font-family="Times,serif" font-size="14.00">(Keys &amp; Access)</text>
</g>
<!-- block2&#45;&gt;block3 -->
<!-- block4 -->
<g id="node5" class="node">
<title>block4</title>
<polygon fill="yellow" stroke="black" points="68,-454.5 68,-530.5 228,-530.5 228,-454.5 68,-454.5"/>
<text text-anchor="middle" x="148" y="-515.3" font-family="Times,serif" font-size="14.00">Block 4</text>
<polyline fill="none" stroke="black" points="68,-507.5 228,-507.5 "/>
<text text-anchor="middle" x="148" y="-492.3" font-family="Times,serif" font-size="14.00">Cloned UID Storage</text>
<text text-anchor="middle" x="148" y="-477.3" font-family="Times,serif" font-size="14.00">Byte 0: Length (4/7)</text>
<text text-anchor="middle" x="148" y="-462.3" font-family="Times,serif" font-size="14.00">Bytes 1&#45;7: UID Data</text>
</g>
<!-- block3&#45;&gt;block4 -->
<g id="edge4" class="edge">
<title>block3&#45;&gt;block4</title>
<path fill="none" stroke="black" stroke-dasharray="5,2" d="M148,-603.42C148,-585.22 148,-561.48 148,-540.73"/>
<polygon fill="black" stroke="black" points="151.5,-540.51 148,-530.51 144.5,-540.51 151.5,-540.51"/>
<text text-anchor="middle" x="208.5" y="-573.8" font-family="Times,serif" font-size="14.00">Sector Boundary</text>
</g>
<!-- block5 -->
<g id="node6" class="node">
<title>block5</title>
<polygon fill="lightyellow" stroke="black" points="76,-340.5 76,-416.5 220,-416.5 220,-340.5 76,-340.5"/>
<text text-anchor="middle" x="148" y="-401.3" font-family="Times,serif" font-size="14.00">Block 5</text>
<polyline fill="none" stroke="black" points="76,-393.5 220,-393.5 "/>
<text text-anchor="middle" x="148" y="-378.3" font-family="Times,serif" font-size="14.00">Metadata</text>
<text text-anchor="middle" x="148" y="-363.3" font-family="Times,serif" font-size="14.00">Timestamp, Flags</text>
<text text-anchor="middle" x="148" y="-348.3" font-family="Times,serif" font-size="14.00">Checksum</text>
</g>
<!-- block4&#45;&gt;block5 -->
<!-- block6 -->
<g id="node7" class="node">
<title>block6</title>
<polygon fill="white" stroke="black" points="94,-241.5 94,-302.5 202,-302.5 202,-241.5 94,-241.5"/>
<text text-anchor="middle" x="148" y="-287.3" font-family="Times,serif" font-size="14.00">Block 6</text>
<polyline fill="none" stroke="black" points="94,-279.5 202,-279.5 "/>
<text text-anchor="middle" x="148" y="-264.3" font-family="Times,serif" font-size="14.00">Reserved</text>
<text text-anchor="middle" x="148" y="-249.3" font-family="Times,serif" font-size="14.00">(Future Use)</text>
</g>
<!-- block5&#45;&gt;block6 -->
<!-- block7 -->
<g id="node8" class="node">
<title>block7</title>
<polygon fill="lightgray" stroke="black" points="82.5,-142.5 82.5,-203.5 213.5,-203.5 213.5,-142.5 82.5,-142.5"/>
<text text-anchor="middle" x="148" y="-188.3" font-family="Times,serif" font-size="14.00">Block 7</text>
<polyline fill="none" stroke="black" points="82.5,-180.5 213.5,-180.5 "/>
<text text-anchor="middle" x="148" y="-165.3" font-family="Times,serif" font-size="14.00">Sector Trailer</text>
<text text-anchor="middle" x="148" y="-150.3" font-family="Times,serif" font-size="14.00">(Keys &amp; Access)</text>
</g>
<!-- block6&#45;&gt;block7 -->
<!-- others -->
<g id="node9" class="node">
<title>others</title>
<polygon fill="lightcyan" stroke="black" points="73,-16.5 73,-69.5 223,-69.5 223,-16.5 73,-16.5"/>
<text text-anchor="middle" x="148" y="-54.3" font-family="Times,serif" font-size="14.00">Blocks 8&#45;63</text>
<text text-anchor="middle" x="148" y="-39.3" font-family="Times,serif" font-size="14.00">Available for</text>
<text text-anchor="middle" x="148" y="-24.3" font-family="Times,serif" font-size="14.00">Other Applications</text>
</g>
<!-- block7&#45;&gt;others -->
<g id="edge8" class="edge">
<title>block7&#45;&gt;others</title>
<path fill="none" stroke="black" stroke-dasharray="5,2" d="M148,-142.31C148,-123.66 148,-99.48 148,-79.77"/>
<polygon fill="black" stroke="black" points="151.5,-79.63 148,-69.63 144.5,-79.63 151.5,-79.63"/>
<text text-anchor="middle" x="203" y="-112.8" font-family="Times,serif" font-size="14.00">More Sectors...</text>
</g>
</g>
</svg>
