<?xml version="1.0" encoding="UTF-8" standalone="no"?>
<!DOCTYPE svg PUBLIC "-//W3C//DTD SVG 1.1//EN"
 "http://www.w3.org/Graphics/SVG/1.1/DTD/svg11.dtd">
<!-- Generated by graphviz version 2.43.0 (0)
 -->
<!-- Title: hardware_connections Pages: 1 -->
<svg width="772pt" height="1071pt"
 viewBox="0.00 0.00 772.21 1070.78" xmlns="http://www.w3.org/2000/svg" xmlns:xlink="http://www.w3.org/1999/xlink">
<g id="graph0" class="graph" transform="scale(1 1) rotate(0) translate(4 1066.78)">
<title>hardware_connections</title>
<polygon fill="white" stroke="transparent" points="-4,4 -4,-1066.78 768.21,-1066.78 768.21,4 -4,4"/>
<!-- arduino -->
<g id="node1" class="node">
<title>arduino</title>
<polygon fill="lightgreen" stroke="black" points="0,-279.28 0,-716.28 216,-716.28 216,-279.28 0,-279.28"/>
<text text-anchor="middle" x="57.5" y="-494.08" font-family="Times,serif" font-size="14.00">Arduino Nano</text>
<polyline fill="none" stroke="black" points="115,-279.28 115,-716.28 "/>
<text text-anchor="middle" x="165.5" y="-701.08" font-family="Times,serif" font-size="14.00">D2 (IRQ)</text>
<polyline fill="none" stroke="black" points="115,-693.28 216,-693.28 "/>
<text text-anchor="middle" x="165.5" y="-678.08" font-family="Times,serif" font-size="14.00">D3 (RST)</text>
<polyline fill="none" stroke="black" points="115,-670.28 216,-670.28 "/>
<text text-anchor="middle" x="165.5" y="-655.08" font-family="Times,serif" font-size="14.00">D4</text>
<polyline fill="none" stroke="black" points="115,-647.28 216,-647.28 "/>
<text text-anchor="middle" x="165.5" y="-632.08" font-family="Times,serif" font-size="14.00">D5</text>
<polyline fill="none" stroke="black" points="115,-624.28 216,-624.28 "/>
<text text-anchor="middle" x="165.5" y="-609.08" font-family="Times,serif" font-size="14.00">D6</text>
<polyline fill="none" stroke="black" points="115,-601.28 216,-601.28 "/>
<text text-anchor="middle" x="165.5" y="-586.08" font-family="Times,serif" font-size="14.00">D7</text>
<polyline fill="none" stroke="black" points="115,-578.28 216,-578.28 "/>
<text text-anchor="middle" x="165.5" y="-563.08" font-family="Times,serif" font-size="14.00">D8</text>
<polyline fill="none" stroke="black" points="115,-555.28 216,-555.28 "/>
<text text-anchor="middle" x="165.5" y="-540.08" font-family="Times,serif" font-size="14.00">D9</text>
<polyline fill="none" stroke="black" points="115,-532.28 216,-532.28 "/>
<text text-anchor="middle" x="165.5" y="-517.08" font-family="Times,serif" font-size="14.00">D10 (SS)</text>
<polyline fill="none" stroke="black" points="115,-509.28 216,-509.28 "/>
<text text-anchor="middle" x="165.5" y="-494.08" font-family="Times,serif" font-size="14.00">D11 (MOSI)</text>
<polyline fill="none" stroke="black" points="115,-486.28 216,-486.28 "/>
<text text-anchor="middle" x="165.5" y="-471.08" font-family="Times,serif" font-size="14.00">D12 (MISO)</text>
<polyline fill="none" stroke="black" points="115,-463.28 216,-463.28 "/>
<text text-anchor="middle" x="165.5" y="-448.08" font-family="Times,serif" font-size="14.00">D13 (SCK)</text>
<polyline fill="none" stroke="black" points="115,-440.28 216,-440.28 "/>
<text text-anchor="middle" x="165.5" y="-425.08" font-family="Times,serif" font-size="14.00">A0</text>
<polyline fill="none" stroke="black" points="115,-417.28 216,-417.28 "/>
<text text-anchor="middle" x="165.5" y="-402.08" font-family="Times,serif" font-size="14.00">A1</text>
<polyline fill="none" stroke="black" points="115,-394.28 216,-394.28 "/>
<text text-anchor="middle" x="165.5" y="-379.08" font-family="Times,serif" font-size="14.00">A2</text>
<polyline fill="none" stroke="black" points="115,-371.28 216,-371.28 "/>
<text text-anchor="middle" x="165.5" y="-356.08" font-family="Times,serif" font-size="14.00">A3</text>
<polyline fill="none" stroke="black" points="115,-348.28 216,-348.28 "/>
<text text-anchor="middle" x="165.5" y="-333.08" font-family="Times,serif" font-size="14.00">A4</text>
<polyline fill="none" stroke="black" points="115,-325.28 216,-325.28 "/>
<text text-anchor="middle" x="165.5" y="-310.08" font-family="Times,serif" font-size="14.00">5V</text>
<polyline fill="none" stroke="black" points="115,-302.28 216,-302.28 "/>
<text text-anchor="middle" x="165.5" y="-287.08" font-family="Times,serif" font-size="14.00">GND</text>
</g>
<!-- pn532 -->
<g id="node2" class="node">
<title>pn532</title>
<polygon fill="lightyellow" stroke="black" points="540,-394.78 540,-578.78 757,-578.78 757,-394.78 540,-394.78"/>
<text text-anchor="middle" x="620" y="-483.08" font-family="Times,serif" font-size="14.00">PN532 NFC Module</text>
<polyline fill="none" stroke="black" points="700,-394.78 700,-578.78 "/>
<text text-anchor="middle" x="728.5" y="-563.58" font-family="Times,serif" font-size="14.00">IRQ</text>
<polyline fill="none" stroke="black" points="700,-555.78 757,-555.78 "/>
<text text-anchor="middle" x="728.5" y="-540.58" font-family="Times,serif" font-size="14.00">RST</text>
<polyline fill="none" stroke="black" points="700,-532.78 757,-532.78 "/>
<text text-anchor="middle" x="728.5" y="-517.58" font-family="Times,serif" font-size="14.00">SS</text>
<polyline fill="none" stroke="black" points="700,-509.78 757,-509.78 "/>
<text text-anchor="middle" x="728.5" y="-494.58" font-family="Times,serif" font-size="14.00">MOSI</text>
<polyline fill="none" stroke="black" points="700,-486.78 757,-486.78 "/>
<text text-anchor="middle" x="728.5" y="-471.58" font-family="Times,serif" font-size="14.00">MISO</text>
<polyline fill="none" stroke="black" points="700,-463.78 757,-463.78 "/>
<text text-anchor="middle" x="728.5" y="-448.58" font-family="Times,serif" font-size="14.00">SCK</text>
<polyline fill="none" stroke="black" points="700,-440.78 757,-440.78 "/>
<text text-anchor="middle" x="728.5" y="-425.58" font-family="Times,serif" font-size="14.00">VCC</text>
<polyline fill="none" stroke="black" points="700,-417.78 757,-417.78 "/>
<text text-anchor="middle" x="728.5" y="-402.58" font-family="Times,serif" font-size="14.00">GND</text>
</g>
<!-- arduino&#45;&gt;pn532 -->
<g id="edge1" class="edge">
<title>arduino:d2&#45;&gt;pn532:irq</title>
<path fill="none" stroke="black" d="M216,-704.78C260.84,-704.78 268.72,-685.48 312,-673.78 491.79,-625.18 719.86,-764.22 728.26,-590"/>
<polygon fill="black" stroke="black" points="731.77,-589.86 728.5,-579.78 724.77,-589.69 731.77,-589.86"/>
<text text-anchor="middle" x="376.5" y="-677.58" font-family="Times,serif" font-size="14.00">IRQ</text>
</g>
<!-- arduino&#45;&gt;pn532 -->
<g id="edge2" class="edge">
<title>arduino:d3&#45;&gt;pn532:rst</title>
<path fill="none" stroke="black" d="M216,-681.78C261.89,-681.78 267.66,-655.59 312,-643.78 505.32,-592.28 624.38,-728.63 757.5,-579.28 760.73,-575.65 763.34,-562.8 762.88,-553.85"/>
<polygon fill="black" stroke="black" points="766,-552.26 758.5,-544.78 759.7,-555.3 766,-552.26"/>
<text text-anchor="middle" x="376.5" y="-647.58" font-family="Times,serif" font-size="14.00">RST</text>
</g>
<!-- arduino&#45;&gt;pn532 -->
<g id="edge3" class="edge">
<title>arduino:d10&#45;&gt;pn532:ss</title>
<path fill="none" stroke="black" d="M216,-520.78C224.3,-520.78 225.9,-523.95 234,-525.78 368.67,-556.18 402.45,-567.34 540,-579.28 636.3,-587.63 688.55,-647.03 757.5,-579.28 760.81,-576.02 763.21,-547.14 761.83,-531.59"/>
<polygon fill="black" stroke="black" points="765.02,-530.13 758.5,-521.78 758.39,-532.37 765.02,-530.13"/>
<text text-anchor="middle" x="376.5" y="-571.58" font-family="Times,serif" font-size="14.00">SS</text>
</g>
<!-- arduino&#45;&gt;pn532 -->
<g id="edge4" class="edge">
<title>arduino:d11&#45;&gt;pn532:mosi</title>
<path fill="none" stroke="black" d="M216,-497.78C316.72,-497.78 344.75,-495.12 441,-524.78 479.75,-536.72 487.27,-545.84 522,-566.78 530.34,-571.81 530.71,-576.37 540,-579.28 632.25,-608.17 688.72,-647.21 757.5,-579.28 762.47,-574.37 765.75,-528 762.67,-507.94"/>
<polygon fill="black" stroke="black" points="765.83,-506.43 758.5,-498.78 759.46,-509.33 765.83,-506.43"/>
<text text-anchor="middle" x="376.5" y="-528.58" font-family="Times,serif" font-size="14.00">MOSI</text>
</g>
<!-- arduino&#45;&gt;pn532 -->
<g id="edge5" class="edge">
<title>arduino:d12&#45;&gt;pn532:miso</title>
<path fill="none" stroke="black" d="M216,-474.78C353.88,-474.78 407.74,-500.95 522,-423.78 534.73,-415.18 526.61,-401.8 540,-394.28 624.3,-346.96 688.72,-326.35 757.5,-394.28 762.47,-399.19 765.75,-445.56 762.67,-465.61"/>
<polygon fill="black" stroke="black" points="759.46,-464.23 758.5,-474.78 765.83,-467.13 759.46,-464.23"/>
<text text-anchor="middle" x="376.5" y="-482.58" font-family="Times,serif" font-size="14.00">MISO</text>
</g>
<!-- arduino&#45;&gt;pn532 -->
<g id="edge6" class="edge">
<title>arduino:d13&#45;&gt;pn532:sck</title>
<path fill="none" stroke="black" d="M216,-451.78C362.25,-451.78 394.31,-407.11 540,-394.28 636.29,-385.8 688.55,-326.52 757.5,-394.28 760.81,-397.53 763.21,-426.41 761.83,-441.96"/>
<polygon fill="black" stroke="black" points="758.39,-441.18 758.5,-451.78 765.02,-443.43 758.39,-441.18"/>
<text text-anchor="middle" x="376.5" y="-446.58" font-family="Times,serif" font-size="14.00">SCK</text>
</g>
<!-- lcd -->
<g id="node3" class="node">
<title>lcd</title>
<polygon fill="lightblue" stroke="black" points="551.5,-736.28 551.5,-943.28 745.5,-943.28 745.5,-736.28 551.5,-736.28"/>
<text text-anchor="middle" x="624" y="-836.08" font-family="Times,serif" font-size="14.00">16x2 LCD Display</text>
<polyline fill="none" stroke="black" points="696.5,-736.28 696.5,-943.28 "/>
<text text-anchor="middle" x="721" y="-928.08" font-family="Times,serif" font-size="14.00">RS</text>
<polyline fill="none" stroke="black" points="696.5,-920.28 745.5,-920.28 "/>
<text text-anchor="middle" x="721" y="-905.08" font-family="Times,serif" font-size="14.00">E</text>
<polyline fill="none" stroke="black" points="696.5,-897.28 745.5,-897.28 "/>
<text text-anchor="middle" x="721" y="-882.08" font-family="Times,serif" font-size="14.00">D4</text>
<polyline fill="none" stroke="black" points="696.5,-874.28 745.5,-874.28 "/>
<text text-anchor="middle" x="721" y="-859.08" font-family="Times,serif" font-size="14.00">D5</text>
<polyline fill="none" stroke="black" points="696.5,-851.28 745.5,-851.28 "/>
<text text-anchor="middle" x="721" y="-836.08" font-family="Times,serif" font-size="14.00">D6</text>
<polyline fill="none" stroke="black" points="696.5,-828.28 745.5,-828.28 "/>
<text text-anchor="middle" x="721" y="-813.08" font-family="Times,serif" font-size="14.00">D7</text>
<polyline fill="none" stroke="black" points="696.5,-805.28 745.5,-805.28 "/>
<text text-anchor="middle" x="721" y="-790.08" font-family="Times,serif" font-size="14.00">VDD</text>
<polyline fill="none" stroke="black" points="696.5,-782.28 745.5,-782.28 "/>
<text text-anchor="middle" x="721" y="-767.08" font-family="Times,serif" font-size="14.00">VSS</text>
<polyline fill="none" stroke="black" points="696.5,-759.28 745.5,-759.28 "/>
<text text-anchor="middle" x="721" y="-744.08" font-family="Times,serif" font-size="14.00">V0</text>
</g>
<!-- arduino&#45;&gt;lcd -->
<g id="edge7" class="edge">
<title>arduino:d4&#45;&gt;lcd:rs</title>
<path fill="none" stroke="black" d="M216,-658.78C254.27,-658.78 207.62,-975.05 234,-1002.78 306.84,-1079.35 696.06,-1055.52 720.31,-954.77"/>
<polygon fill="black" stroke="black" points="723.8,-955.12 721.5,-944.78 716.85,-954.3 723.8,-955.12"/>
<text text-anchor="middle" x="376.5" y="-1051.58" font-family="Times,serif" font-size="14.00">RS</text>
</g>
<!-- arduino&#45;&gt;lcd -->
<g id="edge8" class="edge">
<title>arduino:d5&#45;&gt;lcd:e</title>
<path fill="none" stroke="black" d="M216,-635.78C251.5,-635.78 208.99,-929.58 234,-954.78 304.34,-1025.66 695.49,-995 745.5,-943.78 748.94,-940.25 751.54,-927.17 751.02,-918.04"/>
<polygon fill="black" stroke="black" points="754.03,-916.23 746.5,-908.78 747.74,-919.3 754.03,-916.23"/>
<text text-anchor="middle" x="376.5" y="-999.58" font-family="Times,serif" font-size="14.00">E</text>
</g>
<!-- arduino&#45;&gt;lcd -->
<g id="edge9" class="edge">
<title>arduino:d6&#45;&gt;lcd:d4</title>
<path fill="none" stroke="black" d="M216,-612.78C248.4,-612.78 211.83,-880.16 234,-903.78 273.01,-945.35 704.84,-983.74 745.5,-943.78 752.4,-937 756.76,-907.76 753.07,-893.57"/>
<polygon fill="black" stroke="black" points="755.62,-891.16 746.5,-885.78 750.27,-895.68 755.62,-891.16"/>
<text text-anchor="middle" x="376.5" y="-952.58" font-family="Times,serif" font-size="14.00">D4</text>
</g>
<!-- arduino&#45;&gt;lcd -->
<g id="edge10" class="edge">
<title>arduino:d7&#45;&gt;lcd:d5</title>
<path fill="none" stroke="black" d="M216,-589.78C245.29,-589.78 215.51,-830.06 234,-852.78 294.3,-926.89 349.22,-884.22 441,-910.78 490.23,-925.03 500.78,-936.37 551.5,-943.78 636.82,-956.25 684.16,-1004.37 745.5,-943.78 750.5,-938.84 753.79,-892.18 750.7,-872"/>
<polygon fill="black" stroke="black" points="753.83,-870.43 746.5,-862.78 747.46,-873.33 753.83,-870.43"/>
<text text-anchor="middle" x="376.5" y="-914.58" font-family="Times,serif" font-size="14.00">D5</text>
</g>
<!-- arduino&#45;&gt;lcd -->
<g id="edge11" class="edge">
<title>arduino:d8&#45;&gt;lcd:d6</title>
<path fill="none" stroke="black" d="M216,-566.78C242.19,-566.78 218.24,-780.86 234,-801.78 316.44,-911.22 409.42,-833.68 522,-911.78 537.89,-922.8 533.78,-936.01 551.5,-943.78 630.47,-978.39 684.24,-1004.45 745.5,-943.78 752.17,-937.17 756.29,-872.64 751.4,-848.68"/>
<polygon fill="black" stroke="black" points="754.39,-846.85 746.5,-839.78 748.26,-850.23 754.39,-846.85"/>
<text text-anchor="middle" x="376.5" y="-879.58" font-family="Times,serif" font-size="14.00">D6</text>
</g>
<!-- arduino&#45;&gt;lcd -->
<g id="edge12" class="edge">
<title>arduino:d9&#45;&gt;lcd:d7</title>
<path fill="none" stroke="black" d="M216,-543.78C246.27,-543.78 220.93,-651.48 234,-678.78 255.72,-724.15 265.77,-740.95 312,-760.78 364.69,-783.38 383.91,-766.02 441,-760.78 477.46,-757.43 486.57,-755.01 522,-745.78 535.4,-742.29 537.84,-738.03 551.5,-735.78 636.57,-721.75 684.16,-675.19 745.5,-735.78 750.5,-740.72 753.79,-787.38 750.7,-807.56"/>
<polygon fill="black" stroke="black" points="747.46,-806.23 746.5,-816.78 753.83,-809.13 747.46,-806.23"/>
<text text-anchor="middle" x="376.5" y="-775.58" font-family="Times,serif" font-size="14.00">D7</text>
</g>
<!-- btn_up -->
<g id="node4" class="node">
<title>btn_up</title>
<polygon fill="orange" stroke="black" points="422.5,-373.78 330.5,-373.78 330.5,-337.78 422.5,-337.78 422.5,-373.78"/>
<text text-anchor="middle" x="376.5" y="-352.08" font-family="Times,serif" font-size="14.00">Button UP</text>
</g>
<!-- arduino&#45;&gt;btn_up -->
<g id="edge13" class="edge">
<title>arduino:a0&#45;&gt;btn_up</title>
<path fill="none" stroke="black" d="M216,-428.78C238.78,-428.78 216.48,-395.34 234,-380.78 257.66,-361.11 291.38,-354.59 319.96,-353.12"/>
<polygon fill="black" stroke="black" points="320.35,-356.61 330.23,-352.79 320.12,-349.61 320.35,-356.61"/>
<text text-anchor="middle" x="264" y="-384.58" font-family="Times,serif" font-size="14.00">UP</text>
</g>
<!-- btn_down -->
<g id="node5" class="node">
<title>btn_down</title>
<polygon fill="orange" stroke="black" points="436,-319.78 317,-319.78 317,-283.78 436,-283.78 436,-319.78"/>
<text text-anchor="middle" x="376.5" y="-298.08" font-family="Times,serif" font-size="14.00">Button DOWN</text>
</g>
<!-- arduino&#45;&gt;btn_down -->
<g id="edge14" class="edge">
<title>arduino:a1&#45;&gt;btn_down</title>
<path fill="none" stroke="black" d="M216,-405.78C247.69,-405.78 211.45,-359.05 234,-336.78 253.16,-317.86 280.83,-308.63 306.63,-304.29"/>
<polygon fill="black" stroke="black" points="307.39,-307.71 316.78,-302.81 306.38,-300.79 307.39,-307.71"/>
<text text-anchor="middle" x="264" y="-340.58" font-family="Times,serif" font-size="14.00">DOWN</text>
</g>
<!-- btn_select -->
<g id="node6" class="node">
<title>btn_select</title>
<polygon fill="orange" stroke="black" points="441,-265.78 312,-265.78 312,-229.78 441,-229.78 441,-265.78"/>
<text text-anchor="middle" x="376.5" y="-244.08" font-family="Times,serif" font-size="14.00">Button SELECT</text>
</g>
<!-- arduino&#45;&gt;btn_select -->
<g id="edge15" class="edge">
<title>arduino:a2&#45;&gt;btn_select</title>
<path fill="none" stroke="black" d="M216,-382.78C258.97,-382.78 204.98,-319.48 234,-287.78 251.35,-268.83 276.92,-258.6 301.58,-253.16"/>
<polygon fill="black" stroke="black" points="302.55,-256.53 311.69,-251.17 301.2,-249.66 302.55,-256.53"/>
<text text-anchor="middle" x="264" y="-291.58" font-family="Times,serif" font-size="14.00">SELECT</text>
</g>
<!-- btn_back -->
<g id="node7" class="node">
<title>btn_back</title>
<polygon fill="orange" stroke="black" points="432,-211.78 321,-211.78 321,-175.78 432,-175.78 432,-211.78"/>
<text text-anchor="middle" x="376.5" y="-190.08" font-family="Times,serif" font-size="14.00">Button BACK</text>
</g>
<!-- arduino&#45;&gt;btn_back -->
<g id="edge16" class="edge">
<title>arduino:a3&#45;&gt;btn_back</title>
<path fill="none" stroke="black" d="M216,-359.78C243.84,-359.78 215.78,-256.84 234,-235.78 253.11,-213.69 283.26,-202.94 310.83,-197.82"/>
<polygon fill="black" stroke="black" points="311.54,-201.25 320.85,-196.17 310.41,-194.34 311.54,-201.25"/>
<text text-anchor="middle" x="264" y="-239.58" font-family="Times,serif" font-size="14.00">BACK</text>
</g>
<!-- relay -->
<g id="node8" class="node">
<title>relay</title>
<polygon fill="pink" stroke="black" points="566,-33.28 566,-102.28 731,-102.28 731,-33.28 566,-33.28"/>
<text text-anchor="middle" x="623" y="-64.08" font-family="Times,serif" font-size="14.00">Relay Module</text>
<polyline fill="none" stroke="black" points="680,-33.28 680,-102.28 "/>
<text text-anchor="middle" x="705.5" y="-87.08" font-family="Times,serif" font-size="14.00">IN</text>
<polyline fill="none" stroke="black" points="680,-79.28 731,-79.28 "/>
<text text-anchor="middle" x="705.5" y="-64.08" font-family="Times,serif" font-size="14.00">VCC</text>
<polyline fill="none" stroke="black" points="680,-56.28 731,-56.28 "/>
<text text-anchor="middle" x="705.5" y="-41.08" font-family="Times,serif" font-size="14.00">GND</text>
</g>
<!-- arduino&#45;&gt;relay -->
<g id="edge17" class="edge">
<title>arduino:a4&#45;&gt;relay:in</title>
<path fill="none" stroke="black" d="M216,-336.78C246.93,-336.78 217.07,-224.66 234,-198.78 256.15,-164.9 273.73,-164.96 312,-151.78 475.16,-95.56 696.22,-272.45 705.22,-114.17"/>
<polygon fill="black" stroke="black" points="708.73,-113.87 705.5,-103.78 701.73,-113.68 708.73,-113.87"/>
<text text-anchor="middle" x="376.5" y="-155.58" font-family="Times,serif" font-size="14.00">Control</text>
</g>
<!-- power_gnd -->
<g id="node11" class="node">
<title>power_gnd</title>
<ellipse fill="black" stroke="black" cx="376.5" cy="-34.78" rx="33.29" ry="18"/>
<text text-anchor="middle" x="376.5" y="-31.08" font-family="Times,serif" font-size="14.00" fill="white">GND</text>
</g>
<!-- arduino&#45;&gt;power_gnd -->
<g id="edge19" class="edge">
<title>arduino:gnd&#45;&gt;power_gnd</title>
<path fill="none" stroke="black" d="M216,-290.78C252.22,-290.78 217.08,-160.81 234,-128.78 255.62,-87.83 303.95,-61.75 338.09,-47.71"/>
<polygon fill="black" stroke="black" points="339.72,-50.82 347.74,-43.9 337.15,-44.31 339.72,-50.82"/>
</g>
<!-- pot -->
<g id="node9" class="node">
<title>pot</title>
<ellipse fill="lightgray" stroke="black" cx="376.5" cy="-724.78" rx="62.87" ry="26.74"/>
<text text-anchor="middle" x="376.5" y="-728.58" font-family="Times,serif" font-size="14.00">10kΩ POT</text>
<text text-anchor="middle" x="376.5" y="-713.58" font-family="Times,serif" font-size="14.00">(Contrast)</text>
</g>
<!-- pot&#45;&gt;lcd -->
<g id="edge26" class="edge">
<title>pot&#45;&gt;lcd:v0</title>
<path fill="none" stroke="black" d="M439.4,-725.81C524.51,-727.32 671.68,-730.28 711.38,-733.3"/>
<polygon fill="black" stroke="black" points="711.1,-736.79 721.5,-734.78 712.11,-729.87 711.1,-736.79"/>
<text text-anchor="middle" x="490.5" y="-730.58" font-family="Times,serif" font-size="14.00">Contrast</text>
</g>
<!-- power_5v -->
<g id="node10" class="node">
<title>power_5v</title>
<ellipse fill="red" stroke="black" cx="376.5" cy="-88.78" rx="27" ry="18"/>
<text text-anchor="middle" x="376.5" y="-85.08" font-family="Times,serif" font-size="14.00">5V</text>
</g>
<!-- power_5v&#45;&gt;pn532 -->
<g id="edge20" class="edge">
<title>power_5v&#45;&gt;pn532:vcc</title>
<path fill="none" stroke="black" d="M399.7,-98.32C412.24,-104.12 427.97,-112.06 441,-120.78 595.51,-224.17 677.71,-226.36 757.5,-394.28 759.53,-398.55 762.36,-410.69 762.42,-419.36"/>
<polygon fill="black" stroke="black" points="759.11,-418.2 758.5,-428.78 765.58,-420.89 759.11,-418.2"/>
</g>
<!-- power_5v&#45;&gt;lcd -->
<g id="edge21" class="edge">
<title>power_5v&#45;&gt;lcd:vdd</title>
<path fill="none" stroke="black" d="M402.24,-94.57C416.13,-99.2 432.37,-107.25 441,-120.78 475.66,-175.15 415.52,-653.17 459,-700.78 502.25,-748.14 702.57,-688.12 745.5,-735.78 751.97,-742.96 756.55,-771.99 753,-786.06"/>
<polygon fill="black" stroke="black" points="750.26,-783.87 746.5,-793.78 755.62,-788.38 750.26,-783.87"/>
</g>
<!-- power_5v&#45;&gt;relay -->
<g id="edge22" class="edge">
<title>power_5v&#45;&gt;relay:vcc</title>
<path fill="none" stroke="black" d="M403.38,-91.31C439.68,-94.72 507.79,-100.62 566,-102.78 639.51,-105.5 678.75,-154.04 731.5,-102.78 735.07,-99.3 737.67,-85.92 737.03,-76.74"/>
<polygon fill="black" stroke="black" points="740.14,-75.12 732.5,-67.78 733.89,-78.28 740.14,-75.12"/>
</g>
<!-- power_gnd&#45;&gt;pn532 -->
<g id="edge23" class="edge">
<title>power_gnd&#45;&gt;pn532:gnd</title>
<path fill="none" stroke="black" d="M404.99,-44.31C416.52,-48.84 429.82,-54.81 441,-61.78 481.38,-86.95 489.12,-97.38 522,-131.78 622.04,-236.45 723.62,-245.15 728.33,-383.58"/>
<polygon fill="black" stroke="black" points="724.83,-383.84 728.5,-393.78 731.83,-383.72 724.83,-383.84"/>
</g>
<!-- power_gnd&#45;&gt;lcd -->
<g id="edge24" class="edge">
<title>power_gnd&#45;&gt;lcd:vss</title>
<path fill="none" stroke="black" d="M407.85,-41.09C419.86,-45.08 432.74,-51.51 441,-61.78 459.67,-84.99 523.98,-563.66 540,-588.78 600.39,-683.45 692.73,-636.65 745.5,-735.78 747.79,-740.07 750.64,-752.67 750.57,-761.51"/>
<polygon fill="black" stroke="black" points="747.32,-760.21 746.5,-770.78 753.72,-763.03 747.32,-760.21"/>
</g>
<!-- power_gnd&#45;&gt;relay -->
<g id="edge25" class="edge">
<title>power_gnd&#45;&gt;relay:gnd</title>
<path fill="none" stroke="black" d="M407.48,-28.31C483.39,-12.69 678.9,22.71 703.04,-21.78"/>
<polygon fill="black" stroke="black" points="699.71,-22.9 705.5,-31.78 706.51,-21.23 699.71,-22.9"/>
</g>
<!-- v -->
<g id="node12" class="node">
<title>v</title>
<polygon fill="none" stroke="black" points="81,-70.78 81,-106.78 135,-106.78 135,-70.78 81,-70.78"/>
<text text-anchor="middle" x="108" y="-85.08" font-family="Times,serif" font-size="14.00">v</text>
</g>
<!-- v&#45;&gt;power_5v -->
<g id="edge18" class="edge">
<title>v&#45;&gt;power_5v</title>
<path fill="none" stroke="black" d="M135.04,-88.78C182.8,-88.78 284.52,-88.78 339.1,-88.78"/>
<polygon fill="black" stroke="black" points="339.36,-92.28 349.36,-88.78 339.36,-85.28 339.36,-92.28"/>
</g>
</g>
</svg>
