<?xml version="1.0" encoding="UTF-8" standalone="no"?>
<!DOCTYPE svg PUBLIC "-//W3C//DTD SVG 1.1//EN"
 "http://www.w3.org/Graphics/SVG/1.1/DTD/svg11.dtd">
<!-- Generated by graphviz version 2.43.0 (0)
 -->
<!-- Title: eeprom_layout Pages: 1 -->
<svg width="890pt" height="85pt"
 viewBox="0.00 0.00 890.00 85.00" xmlns="http://www.w3.org/2000/svg" xmlns:xlink="http://www.w3.org/1999/xlink">
<g id="graph0" class="graph" transform="scale(1 1) rotate(0) translate(4 81)">
<title>eeprom_layout</title>
<polygon fill="white" stroke="transparent" points="-4,4 -4,-81 886,-81 886,4 -4,4"/>
<!-- eeprom -->
<g id="node1" class="node">
<title>eeprom</title>
<polygon fill="lightblue" stroke="black" points="0,-0.5 0,-76.5 882,-76.5 882,-0.5 0,-0.5"/>
<text text-anchor="middle" x="441" y="-61.3" font-family="Times,serif" font-size="14.00">EEPROM Memory Layout</text>
<polyline fill="none" stroke="black" points="0,-53.5 882,-53.5 "/>
<text text-anchor="middle" x="61.5" y="-38.3" font-family="Times,serif" font-size="14.00">Address 0&#45;1</text>
<text text-anchor="middle" x="61.5" y="-23.3" font-family="Times,serif" font-size="14.00">Magic Number</text>
<text text-anchor="middle" x="61.5" y="-8.3" font-family="Times,serif" font-size="14.00">0xABCD</text>
<polyline fill="none" stroke="black" points="123,-0.5 123,-53.5 "/>
<text text-anchor="middle" x="172" y="-38.3" font-family="Times,serif" font-size="14.00">Address 2</text>
<text text-anchor="middle" x="172" y="-23.3" font-family="Times,serif" font-size="14.00">Card Count</text>
<text text-anchor="middle" x="172" y="-8.3" font-family="Times,serif" font-size="14.00">(0&#45;40)</text>
<polyline fill="none" stroke="black" points="221,-0.5 221,-53.5 "/>
<text text-anchor="middle" x="276" y="-38.3" font-family="Times,serif" font-size="14.00">Address 3&#45;10</text>
<text text-anchor="middle" x="276" y="-23.3" font-family="Times,serif" font-size="14.00">Card 1</text>
<text text-anchor="middle" x="276" y="-8.3" font-family="Times,serif" font-size="14.00">(8 bytes)</text>
<polyline fill="none" stroke="black" points="331,-0.5 331,-53.5 "/>
<text text-anchor="middle" x="390.5" y="-38.3" font-family="Times,serif" font-size="14.00">Address 11&#45;18</text>
<text text-anchor="middle" x="390.5" y="-23.3" font-family="Times,serif" font-size="14.00">Card 2</text>
<text text-anchor="middle" x="390.5" y="-8.3" font-family="Times,serif" font-size="14.00">(8 bytes)</text>
<polyline fill="none" stroke="black" points="450,-0.5 450,-53.5 "/>
<text text-anchor="middle" x="509.5" y="-38.3" font-family="Times,serif" font-size="14.00">Address 19&#45;26</text>
<text text-anchor="middle" x="509.5" y="-23.3" font-family="Times,serif" font-size="14.00">Card 3</text>
<text text-anchor="middle" x="509.5" y="-8.3" font-family="Times,serif" font-size="14.00">(8 bytes)</text>
<polyline fill="none" stroke="black" points="569,-0.5 569,-53.5 "/>
<text text-anchor="middle" x="584" y="-23.3" font-family="Times,serif" font-size="14.00">...</text>
<polyline fill="none" stroke="black" points="599,-0.5 599,-53.5 "/>
<text text-anchor="middle" x="667.5" y="-38.3" font-family="Times,serif" font-size="14.00">Address 315&#45;322</text>
<text text-anchor="middle" x="667.5" y="-23.3" font-family="Times,serif" font-size="14.00">Card 40</text>
<text text-anchor="middle" x="667.5" y="-8.3" font-family="Times,serif" font-size="14.00">(8 bytes)</text>
<polyline fill="none" stroke="black" points="736,-0.5 736,-53.5 "/>
<text text-anchor="middle" x="809" y="-38.3" font-family="Times,serif" font-size="14.00">Address 323&#45;1023</text>
<text text-anchor="middle" x="809" y="-23.3" font-family="Times,serif" font-size="14.00">Free Space</text>
<text text-anchor="middle" x="809" y="-8.3" font-family="Times,serif" font-size="14.00">(701 bytes)</text>
</g>
</g>
</svg>
