<?xml version="1.0" encoding="UTF-8" standalone="no"?>
<!DOCTYPE svg PUBLIC "-//W3C//DTD SVG 1.1//EN"
 "http://www.w3.org/Graphics/SVG/1.1/DTD/svg11.dtd">
<!-- Generated by graphviz version 2.43.0 (0)
 -->
<!-- Title: read_flow Pages: 1 -->
<svg width="440pt" height="647pt"
 viewBox="0.00 0.00 439.57 647.00" xmlns="http://www.w3.org/2000/svg" xmlns:xlink="http://www.w3.org/1999/xlink">
<g id="graph0" class="graph" transform="scale(1 1) rotate(0) translate(4 643)">
<title>read_flow</title>
<polygon fill="white" stroke="transparent" points="-4,4 -4,-643 435.57,-643 435.57,4 -4,4"/>
<!-- start -->
<g id="node1" class="node">
<title>start</title>
<ellipse fill="lightgreen" stroke="black" cx="284.5" cy="-621" rx="75.29" ry="18"/>
<text text-anchor="middle" x="284.5" y="-617.3" font-family="Times,serif" font-size="14.00">Card Scanned</text>
</g>
<!-- read_magic -->
<g id="node2" class="node">
<title>read_magic</title>
<polygon fill="lightblue" stroke="black" points="366.5,-566 202.5,-566 202.5,-528 366.5,-528 366.5,-566"/>
<text text-anchor="middle" x="284.5" y="-550.8" font-family="Times,serif" font-size="14.00">Read Magic Number</text>
<text text-anchor="middle" x="284.5" y="-535.8" font-family="Times,serif" font-size="14.00">(Addr 0&#45;1)</text>
</g>
<!-- start&#45;&gt;read_magic -->
<g id="edge1" class="edge">
<title>start&#45;&gt;read_magic</title>
<path fill="none" stroke="black" d="M284.5,-602.94C284.5,-594.99 284.5,-585.31 284.5,-576.31"/>
<polygon fill="black" stroke="black" points="288,-576.2 284.5,-566.2 281,-576.2 288,-576.2"/>
</g>
<!-- check_magic -->
<g id="node3" class="node">
<title>check_magic</title>
<polygon fill="yellow" stroke="black" points="284.5,-491 137.37,-473 284.5,-455 431.63,-473 284.5,-491"/>
<text text-anchor="middle" x="284.5" y="-469.3" font-family="Times,serif" font-size="14.00">Magic == 0xABCD?</text>
</g>
<!-- read_magic&#45;&gt;check_magic -->
<g id="edge2" class="edge">
<title>read_magic&#45;&gt;check_magic</title>
<path fill="none" stroke="black" d="M284.5,-527.83C284.5,-519.89 284.5,-510.41 284.5,-501.63"/>
<polygon fill="black" stroke="black" points="288,-501.42 284.5,-491.42 281,-501.42 288,-501.42"/>
</g>
<!-- read_count -->
<g id="node4" class="node">
<title>read_count</title>
<polygon fill="lightblue" stroke="black" points="303,-404 164,-404 164,-366 303,-366 303,-404"/>
<text text-anchor="middle" x="233.5" y="-388.8" font-family="Times,serif" font-size="14.00">Read Card Count</text>
<text text-anchor="middle" x="233.5" y="-373.8" font-family="Times,serif" font-size="14.00">(Addr 2)</text>
</g>
<!-- check_magic&#45;&gt;read_count -->
<g id="edge3" class="edge">
<title>check_magic&#45;&gt;read_count</title>
<path fill="none" stroke="black" d="M274.91,-455.82C267.76,-443.77 257.83,-427.03 249.49,-412.97"/>
<polygon fill="black" stroke="black" points="252.4,-411 244.29,-404.19 246.38,-414.57 252.4,-411"/>
<text text-anchor="middle" x="277" y="-425.8" font-family="Times,serif" font-size="14.00">Yes</text>
</g>
<!-- denied -->
<g id="node9" class="node">
<title>denied</title>
<ellipse fill="red" stroke="black" cx="342.5" cy="-179" rx="77.19" ry="18"/>
<text text-anchor="middle" x="342.5" y="-175.3" font-family="Times,serif" font-size="14.00" fill="white">Access Denied</text>
</g>
<!-- check_magic&#45;&gt;denied -->
<g id="edge4" class="edge">
<title>check_magic&#45;&gt;denied</title>
<path fill="none" stroke="black" d="M292.18,-455.88C298.32,-442.33 306.68,-422.3 311.5,-404 329.82,-334.5 337.79,-249.86 340.85,-207.26"/>
<polygon fill="black" stroke="black" points="344.35,-207.35 341.54,-197.13 337.36,-206.87 344.35,-207.35"/>
<text text-anchor="middle" x="361" y="-336.8" font-family="Times,serif" font-size="14.00">No</text>
<text text-anchor="middle" x="361" y="-321.8" font-family="Times,serif" font-size="14.00">(Not Init)</text>
</g>
<!-- loop_start -->
<g id="node5" class="node">
<title>loop_start</title>
<polygon fill="orange" stroke="black" points="293,-300 134,-300 134,-264 293,-264 293,-300"/>
<text text-anchor="middle" x="213.5" y="-278.3" font-family="Times,serif" font-size="14.00">For i = 0 to Count&#45;1</text>
</g>
<!-- read_count&#45;&gt;loop_start -->
<g id="edge5" class="edge">
<title>read_count&#45;&gt;loop_start</title>
<path fill="none" stroke="black" d="M229.92,-365.94C226.87,-350.53 222.44,-328.13 218.94,-310.49"/>
<polygon fill="black" stroke="black" points="222.29,-309.36 216.91,-300.23 215.42,-310.72 222.29,-309.36"/>
</g>
<!-- read_entry -->
<g id="node6" class="node">
<title>read_entry</title>
<polygon fill="lightblue" stroke="black" points="137,-198 0,-198 0,-160 137,-160 137,-198"/>
<text text-anchor="middle" x="68.5" y="-182.8" font-family="Times,serif" font-size="14.00">Read Card Entry</text>
<text text-anchor="middle" x="68.5" y="-167.8" font-family="Times,serif" font-size="14.00">(Addr 3 + i*8)</text>
</g>
<!-- loop_start&#45;&gt;read_entry -->
<g id="edge6" class="edge">
<title>loop_start&#45;&gt;read_entry</title>
<path fill="none" stroke="black" d="M186.4,-263.83C177.74,-258.24 168.16,-251.94 159.5,-246 139.86,-232.53 118.27,-216.9 101.05,-204.24"/>
<polygon fill="black" stroke="black" points="103.09,-201.4 92.97,-198.28 98.94,-207.03 103.09,-201.4"/>
</g>
<!-- loop_start&#45;&gt;denied -->
<g id="edge10" class="edge">
<title>loop_start&#45;&gt;denied</title>
<path fill="none" stroke="black" d="M214.8,-263.87C216.79,-249.32 221.81,-228.81 234.5,-216 244.52,-205.89 257.45,-198.62 270.86,-193.39"/>
<polygon fill="black" stroke="black" points="272.4,-196.55 280.67,-189.93 270.08,-189.95 272.4,-196.55"/>
<text text-anchor="middle" x="277" y="-234.8" font-family="Times,serif" font-size="14.00">All Checked</text>
<text text-anchor="middle" x="277" y="-219.8" font-family="Times,serif" font-size="14.00">No Match</text>
</g>
<!-- compare -->
<g id="node7" class="node">
<title>compare</title>
<polygon fill="yellow" stroke="black" points="120.5,-123 26.99,-105 120.5,-87 214.01,-105 120.5,-123"/>
<text text-anchor="middle" x="120.5" y="-101.3" font-family="Times,serif" font-size="14.00">UID Match?</text>
</g>
<!-- read_entry&#45;&gt;compare -->
<g id="edge7" class="edge">
<title>read_entry&#45;&gt;compare</title>
<path fill="none" stroke="black" d="M81.62,-159.83C88.32,-150.55 96.55,-139.16 103.71,-129.25"/>
<polygon fill="black" stroke="black" points="106.64,-131.16 109.66,-121.01 100.97,-127.06 106.64,-131.16"/>
</g>
<!-- compare&#45;&gt;loop_start -->
<g id="edge9" class="edge">
<title>compare&#45;&gt;loop_start</title>
<path fill="none" stroke="black" d="M128.95,-121.9C144.99,-152.08 180,-217.96 199.56,-254.77"/>
<polygon fill="black" stroke="black" points="196.63,-256.71 204.41,-263.9 202.81,-253.43 196.63,-256.71"/>
<text text-anchor="middle" x="206.5" y="-182.8" font-family="Times,serif" font-size="14.00">No</text>
<text text-anchor="middle" x="206.5" y="-167.8" font-family="Times,serif" font-size="14.00">Next Card</text>
</g>
<!-- granted -->
<g id="node8" class="node">
<title>granted</title>
<ellipse fill="green" stroke="black" cx="120.5" cy="-18" rx="83.39" ry="18"/>
<text text-anchor="middle" x="120.5" y="-14.3" font-family="Times,serif" font-size="14.00" fill="white">Access Granted</text>
</g>
<!-- compare&#45;&gt;granted -->
<g id="edge8" class="edge">
<title>compare&#45;&gt;granted</title>
<path fill="none" stroke="black" d="M120.5,-86.8C120.5,-75.16 120.5,-59.55 120.5,-46.24"/>
<polygon fill="black" stroke="black" points="124,-46.18 120.5,-36.18 117,-46.18 124,-46.18"/>
<text text-anchor="middle" x="133" y="-57.8" font-family="Times,serif" font-size="14.00">Yes</text>
</g>
</g>
</svg>
