<?xml version="1.0" encoding="UTF-8" standalone="no"?>
<!DOCTYPE svg PUBLIC "-//W3C//DTD SVG 1.1//EN"
 "http://www.w3.org/Graphics/SVG/1.1/DTD/svg11.dtd">
<!-- Generated by graphviz version 2.43.0 (0)
 -->
<!-- Title: state_machine Pages: 1 -->
<svg width="879pt" height="567pt"
 viewBox="0.00 0.00 879.00 566.72" xmlns="http://www.w3.org/2000/svg" xmlns:xlink="http://www.w3.org/1999/xlink">
<g id="graph0" class="graph" transform="scale(1 1) rotate(0) translate(4 562.72)">
<title>state_machine</title>
<polygon fill="white" stroke="transparent" points="-4,4 -4,-562.72 875,-562.72 875,4 -4,4"/>
<!-- IDLE -->
<g id="node1" class="node">
<title>IDLE</title>
<polygon fill="lightgreen" stroke="black" points="54,-200.72 0,-200.72 0,-164.72 54,-164.72 54,-200.72"/>
<text text-anchor="middle" x="27" y="-179.02" font-family="Times,serif" font-size="14.00">IDLE</text>
</g>
<!-- MENU -->
<g id="node2" class="node">
<title>MENU</title>
<polygon fill="lightblue" stroke="black" points="299.5,-293.72 234.5,-293.72 234.5,-257.72 299.5,-257.72 299.5,-293.72"/>
<text text-anchor="middle" x="267" y="-272.02" font-family="Times,serif" font-size="14.00">MENU</text>
</g>
<!-- IDLE&#45;&gt;MENU -->
<g id="edge3" class="edge">
<title>IDLE&#45;&gt;MENU</title>
<path fill="none" stroke="black" d="M30.46,-201.05C34.6,-223.77 45.31,-261.59 72,-278.72 117.57,-307.97 182.4,-299.3 224.34,-288.81"/>
<polygon fill="black" stroke="black" points="225.45,-292.13 234.22,-286.19 223.66,-285.37 225.45,-292.13"/>
<text text-anchor="middle" x="121" y="-316.52" font-family="Times,serif" font-size="14.00">SELECT</text>
<text text-anchor="middle" x="121" y="-301.52" font-family="Times,serif" font-size="14.00">Button</text>
</g>
<!-- ACCESS_GRANTED -->
<g id="node3" class="node">
<title>ACCESS_GRANTED</title>
<polygon fill="green" stroke="black" points="346,-213.72 188,-213.72 188,-177.72 346,-177.72 346,-213.72"/>
<text text-anchor="middle" x="267" y="-192.02" font-family="Times,serif" font-size="14.00" fill="white">ACCESS_GRANTED</text>
</g>
<!-- IDLE&#45;&gt;ACCESS_GRANTED -->
<g id="edge1" class="edge">
<title>IDLE&#45;&gt;ACCESS_GRANTED</title>
<path fill="none" stroke="black" d="M54.03,-185.99C59.93,-186.65 66.17,-187.27 72,-187.72 106.42,-190.38 144.34,-192.2 177.46,-193.41"/>
<polygon fill="black" stroke="black" points="177.46,-196.92 187.58,-193.77 177.71,-189.92 177.46,-196.92"/>
<text text-anchor="middle" x="121" y="-211.52" font-family="Times,serif" font-size="14.00">Card</text>
<text text-anchor="middle" x="121" y="-196.52" font-family="Times,serif" font-size="14.00">Authorized</text>
</g>
<!-- ACCESS_DENIED -->
<g id="node4" class="node">
<title>ACCESS_DENIED</title>
<polygon fill="red" stroke="black" points="339,-95.72 195,-95.72 195,-59.72 339,-59.72 339,-95.72"/>
<text text-anchor="middle" x="267" y="-74.02" font-family="Times,serif" font-size="14.00" fill="white">ACCESS_DENIED</text>
</g>
<!-- IDLE&#45;&gt;ACCESS_DENIED -->
<g id="edge2" class="edge">
<title>IDLE&#45;&gt;ACCESS_DENIED</title>
<path fill="none" stroke="black" d="M34.11,-164.53C40.72,-147.78 52.96,-123.62 72,-110.72 90.41,-98.25 140.25,-89.93 184.8,-84.77"/>
<polygon fill="black" stroke="black" points="185.25,-88.24 194.8,-83.65 184.47,-81.28 185.25,-88.24"/>
<text text-anchor="middle" x="121" y="-129.52" font-family="Times,serif" font-size="14.00">Card</text>
<text text-anchor="middle" x="121" y="-114.52" font-family="Times,serif" font-size="14.00">Unauthorized</text>
</g>
<!-- MENU&#45;&gt;IDLE -->
<g id="edge10" class="edge">
<title>MENU&#45;&gt;IDLE</title>
<path fill="none" stroke="black" d="M234.41,-269.87C186.9,-260.71 99.64,-242.42 72,-226.72 63.58,-221.94 55.67,-215.12 48.94,-208.27"/>
<polygon fill="black" stroke="black" points="51.49,-205.88 42.13,-200.92 46.35,-210.63 51.49,-205.88"/>
<text text-anchor="middle" x="121" y="-259.52" font-family="Times,serif" font-size="14.00">Exit Menu</text>
</g>
<!-- REGISTERING -->
<g id="node5" class="node">
<title>REGISTERING</title>
<polygon fill="yellow" stroke="black" points="601.5,-502.72 479.5,-502.72 479.5,-466.72 601.5,-466.72 601.5,-502.72"/>
<text text-anchor="middle" x="540.5" y="-481.02" font-family="Times,serif" font-size="14.00">REGISTERING</text>
</g>
<!-- MENU&#45;&gt;REGISTERING -->
<g id="edge6" class="edge">
<title>MENU&#45;&gt;REGISTERING</title>
<path fill="none" stroke="black" d="M268.82,-294.02C272.01,-340.67 287.63,-464.02 364,-515.72 404.15,-542.91 460.92,-525.19 498.9,-507.36"/>
<polygon fill="black" stroke="black" points="500.69,-510.38 508.14,-502.85 497.61,-504.09 500.69,-510.38"/>
<text text-anchor="middle" x="403.5" y="-547.52" font-family="Times,serif" font-size="14.00">Select</text>
<text text-anchor="middle" x="403.5" y="-532.52" font-family="Times,serif" font-size="14.00">Register</text>
</g>
<!-- DELETING -->
<g id="node6" class="node">
<title>DELETING</title>
<polygon fill="orange" stroke="black" points="588,-358.72 493,-358.72 493,-322.72 588,-322.72 588,-358.72"/>
<text text-anchor="middle" x="540.5" y="-337.02" font-family="Times,serif" font-size="14.00">DELETING</text>
</g>
<!-- MENU&#45;&gt;DELETING -->
<g id="edge7" class="edge">
<title>MENU&#45;&gt;DELETING</title>
<path fill="none" stroke="black" d="M279.31,-293.73C295.02,-316.87 325.89,-355.94 364,-371.72 405.72,-389 456.92,-376.5 493.22,-362.56"/>
<polygon fill="black" stroke="black" points="494.6,-365.78 502.58,-358.81 492,-359.28 494.6,-365.78"/>
<text text-anchor="middle" x="403.5" y="-398.52" font-family="Times,serif" font-size="14.00">Select</text>
<text text-anchor="middle" x="403.5" y="-383.52" font-family="Times,serif" font-size="14.00">Delete</text>
</g>
<!-- LISTING_CARDS -->
<g id="node7" class="node">
<title>LISTING_CARDS</title>
<polygon fill="cyan" stroke="black" points="609,-241.72 472,-241.72 472,-205.72 609,-205.72 609,-241.72"/>
<text text-anchor="middle" x="540.5" y="-220.02" font-family="Times,serif" font-size="14.00">LISTING_CARDS</text>
</g>
<!-- MENU&#45;&gt;LISTING_CARDS -->
<g id="edge8" class="edge">
<title>MENU&#45;&gt;LISTING_CARDS</title>
<path fill="none" stroke="black" d="M299.81,-266.57C318.41,-261.43 342.41,-255.18 364,-250.72 395.73,-244.17 431,-238.44 461.54,-233.97"/>
<polygon fill="black" stroke="black" points="462.31,-237.4 471.71,-232.51 461.31,-230.47 462.31,-237.4"/>
<text text-anchor="middle" x="403.5" y="-269.52" font-family="Times,serif" font-size="14.00">Select</text>
<text text-anchor="middle" x="403.5" y="-254.52" font-family="Times,serif" font-size="14.00">List</text>
</g>
<!-- CLONING_SOURCE -->
<g id="node8" class="node">
<title>CLONING_SOURCE</title>
<polygon fill="violet" stroke="black" points="620,-156.72 461,-156.72 461,-120.72 620,-120.72 620,-156.72"/>
<text text-anchor="middle" x="540.5" y="-135.02" font-family="Times,serif" font-size="14.00">CLONING_SOURCE</text>
</g>
<!-- MENU&#45;&gt;CLONING_SOURCE -->
<g id="edge9" class="edge">
<title>MENU&#45;&gt;CLONING_SOURCE</title>
<path fill="none" stroke="black" d="M299.78,-260.92C315.8,-251.96 334.27,-239.09 346,-222.72 363.47,-198.36 341.16,-177.13 364,-157.72 387.61,-137.67 419.93,-130.49 450.41,-129.14"/>
<polygon fill="black" stroke="black" points="450.74,-132.63 460.66,-128.9 450.58,-125.64 450.74,-132.63"/>
<text text-anchor="middle" x="403.5" y="-176.52" font-family="Times,serif" font-size="14.00">Select</text>
<text text-anchor="middle" x="403.5" y="-161.52" font-family="Times,serif" font-size="14.00">Clone</text>
</g>
<!-- ACCESS_GRANTED&#45;&gt;IDLE -->
<g id="edge4" class="edge">
<title>ACCESS_GRANTED&#45;&gt;IDLE</title>
<path fill="none" stroke="black" d="M233.8,-177.64C215.67,-168.5 192.26,-158.38 170,-153.72 127.37,-144.81 113.72,-141.21 72,-153.72 67.54,-155.06 63.12,-157.01 58.89,-159.28"/>
<polygon fill="black" stroke="black" points="56.77,-156.47 50.01,-164.64 60.38,-162.47 56.77,-156.47"/>
<text text-anchor="middle" x="121" y="-172.52" font-family="Times,serif" font-size="14.00">Timeout</text>
<text text-anchor="middle" x="121" y="-157.52" font-family="Times,serif" font-size="14.00">(3s)</text>
</g>
<!-- ACCESS_DENIED&#45;&gt;IDLE -->
<g id="edge5" class="edge">
<title>ACCESS_DENIED&#45;&gt;IDLE</title>
<path fill="none" stroke="black" d="M230.54,-59.6C188.66,-41.01 118.77,-19.17 72,-52.72 39.79,-75.83 30.86,-123.81 28.56,-154.58"/>
<polygon fill="black" stroke="black" points="25.06,-154.49 27.99,-164.67 32.05,-154.88 25.06,-154.49"/>
<text text-anchor="middle" x="121" y="-71.52" font-family="Times,serif" font-size="14.00">Timeout</text>
<text text-anchor="middle" x="121" y="-56.52" font-family="Times,serif" font-size="14.00">(2s)</text>
</g>
<!-- REGISTERING&#45;&gt;MENU -->
<g id="edge11" class="edge">
<title>REGISTERING&#45;&gt;MENU</title>
<path fill="none" stroke="black" d="M479.42,-483.1C436.12,-480.85 382.24,-475.49 364,-462.72 309.42,-424.53 283.87,-345.73 273.7,-303.65"/>
<polygon fill="black" stroke="black" points="277.08,-302.75 271.43,-293.79 270.26,-304.32 277.08,-302.75"/>
<text text-anchor="middle" x="403.5" y="-498.52" font-family="Times,serif" font-size="14.00">Card</text>
<text text-anchor="middle" x="403.5" y="-483.52" font-family="Times,serif" font-size="14.00">Registered</text>
</g>
<!-- REGISTERING&#45;&gt;MENU -->
<g id="edge16" class="edge">
<title>REGISTERING&#45;&gt;MENU</title>
<path fill="none" stroke="black" d="M497.85,-466.61C480.89,-459.34 461.07,-450.99 443,-443.72 408.15,-429.71 393.6,-436.84 364,-413.72 325.6,-383.74 296.46,-334.18 280.83,-303.32"/>
<polygon fill="black" stroke="black" points="283.8,-301.43 276.24,-294.01 277.52,-304.53 283.8,-301.43"/>
<text text-anchor="middle" x="403.5" y="-447.52" font-family="Times,serif" font-size="14.00">BACK</text>
</g>
<!-- DELETING&#45;&gt;MENU -->
<g id="edge12" class="edge">
<title>DELETING&#45;&gt;MENU</title>
<path fill="none" stroke="black" d="M492.94,-338.64C457.14,-336.15 406.73,-330.68 364,-318.72 345.33,-313.5 325.63,-305.21 308.98,-297.3"/>
<polygon fill="black" stroke="black" points="310.07,-293.94 299.55,-292.71 307.01,-300.24 310.07,-293.94"/>
<text text-anchor="middle" x="403.5" y="-351.52" font-family="Times,serif" font-size="14.00">Card</text>
<text text-anchor="middle" x="403.5" y="-336.52" font-family="Times,serif" font-size="14.00">Deleted</text>
</g>
<!-- DELETING&#45;&gt;MENU -->
<g id="edge17" class="edge">
<title>DELETING&#45;&gt;MENU</title>
<path fill="none" stroke="black" d="M503.2,-322.59C485.45,-314.43 463.53,-305.38 443,-299.72 398.47,-287.45 345.75,-281.31 309.9,-278.33"/>
<polygon fill="black" stroke="black" points="310.05,-274.83 299.8,-277.54 309.5,-281.81 310.05,-274.83"/>
<text text-anchor="middle" x="403.5" y="-303.52" font-family="Times,serif" font-size="14.00">BACK</text>
</g>
<!-- LISTING_CARDS&#45;&gt;MENU -->
<g id="edge13" class="edge">
<title>LISTING_CARDS&#45;&gt;MENU</title>
<path fill="none" stroke="black" d="M493.93,-205.68C457.31,-194.09 405.35,-184.31 364,-202.72 353.08,-207.59 355.01,-214.86 346,-222.72 333.97,-233.22 319.79,-243.41 306.84,-252"/>
<polygon fill="black" stroke="black" points="304.59,-249.29 298.12,-257.68 308.41,-255.16 304.59,-249.29"/>
<text text-anchor="middle" x="403.5" y="-221.52" font-family="Times,serif" font-size="14.00">BACK</text>
<text text-anchor="middle" x="403.5" y="-206.52" font-family="Times,serif" font-size="14.00">Button</text>
</g>
<!-- CLONING_SOURCE&#45;&gt;MENU -->
<g id="edge18" class="edge">
<title>CLONING_SOURCE&#45;&gt;MENU</title>
<path fill="none" stroke="black" d="M489.55,-120.69C474.76,-116.18 458.4,-111.99 443,-109.72 408.26,-104.62 390.71,-86.93 364,-109.72 325.31,-142.73 373.27,-179.8 346,-222.72 337,-236.89 322.69,-248.21 308.78,-256.7"/>
<polygon fill="black" stroke="black" points="306.69,-253.86 299.75,-261.86 310.17,-259.93 306.69,-253.86"/>
<text text-anchor="middle" x="403.5" y="-113.52" font-family="Times,serif" font-size="14.00">BACK</text>
</g>
<!-- CLONING_TARGET -->
<g id="node9" class="node">
<title>CLONING_TARGET</title>
<polygon fill="violet" stroke="black" points="871,-90.72 717,-90.72 717,-54.72 871,-54.72 871,-90.72"/>
<text text-anchor="middle" x="794" y="-69.02" font-family="Times,serif" font-size="14.00">CLONING_TARGET</text>
</g>
<!-- CLONING_SOURCE&#45;&gt;CLONING_TARGET -->
<g id="edge14" class="edge">
<title>CLONING_SOURCE&#45;&gt;CLONING_TARGET</title>
<path fill="none" stroke="black" d="M610.22,-120.69C642.52,-112.21 681.19,-102.06 714.62,-93.29"/>
<polygon fill="black" stroke="black" points="715.58,-96.66 724.36,-90.74 713.8,-89.89 715.58,-96.66"/>
<text text-anchor="middle" x="668.5" y="-129.52" font-family="Times,serif" font-size="14.00">Source</text>
<text text-anchor="middle" x="668.5" y="-114.52" font-family="Times,serif" font-size="14.00">Scanned</text>
</g>
<!-- CLONING_TARGET&#45;&gt;MENU -->
<g id="edge15" class="edge">
<title>CLONING_TARGET&#45;&gt;MENU</title>
<path fill="none" stroke="black" d="M716.95,-64.92C607.17,-55.51 412.15,-46.31 364,-93.72 322.75,-134.34 376.57,-173.56 346,-222.72 337.14,-236.98 322.86,-248.32 308.93,-256.79"/>
<polygon fill="black" stroke="black" points="306.84,-253.95 299.88,-261.94 310.3,-260.03 306.84,-253.95"/>
<text text-anchor="middle" x="540.5" y="-81.52" font-family="Times,serif" font-size="14.00">Clone</text>
<text text-anchor="middle" x="540.5" y="-66.52" font-family="Times,serif" font-size="14.00">Complete</text>
</g>
<!-- CLONING_TARGET&#45;&gt;MENU -->
<g id="edge19" class="edge">
<title>CLONING_TARGET&#45;&gt;MENU</title>
<path fill="none" stroke="black" d="M753.03,-54.62C666.71,-18.57 462.67,49.7 364,-60.72 339.87,-87.73 364.69,-191.7 346,-222.72 337.18,-237.35 322.6,-248.86 308.41,-257.37"/>
<polygon fill="black" stroke="black" points="306.68,-254.32 299.68,-262.27 310.11,-260.42 306.68,-254.32"/>
<text text-anchor="middle" x="540.5" y="-15.52" font-family="Times,serif" font-size="14.00">BACK</text>
</g>
</g>
</svg>
