<?xml version="1.0" encoding="UTF-8" standalone="no"?>
<!DOCTYPE svg PUBLIC "-//W3C//DTD SVG 1.1//EN"
 "http://www.w3.org/Graphics/SVG/1.1/DTD/svg11.dtd">
<!-- Generated by graphviz version 2.43.0 (0)
 -->
<!-- Title: write_flow Pages: 1 -->
<svg width="431pt" height="647pt"
 viewBox="0.00 0.00 431.49 646.74" xmlns="http://www.w3.org/2000/svg" xmlns:xlink="http://www.w3.org/1999/xlink">
<g id="graph0" class="graph" transform="scale(1 1) rotate(0) translate(4 642.74)">
<title>write_flow</title>
<polygon fill="white" stroke="transparent" points="-4,4 -4,-642.74 427.49,-642.74 427.49,4 -4,4"/>
<!-- start -->
<g id="node1" class="node">
<title>start</title>
<ellipse fill="lightgreen" stroke="black" cx="257.25" cy="-620.74" rx="75.29" ry="18"/>
<text text-anchor="middle" x="257.25" y="-617.04" font-family="Times,serif" font-size="14.00">Register Card</text>
</g>
<!-- read_count -->
<g id="node2" class="node">
<title>read_count</title>
<polygon fill="lightblue" stroke="black" points="337.75,-565.74 176.75,-565.74 176.75,-529.74 337.75,-529.74 337.75,-565.74"/>
<text text-anchor="middle" x="257.25" y="-544.04" font-family="Times,serif" font-size="14.00">Read Current Count</text>
</g>
<!-- start&#45;&gt;read_count -->
<g id="edge1" class="edge">
<title>start&#45;&gt;read_count</title>
<path fill="none" stroke="black" d="M257.25,-602.55C257.25,-594.53 257.25,-584.79 257.25,-575.81"/>
<polygon fill="black" stroke="black" points="260.75,-575.77 257.25,-565.77 253.75,-575.77 260.75,-575.77"/>
</g>
<!-- check_full -->
<g id="node3" class="node">
<title>check_full</title>
<polygon fill="yellow" stroke="black" points="257.25,-492.74 159.88,-474.74 257.25,-456.74 354.61,-474.74 257.25,-492.74"/>
<text text-anchor="middle" x="257.25" y="-471.04" font-family="Times,serif" font-size="14.00">Count &lt; 40?</text>
</g>
<!-- read_count&#45;&gt;check_full -->
<g id="edge2" class="edge">
<title>read_count&#45;&gt;check_full</title>
<path fill="none" stroke="black" d="M257.25,-529.55C257.25,-521.53 257.25,-511.79 257.25,-502.81"/>
<polygon fill="black" stroke="black" points="260.75,-502.77 257.25,-492.77 253.75,-502.77 260.75,-502.77"/>
</g>
<!-- check_exists -->
<g id="node4" class="node">
<title>check_exists</title>
<polygon fill="yellow" stroke="black" points="159.25,-405.74 49.25,-367.74 159.25,-329.74 269.25,-367.74 159.25,-405.74"/>
<text text-anchor="middle" x="159.25" y="-371.54" font-family="Times,serif" font-size="14.00">Card Already</text>
<text text-anchor="middle" x="159.25" y="-356.54" font-family="Times,serif" font-size="14.00">Registered?</text>
</g>
<!-- check_full&#45;&gt;check_exists -->
<g id="edge3" class="edge">
<title>check_full&#45;&gt;check_exists</title>
<path fill="none" stroke="black" d="M243.62,-459.14C230.55,-445.14 210.29,-423.43 192.9,-404.8"/>
<polygon fill="black" stroke="black" points="195.04,-401.96 185.65,-397.03 189.92,-406.73 195.04,-401.96"/>
<text text-anchor="middle" x="235.75" y="-427.54" font-family="Times,serif" font-size="14.00">Yes</text>
</g>
<!-- fail_full -->
<g id="node9" class="node">
<title>fail_full</title>
<ellipse fill="red" stroke="black" cx="355.25" cy="-367.74" rx="68.49" ry="18"/>
<text text-anchor="middle" x="355.25" y="-364.04" font-family="Times,serif" font-size="14.00" fill="white">Storage Full</text>
</g>
<!-- check_full&#45;&gt;fail_full -->
<g id="edge4" class="edge">
<title>check_full&#45;&gt;fail_full</title>
<path fill="none" stroke="black" d="M270.87,-459.14C286.92,-441.95 313.79,-413.16 332.9,-392.69"/>
<polygon fill="black" stroke="black" points="335.53,-394.99 339.8,-385.29 330.42,-390.21 335.53,-394.99"/>
<text text-anchor="middle" x="314.75" y="-427.54" font-family="Times,serif" font-size="14.00">No</text>
</g>
<!-- calc_addr -->
<g id="node5" class="node">
<title>calc_addr</title>
<polygon fill="orange" stroke="black" points="147.25,-278.74 1.25,-278.74 1.25,-240.74 147.25,-240.74 147.25,-278.74"/>
<text text-anchor="middle" x="74.25" y="-263.54" font-family="Times,serif" font-size="14.00">Calculate Address</text>
<text text-anchor="middle" x="74.25" y="-248.54" font-family="Times,serif" font-size="14.00">3 + Count * 8</text>
</g>
<!-- check_exists&#45;&gt;calc_addr -->
<g id="edge5" class="edge">
<title>check_exists&#45;&gt;calc_addr</title>
<path fill="none" stroke="black" d="M135.79,-337.49C123.11,-321.67 107.56,-302.29 95.27,-286.96"/>
<polygon fill="black" stroke="black" points="97.8,-284.52 88.82,-278.91 92.34,-288.9 97.8,-284.52"/>
<text text-anchor="middle" x="124.75" y="-300.54" font-family="Times,serif" font-size="14.00">No</text>
</g>
<!-- fail_exists -->
<g id="node10" class="node">
<title>fail_exists</title>
<ellipse fill="red" stroke="black" cx="243.25" cy="-259.74" rx="77.99" ry="18"/>
<text text-anchor="middle" x="243.25" y="-256.04" font-family="Times,serif" font-size="14.00" fill="white">Already Exists</text>
</g>
<!-- check_exists&#45;&gt;fail_exists -->
<g id="edge6" class="edge">
<title>check_exists&#45;&gt;fail_exists</title>
<path fill="none" stroke="black" d="M182.42,-337.49C195.29,-321.26 211.12,-301.27 223.41,-285.77"/>
<polygon fill="black" stroke="black" points="226.37,-287.68 229.83,-277.67 220.88,-283.33 226.37,-287.68"/>
<text text-anchor="middle" x="226.75" y="-300.54" font-family="Times,serif" font-size="14.00">Yes</text>
</g>
<!-- write_uid -->
<g id="node6" class="node">
<title>write_uid</title>
<polygon fill="pink" stroke="black" points="141.25,-203.74 7.25,-203.74 7.25,-165.74 141.25,-165.74 141.25,-203.74"/>
<text text-anchor="middle" x="74.25" y="-188.54" font-family="Times,serif" font-size="14.00">Write UID Entry</text>
<text text-anchor="middle" x="74.25" y="-173.54" font-family="Times,serif" font-size="14.00">(8 bytes)</text>
</g>
<!-- calc_addr&#45;&gt;write_uid -->
<g id="edge7" class="edge">
<title>calc_addr&#45;&gt;write_uid</title>
<path fill="none" stroke="black" d="M74.25,-240.7C74.25,-232.62 74.25,-222.92 74.25,-213.92"/>
<polygon fill="black" stroke="black" points="77.75,-213.83 74.25,-203.83 70.75,-213.83 77.75,-213.83"/>
</g>
<!-- inc_count -->
<g id="node7" class="node">
<title>inc_count</title>
<polygon fill="pink" stroke="black" points="142.75,-128.74 5.75,-128.74 5.75,-90.74 142.75,-90.74 142.75,-128.74"/>
<text text-anchor="middle" x="74.25" y="-113.54" font-family="Times,serif" font-size="14.00">Increment Count</text>
<text text-anchor="middle" x="74.25" y="-98.54" font-family="Times,serif" font-size="14.00">Write to Addr 2</text>
</g>
<!-- write_uid&#45;&gt;inc_count -->
<g id="edge8" class="edge">
<title>write_uid&#45;&gt;inc_count</title>
<path fill="none" stroke="black" d="M74.25,-165.7C74.25,-157.62 74.25,-147.92 74.25,-138.92"/>
<polygon fill="black" stroke="black" points="77.75,-138.83 74.25,-128.83 70.75,-138.83 77.75,-138.83"/>
</g>
<!-- success -->
<g id="node8" class="node">
<title>success</title>
<ellipse fill="green" stroke="black" cx="74.25" cy="-26.87" rx="74.49" ry="26.74"/>
<text text-anchor="middle" x="74.25" y="-30.67" font-family="Times,serif" font-size="14.00" fill="white">Registration</text>
<text text-anchor="middle" x="74.25" y="-15.67" font-family="Times,serif" font-size="14.00" fill="white">Successful</text>
</g>
<!-- inc_count&#45;&gt;success -->
<g id="edge9" class="edge">
<title>inc_count&#45;&gt;success</title>
<path fill="none" stroke="black" d="M74.25,-90.39C74.25,-82.53 74.25,-73.07 74.25,-63.92"/>
<polygon fill="black" stroke="black" points="77.75,-63.81 74.25,-53.81 70.75,-63.81 77.75,-63.81"/>
</g>
</g>
</svg>
