<?xml version="1.0" encoding="UTF-8" standalone="no"?>
<!DOCTYPE svg PUBLIC "-//W3C//DTD SVG 1.1//EN"
 "http://www.w3.org/Graphics/SVG/1.1/DTD/svg11.dtd">
<!-- Generated by graphviz version 2.43.0 (0)
 -->
<!-- Title: system_architecture Pages: 1 -->
<svg width="663pt" height="550pt"
 viewBox="0.00 0.00 662.68 550.00" xmlns="http://www.w3.org/2000/svg" xmlns:xlink="http://www.w3.org/1999/xlink">
<g id="graph0" class="graph" transform="scale(1 1) rotate(0) translate(4 546)">
<title>system_architecture</title>
<polygon fill="white" stroke="transparent" points="-4,4 -4,-546 658.68,-546 658.68,4 -4,4"/>
<g id="clust1" class="cluster">
<title>cluster_hardware</title>
<polygon fill="lightgrey" stroke="lightgrey" points="277,-79 277,-334 616,-334 616,-79 277,-79"/>
<text text-anchor="middle" x="446.5" y="-318.8" font-family="Times,serif" font-size="14.00">Hardware Layer</text>
</g>
<g id="clust2" class="cluster">
<title>cluster_software</title>
<polygon fill="lightgrey" stroke="lightgrey" points="8,-382 8,-534 402,-534 402,-382 8,-382"/>
<text text-anchor="middle" x="205" y="-518.8" font-family="Times,serif" font-size="14.00">Software Layer</text>
</g>
<!-- user -->
<g id="node1" class="node">
<title>user</title>
<ellipse fill="lightblue" stroke="black" cx="470" cy="-409" rx="58.49" ry="18"/>
<text text-anchor="middle" x="470" y="-405.3" font-family="Times,serif" font-size="14.00">User/Card</text>
</g>
<!-- nfc -->
<g id="node2" class="node">
<title>nfc</title>
<polygon fill="lightyellow" stroke="black" points="502,-303 400,-303 400,-265 502,-265 502,-303"/>
<text text-anchor="middle" x="451" y="-287.8" font-family="Times,serif" font-size="14.00">PN532 NFC</text>
<text text-anchor="middle" x="451" y="-272.8" font-family="Times,serif" font-size="14.00">Reader</text>
</g>
<!-- user&#45;&gt;nfc -->
<g id="edge1" class="edge">
<title>user&#45;&gt;nfc</title>
<path fill="none" stroke="black" d="M467.36,-390.9C464.25,-370.77 459.04,-337.06 455.34,-313.09"/>
<polygon fill="black" stroke="black" points="458.79,-312.51 453.8,-303.16 451.87,-313.57 458.79,-312.51"/>
<text text-anchor="middle" x="493" y="-360.8" font-family="Times,serif" font-size="14.00">Card</text>
<text text-anchor="middle" x="493" y="-345.8" font-family="Times,serif" font-size="14.00">Present</text>
</g>
<!-- arduino -->
<g id="node6" class="node">
<title>arduino</title>
<polygon fill="lightgreen" stroke="black" points="560.5,-214 439.5,-214 439.5,-176 560.5,-176 560.5,-214"/>
<text text-anchor="middle" x="500" y="-198.8" font-family="Times,serif" font-size="14.00">Arduino Nano</text>
<text text-anchor="middle" x="500" y="-183.8" font-family="Times,serif" font-size="14.00">(ATmega328P)</text>
</g>
<!-- nfc&#45;&gt;arduino -->
<g id="edge2" class="edge">
<title>nfc&#45;&gt;arduino</title>
<path fill="none" stroke="black" d="M448.99,-264.55C448.71,-254.4 449.76,-241.89 455,-232 457.11,-228.01 459.88,-224.31 463,-220.92"/>
<polygon fill="black" stroke="black" points="465.44,-223.43 470.29,-214.01 460.62,-218.35 465.44,-223.43"/>
<text text-anchor="middle" x="491.5" y="-235.8" font-family="Times,serif" font-size="14.00">SPI + IRQ</text>
</g>
<!-- lcd -->
<g id="node3" class="node">
<title>lcd</title>
<polygon fill="lightyellow" stroke="black" points="607.5,-303 520.5,-303 520.5,-265 607.5,-265 607.5,-303"/>
<text text-anchor="middle" x="564" y="-287.8" font-family="Times,serif" font-size="14.00">16x2 LCD</text>
<text text-anchor="middle" x="564" y="-272.8" font-family="Times,serif" font-size="14.00">Display</text>
</g>
<!-- lcd&#45;&gt;arduino -->
<g id="edge3" class="edge">
<title>lcd&#45;&gt;arduino</title>
<path fill="none" stroke="black" d="M551.54,-264.92C544.7,-255.1 536,-242.8 528,-232 525.63,-228.8 523.11,-225.47 520.59,-222.18"/>
<polygon fill="black" stroke="black" points="523.3,-219.96 514.41,-214.19 517.76,-224.24 523.3,-219.96"/>
<text text-anchor="middle" x="565.5" y="-235.8" font-family="Times,serif" font-size="14.00">Parallel</text>
</g>
<!-- buttons -->
<g id="node4" class="node">
<title>buttons</title>
<polygon fill="lightyellow" stroke="black" points="381.5,-303 284.5,-303 284.5,-265 381.5,-265 381.5,-303"/>
<text text-anchor="middle" x="333" y="-287.8" font-family="Times,serif" font-size="14.00">Navigation</text>
<text text-anchor="middle" x="333" y="-272.8" font-family="Times,serif" font-size="14.00">Buttons (4)</text>
</g>
<!-- buttons&#45;&gt;arduino -->
<g id="edge4" class="edge">
<title>buttons&#45;&gt;arduino</title>
<path fill="none" stroke="black" d="M352.58,-264.87C364.9,-254.19 381.53,-241.05 398,-232 407.93,-226.55 418.84,-221.66 429.73,-217.39"/>
<polygon fill="black" stroke="black" points="431.14,-220.59 439.26,-213.78 428.67,-214.04 431.14,-220.59"/>
<text text-anchor="middle" x="422.5" y="-235.8" font-family="Times,serif" font-size="14.00">Analog</text>
</g>
<!-- relay -->
<g id="node5" class="node">
<title>relay</title>
<polygon fill="lightyellow" stroke="black" points="535,-125 465,-125 465,-87 535,-87 535,-125"/>
<text text-anchor="middle" x="500" y="-109.8" font-family="Times,serif" font-size="14.00">Relay</text>
<text text-anchor="middle" x="500" y="-94.8" font-family="Times,serif" font-size="14.00">Module</text>
</g>
<!-- lock -->
<g id="node11" class="node">
<title>lock</title>
<ellipse fill="orange" stroke="black" cx="500" cy="-18" rx="57.69" ry="18"/>
<text text-anchor="middle" x="500" y="-14.3" font-family="Times,serif" font-size="14.00">Door Lock</text>
</g>
<!-- relay&#45;&gt;lock -->
<g id="edge6" class="edge">
<title>relay&#45;&gt;lock</title>
<path fill="none" stroke="black" d="M500,-86.76C500,-74.93 500,-59.32 500,-46.05"/>
<polygon fill="black" stroke="black" points="503.5,-46.04 500,-36.04 496.5,-46.04 503.5,-46.04"/>
<text text-anchor="middle" x="522.5" y="-57.8" font-family="Times,serif" font-size="14.00">Power</text>
</g>
<!-- arduino&#45;&gt;relay -->
<g id="edge5" class="edge">
<title>arduino&#45;&gt;relay</title>
<path fill="none" stroke="black" d="M500,-175.97C500,-164.19 500,-148.56 500,-135.16"/>
<polygon fill="black" stroke="black" points="503.5,-135 500,-125 496.5,-135 503.5,-135"/>
<text text-anchor="middle" x="524.5" y="-146.8" font-family="Times,serif" font-size="14.00">Digital</text>
</g>
<!-- acs -->
<g id="node7" class="node">
<title>acs</title>
<polygon fill="lightcyan" stroke="black" points="394,-503 272,-503 272,-465 394,-465 394,-503"/>
<text text-anchor="middle" x="333" y="-487.8" font-family="Times,serif" font-size="14.00">Access Control</text>
<text text-anchor="middle" x="333" y="-472.8" font-family="Times,serif" font-size="14.00">System</text>
</g>
<!-- arduino&#45;&gt;acs -->
<g id="edge7" class="edge">
<title>arduino&#45;&gt;acs</title>
<path fill="none" stroke="black" stroke-dasharray="5,2" d="M560.57,-211.37C573.48,-216.51 586.41,-223.25 597,-232 664.53,-287.81 673.77,-360.44 618,-428 591.42,-460.2 479.84,-473.76 404.44,-479.32"/>
<polygon fill="black" stroke="black" points="403.78,-475.85 394.05,-480.05 404.27,-482.84 403.78,-475.85"/>
</g>
<!-- acs&#45;&gt;lcd -->
<g id="edge12" class="edge">
<title>acs&#45;&gt;lcd</title>
<path fill="none" stroke="black" stroke-dasharray="5,2" d="M394.19,-473.81C446.97,-464.62 517.68,-448.86 537,-428 565.84,-396.86 568.46,-345 566.85,-313.03"/>
<polygon fill="black" stroke="black" points="570.33,-312.75 566.17,-303.01 563.35,-313.22 570.33,-312.75"/>
<text text-anchor="middle" x="587" y="-405.3" font-family="Times,serif" font-size="14.00">Display</text>
</g>
<!-- nfclib -->
<g id="node8" class="node">
<title>nfclib</title>
<polygon fill="lightcyan" stroke="black" points="394,-428 290,-428 290,-390 394,-390 394,-428"/>
<text text-anchor="middle" x="342" y="-412.8" font-family="Times,serif" font-size="14.00">NFC Reader</text>
<text text-anchor="middle" x="342" y="-397.8" font-family="Times,serif" font-size="14.00">Interface</text>
</g>
<!-- acs&#45;&gt;nfclib -->
<g id="edge8" class="edge">
<title>acs&#45;&gt;nfclib</title>
<path fill="none" stroke="black" stroke-dasharray="5,2" d="M335.22,-464.96C336.22,-456.88 337.42,-447.18 338.53,-438.18"/>
<polygon fill="black" stroke="black" points="342.02,-438.44 339.77,-428.09 335.07,-437.59 342.02,-438.44"/>
</g>
<!-- db -->
<g id="node9" class="node">
<title>db</title>
<polygon fill="lightcyan" stroke="black" points="272,-428 150,-428 150,-390 272,-390 272,-428"/>
<text text-anchor="middle" x="211" y="-412.8" font-family="Times,serif" font-size="14.00">Card Database</text>
<text text-anchor="middle" x="211" y="-397.8" font-family="Times,serif" font-size="14.00">(EEPROM)</text>
</g>
<!-- acs&#45;&gt;db -->
<g id="edge9" class="edge">
<title>acs&#45;&gt;db</title>
<path fill="none" stroke="black" stroke-dasharray="5,2" d="M302.84,-464.96C286.86,-455.39 267.04,-443.53 249.91,-433.28"/>
<polygon fill="black" stroke="black" points="251.61,-430.22 241.23,-428.09 248.02,-436.23 251.61,-430.22"/>
</g>
<!-- menu -->
<g id="node10" class="node">
<title>menu</title>
<polygon fill="lightcyan" stroke="black" points="131.5,-427 16.5,-427 16.5,-391 131.5,-391 131.5,-427"/>
<text text-anchor="middle" x="74" y="-405.3" font-family="Times,serif" font-size="14.00">Menu System</text>
</g>
<!-- acs&#45;&gt;menu -->
<g id="edge10" class="edge">
<title>acs&#45;&gt;menu</title>
<path fill="none" stroke="black" stroke-dasharray="5,2" d="M271.95,-465.79C232.71,-454.73 181.71,-440.36 141.3,-428.97"/>
<polygon fill="black" stroke="black" points="142.11,-425.56 131.53,-426.22 140.21,-432.3 142.11,-425.56"/>
</g>
<!-- nfclib&#45;&gt;nfc -->
<g id="edge11" class="edge">
<title>nfclib&#45;&gt;nfc</title>
<path fill="none" stroke="black" stroke-dasharray="5,2" d="M358.08,-389.85C376.6,-368.96 407.15,-334.48 428.13,-310.8"/>
<polygon fill="black" stroke="black" points="430.84,-313.03 434.85,-303.22 425.6,-308.39 430.84,-313.03"/>
<text text-anchor="middle" x="427" y="-353.3" font-family="Times,serif" font-size="14.00">Control</text>
</g>
<!-- menu&#45;&gt;buttons -->
<g id="edge13" class="edge">
<title>menu&#45;&gt;buttons</title>
<path fill="none" stroke="black" stroke-dasharray="5,2" d="M110.01,-390.9C155.81,-369.15 235.01,-331.53 285.66,-307.48"/>
<polygon fill="black" stroke="black" points="287.23,-310.61 294.77,-303.16 284.23,-304.29 287.23,-310.61"/>
<text text-anchor="middle" x="231.5" y="-353.3" font-family="Times,serif" font-size="14.00">Input</text>
</g>
</g>
</svg>
