<?xml version="1.0" encoding="UTF-8" standalone="no"?>
<!DOCTYPE svg PUBLIC "-//W3C//DTD SVG 1.1//EN"
 "http://www.w3.org/Graphics/SVG/1.1/DTD/svg11.dtd">
<!-- Generated by graphviz version 2.43.0 (0)
 -->
<!-- Title: card_entry Pages: 1 -->
<svg width="108pt" height="373pt"
 viewBox="0.00 0.00 108.00 373.00" xmlns="http://www.w3.org/2000/svg" xmlns:xlink="http://www.w3.org/1999/xlink">
<g id="graph0" class="graph" transform="scale(1 1) rotate(0) translate(4 369)">
<title>card_entry</title>
<polygon fill="white" stroke="transparent" points="-4,4 -4,-369 104,-369 104,4 -4,4"/>
<!-- entry -->
<g id="node1" class="node">
<title>entry</title>
<polygon fill="lightgreen" stroke="black" points="0,-0.5 0,-364.5 100,-364.5 100,-0.5 0,-0.5"/>
<text text-anchor="middle" x="50" y="-349.3" font-family="Times,serif" font-size="14.00">Byte 0</text>
<text text-anchor="middle" x="50" y="-334.3" font-family="Times,serif" font-size="14.00">UID Length</text>
<text text-anchor="middle" x="50" y="-319.3" font-family="Times,serif" font-size="14.00">(4 or 7)</text>
<polyline fill="none" stroke="black" points="0,-311.5 100,-311.5 "/>
<text text-anchor="middle" x="50" y="-296.3" font-family="Times,serif" font-size="14.00">Byte 1</text>
<text text-anchor="middle" x="50" y="-281.3" font-family="Times,serif" font-size="14.00">UID[0]</text>
<polyline fill="none" stroke="black" points="0,-273.5 100,-273.5 "/>
<text text-anchor="middle" x="50" y="-258.3" font-family="Times,serif" font-size="14.00">Byte 2</text>
<text text-anchor="middle" x="50" y="-243.3" font-family="Times,serif" font-size="14.00">UID[1]</text>
<polyline fill="none" stroke="black" points="0,-235.5 100,-235.5 "/>
<text text-anchor="middle" x="50" y="-220.3" font-family="Times,serif" font-size="14.00">Byte 3</text>
<text text-anchor="middle" x="50" y="-205.3" font-family="Times,serif" font-size="14.00">UID[2]</text>
<polyline fill="none" stroke="black" points="0,-197.5 100,-197.5 "/>
<text text-anchor="middle" x="50" y="-182.3" font-family="Times,serif" font-size="14.00">Byte 4</text>
<text text-anchor="middle" x="50" y="-167.3" font-family="Times,serif" font-size="14.00">UID[3]</text>
<polyline fill="none" stroke="black" points="0,-159.5 100,-159.5 "/>
<text text-anchor="middle" x="50" y="-144.3" font-family="Times,serif" font-size="14.00">Byte 5</text>
<text text-anchor="middle" x="50" y="-129.3" font-family="Times,serif" font-size="14.00">UID[4]</text>
<text text-anchor="middle" x="50" y="-114.3" font-family="Times,serif" font-size="14.00">or 0xFF</text>
<polyline fill="none" stroke="black" points="0,-106.5 100,-106.5 "/>
<text text-anchor="middle" x="50" y="-91.3" font-family="Times,serif" font-size="14.00">Byte 6</text>
<text text-anchor="middle" x="50" y="-76.3" font-family="Times,serif" font-size="14.00">UID[5]</text>
<text text-anchor="middle" x="50" y="-61.3" font-family="Times,serif" font-size="14.00">or 0xFF</text>
<polyline fill="none" stroke="black" points="0,-53.5 100,-53.5 "/>
<text text-anchor="middle" x="50" y="-38.3" font-family="Times,serif" font-size="14.00">Byte 7</text>
<text text-anchor="middle" x="50" y="-23.3" font-family="Times,serif" font-size="14.00">UID[6]</text>
<text text-anchor="middle" x="50" y="-8.3" font-family="Times,serif" font-size="14.00">or 0xFF</text>
</g>
</g>
</svg>
