<?xml version="1.0" encoding="UTF-8" standalone="no"?>
<!DOCTYPE svg PUBLIC "-//W3C//DTD SVG 1.1//EN"
 "http://www.w3.org/Graphics/SVG/1.1/DTD/svg11.dtd">
<!-- Generated by graphviz version 2.43.0 (0)
 -->
<!-- Title: menu_flow Pages: 1 -->
<svg width="1012pt" height="426pt"
 viewBox="0.00 0.00 1012.20 426.00" xmlns="http://www.w3.org/2000/svg" xmlns:xlink="http://www.w3.org/1999/xlink">
<g id="graph0" class="graph" transform="scale(1 1) rotate(0) translate(4 422)">
<title>menu_flow</title>
<polygon fill="white" stroke="transparent" points="-4,4 -4,-422 1008.2,-422 1008.2,4 -4,4"/>
<!-- idle -->
<g id="node1" class="node">
<title>idle</title>
<polygon fill="lightgreen" stroke="black" points="580.7,-418 483.7,-418 483.7,-382 580.7,-382 580.7,-418"/>
<text text-anchor="middle" x="532.2" y="-396.3" font-family="Times,serif" font-size="14.00">IDLE Mode</text>
</g>
<!-- menu -->
<g id="node2" class="node">
<title>menu</title>
<polygon fill="lightblue" stroke="black" points="581.2,-331 483.2,-331 483.2,-295 581.2,-295 581.2,-331"/>
<text text-anchor="middle" x="532.2" y="-309.3" font-family="Times,serif" font-size="14.00">Main Menu</text>
</g>
<!-- idle&#45;&gt;menu -->
<g id="edge1" class="edge">
<title>idle&#45;&gt;menu</title>
<path fill="none" stroke="black" d="M505.8,-381.65C500.3,-376.66 495.25,-370.72 492.2,-364 488.06,-354.89 491.78,-346 498.34,-338.31"/>
<polygon fill="black" stroke="black" points="501.02,-340.58 505.66,-331.06 496.09,-335.61 501.02,-340.58"/>
<text text-anchor="middle" x="522.2" y="-352.8" font-family="Times,serif" font-size="14.00">SELECT</text>
</g>
<!-- menu&#45;&gt;idle -->
<g id="edge2" class="edge">
<title>menu&#45;&gt;idle</title>
<path fill="none" stroke="black" d="M545.04,-331.23C550.57,-340.71 555.17,-352.8 552.2,-364 551.4,-367.01 550.27,-370.04 548.95,-372.98"/>
<polygon fill="black" stroke="black" points="545.78,-371.49 544.27,-381.97 551.99,-374.72 545.78,-371.49"/>
<text text-anchor="middle" x="590.7" y="-352.8" font-family="Times,serif" font-size="14.00">Exit Menu</text>
</g>
<!-- register -->
<g id="node3" class="node">
<title>register</title>
<polygon fill="yellow" stroke="black" points="136.2,-229 20.2,-229 20.2,-193 136.2,-193 136.2,-229"/>
<text text-anchor="middle" x="78.2" y="-207.3" font-family="Times,serif" font-size="14.00">Register Card</text>
</g>
<!-- menu&#45;&gt;register -->
<g id="edge3" class="edge">
<title>menu&#45;&gt;register</title>
<path fill="none" stroke="black" d="M483.07,-312.46C358.59,-313.1 38.36,-311.38 6.2,-277 -2.91,-267.26 -0.88,-258.3 6.2,-247 9.03,-242.48 12.63,-238.52 16.7,-235.07"/>
<polygon fill="black" stroke="black" points="19,-237.73 25.05,-229.03 14.9,-232.06 19,-237.73"/>
<text text-anchor="middle" x="47.2" y="-265.8" font-family="Times,serif" font-size="14.00">SELECT on</text>
<text text-anchor="middle" x="47.2" y="-250.8" font-family="Times,serif" font-size="14.00">Register</text>
</g>
<!-- delete -->
<g id="node4" class="node">
<title>delete</title>
<polygon fill="orange" stroke="black" points="298.2,-229 196.2,-229 196.2,-193 298.2,-193 298.2,-229"/>
<text text-anchor="middle" x="247.2" y="-207.3" font-family="Times,serif" font-size="14.00">Delete Card</text>
</g>
<!-- menu&#45;&gt;delete -->
<g id="edge4" class="edge">
<title>menu&#45;&gt;delete</title>
<path fill="none" stroke="black" d="M482.99,-310.07C398.83,-306.27 234.58,-296.42 217.2,-277 207,-265.6 213.53,-250.15 223.07,-237.16"/>
<polygon fill="black" stroke="black" points="226.06,-239.03 229.63,-229.06 220.62,-234.63 226.06,-239.03"/>
<text text-anchor="middle" x="258.2" y="-265.8" font-family="Times,serif" font-size="14.00">SELECT on</text>
<text text-anchor="middle" x="258.2" y="-250.8" font-family="Times,serif" font-size="14.00">Delete</text>
</g>
<!-- list -->
<g id="node5" class="node">
<title>list</title>
<polygon fill="cyan" stroke="black" points="501.2,-229 411.2,-229 411.2,-193 501.2,-193 501.2,-229"/>
<text text-anchor="middle" x="456.2" y="-207.3" font-family="Times,serif" font-size="14.00">List Cards</text>
</g>
<!-- menu&#45;&gt;list -->
<g id="edge5" class="edge">
<title>menu&#45;&gt;list</title>
<path fill="none" stroke="black" d="M483.13,-307.86C462.69,-303.43 440.81,-294.56 428.2,-277 419.57,-265 425.23,-249.93 433.65,-237.33"/>
<polygon fill="black" stroke="black" points="436.64,-239.18 439.78,-229.06 431.02,-235.01 436.64,-239.18"/>
<text text-anchor="middle" x="469.2" y="-265.8" font-family="Times,serif" font-size="14.00">SELECT on</text>
<text text-anchor="middle" x="469.2" y="-250.8" font-family="Times,serif" font-size="14.00">List</text>
</g>
<!-- clone -->
<g id="node6" class="node">
<title>clone</title>
<polygon fill="violet" stroke="black" points="661.2,-229 565.2,-229 565.2,-193 661.2,-193 661.2,-229"/>
<text text-anchor="middle" x="613.2" y="-207.3" font-family="Times,serif" font-size="14.00">Clone Card</text>
</g>
<!-- menu&#45;&gt;clone -->
<g id="edge6" class="edge">
<title>menu&#45;&gt;clone</title>
<path fill="none" stroke="black" d="M553.42,-294.79C559.48,-289.4 565.88,-283.23 571.2,-277 581.41,-265.03 591.07,-250.4 598.55,-238.06"/>
<polygon fill="black" stroke="black" points="601.74,-239.54 603.81,-229.15 595.71,-235.98 601.74,-239.54"/>
<text text-anchor="middle" x="634.2" y="-265.8" font-family="Times,serif" font-size="14.00">SELECT on</text>
<text text-anchor="middle" x="634.2" y="-250.8" font-family="Times,serif" font-size="14.00">Clone</text>
</g>
<!-- info -->
<g id="node7" class="node">
<title>info</title>
<polygon fill="pink" stroke="black" points="797.2,-229 695.2,-229 695.2,-193 797.2,-193 797.2,-229"/>
<text text-anchor="middle" x="746.2" y="-207.3" font-family="Times,serif" font-size="14.00">System Info</text>
</g>
<!-- menu&#45;&gt;info -->
<g id="edge7" class="edge">
<title>menu&#45;&gt;info</title>
<path fill="none" stroke="black" d="M581.32,-308.41C611.49,-304.33 649.84,-295.61 679.2,-277 693.62,-267.86 691.17,-259.12 703.2,-247 706.91,-243.25 711.01,-239.5 715.16,-235.93"/>
<polygon fill="black" stroke="black" points="717.66,-238.4 723.1,-229.3 713.18,-233.02 717.66,-238.4"/>
<text text-anchor="middle" x="744.2" y="-265.8" font-family="Times,serif" font-size="14.00">SELECT on</text>
<text text-anchor="middle" x="744.2" y="-250.8" font-family="Times,serif" font-size="14.00">Info</text>
</g>
<!-- register&#45;&gt;menu -->
<g id="edge8" class="edge">
<title>register&#45;&gt;menu</title>
<path fill="none" stroke="black" d="M85.45,-229.11C92.97,-244.5 106.29,-266.3 125.2,-277 183.09,-309.78 374.72,-313.31 472.97,-312.86"/>
<polygon fill="black" stroke="black" points="473.06,-316.36 483.04,-312.8 473.02,-309.36 473.06,-316.36"/>
<text text-anchor="middle" x="166.7" y="-258.3" font-family="Times,serif" font-size="14.00">Done/BACK</text>
</g>
<!-- delete&#45;&gt;menu -->
<g id="edge9" class="edge">
<title>delete&#45;&gt;menu</title>
<path fill="none" stroke="black" d="M273.38,-229.07C281.73,-234.65 290.93,-240.97 299.2,-247 316.58,-259.68 317.57,-268.17 337.2,-277 380.19,-296.35 433.04,-305.01 472.88,-308.89"/>
<polygon fill="black" stroke="black" points="472.69,-312.38 482.97,-309.79 473.32,-305.41 472.69,-312.38"/>
<text text-anchor="middle" x="378.7" y="-258.3" font-family="Times,serif" font-size="14.00">Done/BACK</text>
</g>
<!-- list&#45;&gt;menu -->
<g id="edge10" class="edge">
<title>list&#45;&gt;menu</title>
<path fill="none" stroke="black" d="M490.17,-229.07C497.56,-234.03 504.78,-240.03 510.2,-247 518.71,-257.95 524.03,-272.38 527.3,-284.86"/>
<polygon fill="black" stroke="black" points="523.93,-285.81 529.59,-294.77 530.75,-284.24 523.93,-285.81"/>
<text text-anchor="middle" x="546.2" y="-258.3" font-family="Times,serif" font-size="14.00">BACK</text>
</g>
<!-- clone_src -->
<g id="node8" class="node">
<title>clone_src</title>
<polygon fill="#000000" stroke="black" points="905.7,-142 800.7,-142 800.7,-104 905.7,-104 905.7,-142"/>
<text text-anchor="middle" x="853.2" y="-126.8" font-family="Times,serif" font-size="14.00">Scan Source</text>
<text text-anchor="middle" x="853.2" y="-111.8" font-family="Times,serif" font-size="14.00">Card</text>
</g>
<!-- clone&#45;&gt;clone_src -->
<g id="edge12" class="edge">
<title>clone&#45;&gt;clone_src</title>
<path fill="none" stroke="black" d="M660.9,-192.91C698.87,-179.3 752.23,-160.18 793.11,-145.53"/>
<polygon fill="black" stroke="black" points="794.45,-148.77 802.69,-142.1 792.09,-142.18 794.45,-148.77"/>
</g>
<!-- info&#45;&gt;menu -->
<g id="edge11" class="edge">
<title>info&#45;&gt;menu</title>
<path fill="none" stroke="black" d="M771.54,-229.09C777.06,-234.15 782.16,-240.19 785.2,-247 790.63,-259.18 793.95,-266.95 785.2,-277 760.62,-305.21 658.54,-311.44 591.8,-312.4"/>
<polygon fill="black" stroke="black" points="591.36,-308.91 581.4,-312.52 591.44,-315.91 591.36,-308.91"/>
<text text-anchor="middle" x="812.2" y="-258.3" font-family="Times,serif" font-size="14.00">BACK</text>
</g>
<!-- clone_src&#45;&gt;menu -->
<g id="edge15" class="edge">
<title>clone_src&#45;&gt;menu</title>
<path fill="none" stroke="black" d="M857.67,-142.07C864.42,-174.13 872.9,-240.94 837.2,-277 820.25,-294.11 675.25,-304.51 591.42,-309.14"/>
<polygon fill="black" stroke="black" points="591.06,-305.65 581.27,-309.69 591.44,-312.64 591.06,-305.65"/>
<text text-anchor="middle" x="885.2" y="-207.3" font-family="Times,serif" font-size="14.00">BACK</text>
</g>
<!-- clone_tgt -->
<g id="node9" class="node">
<title>clone_tgt</title>
<polygon fill="#000000" stroke="black" points="945.2,-38 843.2,-38 843.2,0 945.2,0 945.2,-38"/>
<text text-anchor="middle" x="894.2" y="-22.8" font-family="Times,serif" font-size="14.00">Scan Target</text>
<text text-anchor="middle" x="894.2" y="-7.8" font-family="Times,serif" font-size="14.00">Card</text>
</g>
<!-- clone_src&#45;&gt;clone_tgt -->
<g id="edge13" class="edge">
<title>clone_src&#45;&gt;clone_tgt</title>
<path fill="none" stroke="black" d="M851.66,-103.8C851.24,-90.05 852.27,-71.05 859.2,-56 860.78,-52.55 862.84,-49.23 865.17,-46.1"/>
<polygon fill="black" stroke="black" points="868,-48.17 871.81,-38.28 862.67,-43.64 868,-48.17"/>
<text text-anchor="middle" x="889.7" y="-74.8" font-family="Times,serif" font-size="14.00">Source</text>
<text text-anchor="middle" x="889.7" y="-59.8" font-family="Times,serif" font-size="14.00">Scanned</text>
</g>
<!-- clone_tgt&#45;&gt;menu -->
<g id="edge14" class="edge">
<title>clone_tgt&#45;&gt;menu</title>
<path fill="none" stroke="black" d="M910.67,-38.2C914.55,-43.56 918.16,-49.69 920.2,-56 924.3,-68.69 920.66,-72.67 920.2,-86 917.09,-174.92 940.86,-239.45 860.2,-277 813.83,-298.58 672.5,-307.09 591.29,-310.26"/>
<polygon fill="black" stroke="black" points="591.07,-306.76 581.21,-310.63 591.33,-313.76 591.07,-306.76"/>
<text text-anchor="middle" x="962.7" y="-163.8" font-family="Times,serif" font-size="14.00">Done/BACK</text>
</g>
</g>
</svg>
