<?xml version="1.0" encoding="UTF-8" standalone="no"?>
<!DOCTYPE svg PUBLIC "-//W3C//DTD SVG 1.1//EN"
 "http://www.w3.org/Graphics/SVG/1.1/DTD/svg11.dtd">
<!-- Generated by graphviz version 2.43.0 (0)
 -->
<!-- Title: class_diagram Pages: 1 -->
<svg width="680pt" height="657pt"
 viewBox="0.00 0.00 679.64 656.74" xmlns="http://www.w3.org/2000/svg" xmlns:xlink="http://www.w3.org/1999/xlink">
<g id="graph0" class="graph" transform="scale(1 1) rotate(0) translate(4 652.74)">
<title>class_diagram</title>
<polygon fill="white" stroke="transparent" points="-4,4 -4,-652.74 675.64,-652.74 675.64,4 -4,4"/>
<!-- AccessControlSystem -->
<g id="node1" class="node">
<title>AccessControlSystem</title>
<polygon fill="lightblue" stroke="black" points="290.5,-0.5 290.5,-174.5 461.5,-174.5 461.5,-0.5 290.5,-0.5"/>
<text text-anchor="middle" x="376" y="-159.3" font-family="Times,serif" font-size="14.00">AccessControlSystem</text>
<polyline fill="none" stroke="black" points="290.5,-151.5 461.5,-151.5 "/>
<text text-anchor="start" x="298.5" y="-136.3" font-family="Times,serif" font-size="14.00">+ begin()</text>
<text text-anchor="start" x="298.5" y="-121.3" font-family="Times,serif" font-size="14.00">+ update()</text>
<text text-anchor="start" x="298.5" y="-106.3" font-family="Times,serif" font-size="14.00">+ handleButtons()</text>
<polyline fill="none" stroke="black" points="290.5,-98.5 461.5,-98.5 "/>
<text text-anchor="start" x="298.5" y="-83.3" font-family="Times,serif" font-size="14.00">&#45; handleIdleState()</text>
<text text-anchor="start" x="298.5" y="-68.3" font-family="Times,serif" font-size="14.00">&#45; handleMenuState()</text>
<text text-anchor="start" x="298.5" y="-53.3" font-family="Times,serif" font-size="14.00">&#45; registerCard()</text>
<text text-anchor="start" x="298.5" y="-38.3" font-family="Times,serif" font-size="14.00"> &#45; deleteCard()</text>
<text text-anchor="start" x="298.5" y="-23.3" font-family="Times,serif" font-size="14.00">&#45; grantAccess()</text>
<text text-anchor="start" x="298.5" y="-8.3" font-family="Times,serif" font-size="14.00">&#45; denyAccess()</text>
</g>
<!-- NFCReader -->
<g id="node2" class="node">
<title>NFCReader</title>
<polygon fill="lightgreen" stroke="black" points="8.5,-226.5 8.5,-385.5 231.5,-385.5 231.5,-226.5 8.5,-226.5"/>
<text text-anchor="middle" x="120" y="-370.3" font-family="Times,serif" font-size="14.00">NFCReader</text>
<polyline fill="none" stroke="black" points="8.5,-362.5 231.5,-362.5 "/>
<text text-anchor="start" x="16.5" y="-347.3" font-family="Times,serif" font-size="14.00">+ begin()</text>
<text text-anchor="start" x="16.5" y="-332.3" font-family="Times,serif" font-size="14.00">+ readCard()</text>
<text text-anchor="start" x="16.5" y="-317.3" font-family="Times,serif" font-size="14.00">+ isCardPresent()</text>
<polyline fill="none" stroke="black" points="8.5,-309.5 231.5,-309.5 "/>
<text text-anchor="start" x="16.5" y="-294.3" font-family="Times,serif" font-size="14.00">+ authenticateBlock()</text>
<text text-anchor="start" x="16.5" y="-279.3" font-family="Times,serif" font-size="14.00">+ readBlock()</text>
<text text-anchor="start" x="16.5" y="-264.3" font-family="Times,serif" font-size="14.00">+ writeBlock()</text>
<text text-anchor="start" x="16.5" y="-249.3" font-family="Times,serif" font-size="14.00"> + initializeCardForCloning()</text>
<text text-anchor="start" x="16.5" y="-234.3" font-family="Times,serif" font-size="14.00">+ writeClonedUID()</text>
</g>
<!-- AccessControlSystem&#45;&gt;NFCReader -->
<g id="edge1" class="edge">
<title>AccessControlSystem&#45;&gt;NFCReader</title>
<path fill="none" stroke="black" stroke-dasharray="5,2" d="M290.4,-160.89C268.07,-179.78 243.8,-200.3 220.76,-219.79"/>
<polygon fill="black" stroke="black" points="218.37,-217.22 213,-226.35 222.89,-222.57 218.37,-217.22"/>
<text text-anchor="middle" x="264.5" y="-196.8" font-family="Times,serif" font-size="14.00">uses</text>
</g>
<!-- StoredCard -->
<g id="node4" class="node">
<title>StoredCard</title>
<polygon fill="lightyellow" stroke="black" points="250,-268 250,-344 356,-344 356,-268 250,-268"/>
<text text-anchor="middle" x="303" y="-328.8" font-family="Times,serif" font-size="14.00">StoredCard</text>
<polyline fill="none" stroke="black" points="250,-321 356,-321 "/>
<text text-anchor="start" x="258" y="-305.8" font-family="Times,serif" font-size="14.00">+ uid[]</text>
<text text-anchor="start" x="258" y="-290.8" font-family="Times,serif" font-size="14.00">+ uidLength</text>
<text text-anchor="start" x="258" y="-275.8" font-family="Times,serif" font-size="14.00">+ active</text>
</g>
<!-- AccessControlSystem&#45;&gt;StoredCard -->
<g id="edge4" class="edge">
<title>AccessControlSystem&#45;&gt;StoredCard</title>
<path fill="none" stroke="black" stroke-dasharray="5,2" d="M346.94,-174.69C337.33,-203.19 327,-233.82 318.77,-258.22"/>
<polygon fill="black" stroke="black" points="315.38,-257.34 315.5,-267.93 322.01,-259.57 315.38,-257.34"/>
<text text-anchor="middle" x="372" y="-196.8" font-family="Times,serif" font-size="14.00">manages</text>
</g>
<!-- SystemState -->
<g id="node5" class="node">
<title>SystemState</title>
<ellipse fill="lightcoral" stroke="black" cx="450" cy="-306" rx="76.24" ry="26.74"/>
<text text-anchor="middle" x="450" y="-309.8" font-family="Times,serif" font-size="14.00">SystemState</text>
<text text-anchor="middle" x="450" y="-294.8" font-family="Times,serif" font-size="14.00">(enum)</text>
</g>
<!-- AccessControlSystem&#45;&gt;SystemState -->
<g id="edge2" class="edge">
<title>AccessControlSystem&#45;&gt;SystemState</title>
<path fill="none" stroke="black" d="M405.46,-174.69C416.77,-207.79 429.07,-243.77 437.87,-269.52"/>
<polygon fill="black" stroke="black" points="434.64,-270.87 441.18,-279.2 441.26,-268.61 434.64,-270.87"/>
<text text-anchor="middle" x="428.5" y="-196.8" font-family="Times,serif" font-size="14.00">has</text>
</g>
<!-- MenuItem -->
<g id="node6" class="node">
<title>MenuItem</title>
<ellipse fill="lightcoral" stroke="black" cx="608" cy="-306" rx="63.78" ry="26.74"/>
<text text-anchor="middle" x="608" y="-309.8" font-family="Times,serif" font-size="14.00">MenuItem</text>
<text text-anchor="middle" x="608" y="-294.8" font-family="Times,serif" font-size="14.00">(enum)</text>
</g>
<!-- AccessControlSystem&#45;&gt;MenuItem -->
<g id="edge3" class="edge">
<title>AccessControlSystem&#45;&gt;MenuItem</title>
<path fill="none" stroke="black" d="M461.73,-159.58C485.92,-180.44 511.92,-203.67 535,-226 550.29,-240.79 566.42,-258.06 579.62,-272.67"/>
<polygon fill="black" stroke="black" points="577.35,-275.38 586.63,-280.49 582.56,-270.71 577.35,-275.38"/>
<text text-anchor="middle" x="527.5" y="-196.8" font-family="Times,serif" font-size="14.00">has</text>
</g>
<!-- NFCCardInfo -->
<g id="node3" class="node">
<title>NFCCardInfo</title>
<polygon fill="lightyellow" stroke="black" points="0,-437.5 0,-543.5 136,-543.5 136,-437.5 0,-437.5"/>
<text text-anchor="middle" x="68" y="-528.3" font-family="Times,serif" font-size="14.00">NFCCardInfo</text>
<polyline fill="none" stroke="black" points="0,-520.5 136,-520.5 "/>
<text text-anchor="start" x="8" y="-505.3" font-family="Times,serif" font-size="14.00">+ uid[7]</text>
<text text-anchor="start" x="8" y="-490.3" font-family="Times,serif" font-size="14.00">+ uidLength</text>
<text text-anchor="start" x="8" y="-475.3" font-family="Times,serif" font-size="14.00">+ cardType</text>
<text text-anchor="start" x="8" y="-460.3" font-family="Times,serif" font-size="14.00">+ hasClonedUID</text>
<text text-anchor="start" x="8" y="-445.3" font-family="Times,serif" font-size="14.00">+ clonedUID[7]</text>
</g>
<!-- NFCReader&#45;&gt;NFCCardInfo -->
<g id="edge5" class="edge">
<title>NFCReader&#45;&gt;NFCCardInfo</title>
<path fill="none" stroke="black" d="M97.57,-385.72C93.57,-399.77 89.45,-414.23 85.6,-427.72"/>
<polygon fill="black" stroke="black" points="82.23,-426.78 82.86,-437.35 88.96,-428.7 82.23,-426.78"/>
<text text-anchor="middle" x="118" y="-407.8" font-family="Times,serif" font-size="14.00">returns</text>
</g>
<!-- NFCCardType -->
<g id="node7" class="node">
<title>NFCCardType</title>
<ellipse fill="lightcoral" stroke="black" cx="120" cy="-621.87" rx="83.38" ry="26.74"/>
<text text-anchor="middle" x="120" y="-625.67" font-family="Times,serif" font-size="14.00">NFCCardType</text>
<text text-anchor="middle" x="120" y="-610.67" font-family="Times,serif" font-size="14.00">(enum)</text>
</g>
<!-- NFCReader&#45;&gt;NFCCardType -->
<g id="edge6" class="edge">
<title>NFCReader&#45;&gt;NFCCardType</title>
<path fill="none" stroke="black" d="M145.14,-385.51C146.62,-391.73 147.94,-397.94 149,-404 161.16,-473.28 156,-491.69 158,-562 158.19,-568.66 160.33,-570.75 158,-577 156.61,-580.72 154.76,-584.33 152.6,-587.78"/>
<polygon fill="black" stroke="black" points="149.7,-585.82 146.74,-595.99 155.4,-589.88 149.7,-585.82"/>
<text text-anchor="middle" x="174.5" y="-486.8" font-family="Times,serif" font-size="14.00">uses</text>
</g>
<!-- NFCCardInfo&#45;&gt;NFCCardType -->
<g id="edge7" class="edge">
<title>NFCCardInfo&#45;&gt;NFCCardType</title>
<path fill="none" stroke="black" d="M84.2,-543.53C88.08,-554.7 92.43,-566.34 97,-577 98.29,-580 99.7,-583.08 101.17,-586.15"/>
<polygon fill="black" stroke="black" points="98.1,-587.83 105.7,-595.21 104.36,-584.7 98.1,-587.83"/>
<text text-anchor="middle" x="127.5" y="-565.8" font-family="Times,serif" font-size="14.00">contains</text>
</g>
</g>
</svg>
