<?xml version="1.0" encoding="UTF-8" standalone="no"?>
<!DOCTYPE svg PUBLIC "-//W3C//DTD SVG 1.1//EN"
 "http://www.w3.org/Graphics/SVG/1.1/DTD/svg11.dtd">
<!-- Generated by graphviz version 2.43.0 (0)
 -->
<!-- Title: wear_analysis Pages: 1 -->
<svg width="577pt" height="61pt"
 viewBox="0.00 0.00 577.00 61.00" xmlns="http://www.w3.org/2000/svg" xmlns:xlink="http://www.w3.org/1999/xlink">
<g id="graph0" class="graph" transform="scale(1 1) rotate(0) translate(4 57)">
<title>wear_analysis</title>
<polygon fill="white" stroke="transparent" points="-4,4 -4,-57 573,-57 573,4 -4,4"/>
<!-- magic -->
<g id="node1" class="node">
<title>magic</title>
<polygon fill="green" stroke="black" points="123,-53 0,-53 0,0 123,0 123,-53"/>
<text text-anchor="middle" x="61.5" y="-37.8" font-family="Times,serif" font-size="14.00">Magic Number</text>
<text text-anchor="middle" x="61.5" y="-22.8" font-family="Times,serif" font-size="14.00">(Addr 0&#45;1)</text>
<text text-anchor="middle" x="61.5" y="-7.8" font-family="Times,serif" font-size="14.00">Written: Once</text>
</g>
<!-- count -->
<g id="node2" class="node">
<title>count</title>
<polygon fill="yellow" stroke="black" points="353,-53 159,-53 159,0 353,0 353,-53"/>
<text text-anchor="middle" x="256" y="-37.8" font-family="Times,serif" font-size="14.00">Card Count</text>
<text text-anchor="middle" x="256" y="-22.8" font-family="Times,serif" font-size="14.00">(Addr 2)</text>
<text text-anchor="middle" x="256" y="-7.8" font-family="Times,serif" font-size="14.00">Written: Each add/delete</text>
</g>
<!-- magic&#45;&gt;count -->
<!-- cards -->
<g id="node3" class="node">
<title>cards</title>
<polygon fill="green" stroke="black" points="569,-53 389,-53 389,0 569,0 569,-53"/>
<text text-anchor="middle" x="479" y="-37.8" font-family="Times,serif" font-size="14.00">Card Entries</text>
<text text-anchor="middle" x="479" y="-22.8" font-family="Times,serif" font-size="14.00">(Addr 3&#45;322)</text>
<text text-anchor="middle" x="479" y="-7.8" font-family="Times,serif" font-size="14.00">Written: Once per card</text>
</g>
<!-- count&#45;&gt;cards -->
</g>
</svg>
