<?xml version="1.0" encoding="UTF-8" standalone="no"?>
<!DOCTYPE svg PUBLIC "-//W3C//DTD SVG 1.1//EN"
 "http://www.w3.org/Graphics/SVG/1.1/DTD/svg11.dtd">
<!-- Generated by graphviz version 2.43.0 (0)
 -->
<!-- Title: init_flow Pages: 1 -->
<svg width="285pt" height="585pt"
 viewBox="0.00 0.00 284.85 585.00" xmlns="http://www.w3.org/2000/svg" xmlns:xlink="http://www.w3.org/1999/xlink">
<g id="graph0" class="graph" transform="scale(1 1) rotate(0) translate(4 581)">
<title>init_flow</title>
<polygon fill="white" stroke="transparent" points="-4,4 -4,-581 280.85,-581 280.85,4 -4,4"/>
<!-- boot -->
<g id="node1" class="node">
<title>boot</title>
<ellipse fill="lightgreen" stroke="black" cx="98.35" cy="-559" rx="69.59" ry="18"/>
<text text-anchor="middle" x="98.35" y="-555.3" font-family="Times,serif" font-size="14.00">System Boot</text>
</g>
<!-- read_magic -->
<g id="node2" class="node">
<title>read_magic</title>
<polygon fill="lightblue" stroke="black" points="180.35,-504 16.35,-504 16.35,-468 180.35,-468 180.35,-504"/>
<text text-anchor="middle" x="98.35" y="-482.3" font-family="Times,serif" font-size="14.00">Read Magic Number</text>
</g>
<!-- boot&#45;&gt;read_magic -->
<g id="edge1" class="edge">
<title>boot&#45;&gt;read_magic</title>
<path fill="none" stroke="black" d="M98.35,-540.81C98.35,-532.79 98.35,-523.05 98.35,-514.07"/>
<polygon fill="black" stroke="black" points="101.85,-514.03 98.35,-504.03 94.85,-514.03 101.85,-514.03"/>
</g>
<!-- check -->
<g id="node3" class="node">
<title>check</title>
<polygon fill="yellow" stroke="black" points="98.35,-431 0.15,-413 98.35,-395 196.55,-413 98.35,-431"/>
<text text-anchor="middle" x="98.35" y="-409.3" font-family="Times,serif" font-size="14.00">Magic Valid?</text>
</g>
<!-- read_magic&#45;&gt;check -->
<g id="edge2" class="edge">
<title>read_magic&#45;&gt;check</title>
<path fill="none" stroke="black" d="M98.35,-467.81C98.35,-459.79 98.35,-450.05 98.35,-441.07"/>
<polygon fill="black" stroke="black" points="101.85,-441.03 98.35,-431.03 94.85,-441.03 101.85,-441.03"/>
</g>
<!-- normal -->
<g id="node4" class="node">
<title>normal</title>
<polygon fill="green" stroke="black" points="167.35,-36 21.35,-36 21.35,0 167.35,0 167.35,-36"/>
<text text-anchor="middle" x="94.35" y="-14.3" font-family="Times,serif" font-size="14.00">Normal Operation</text>
</g>
<!-- check&#45;&gt;normal -->
<g id="edge3" class="edge">
<title>check&#45;&gt;normal</title>
<path fill="none" stroke="black" d="M93.46,-395.87C88.76,-378.9 82.35,-351.33 82.35,-327 82.35,-327 82.35,-327 82.35,-91 82.35,-76 84.91,-59.48 87.67,-46.05"/>
<polygon fill="black" stroke="black" points="91.15,-46.55 89.88,-36.03 84.31,-45.05 91.15,-46.55"/>
<text text-anchor="middle" x="94.85" y="-205.8" font-family="Times,serif" font-size="14.00">Yes</text>
</g>
<!-- init -->
<g id="node5" class="node">
<title>init</title>
<polygon fill="orange" stroke="black" points="264.35,-344 114.35,-344 114.35,-308 264.35,-308 264.35,-344"/>
<text text-anchor="middle" x="189.35" y="-322.3" font-family="Times,serif" font-size="14.00">Initialize EEPROM</text>
</g>
<!-- check&#45;&gt;init -->
<g id="edge4" class="edge">
<title>check&#45;&gt;init</title>
<path fill="none" stroke="black" d="M113.79,-397.58C127.38,-384.88 147.46,-366.13 163.5,-351.14"/>
<polygon fill="black" stroke="black" points="166.09,-353.51 171.01,-344.13 161.31,-348.4 166.09,-353.51"/>
<text text-anchor="middle" x="158.85" y="-365.8" font-family="Times,serif" font-size="14.00">No</text>
</g>
<!-- write_magic -->
<g id="node6" class="node">
<title>write_magic</title>
<polygon fill="pink" stroke="black" points="276.85,-271 109.85,-271 109.85,-235 276.85,-235 276.85,-271"/>
<text text-anchor="middle" x="193.35" y="-249.3" font-family="Times,serif" font-size="14.00">Write Magic 0xABCD</text>
</g>
<!-- init&#45;&gt;write_magic -->
<g id="edge5" class="edge">
<title>init&#45;&gt;write_magic</title>
<path fill="none" stroke="black" d="M190.32,-307.81C190.77,-299.79 191.32,-290.05 191.82,-281.07"/>
<polygon fill="black" stroke="black" points="195.32,-281.21 192.39,-271.03 188.33,-280.82 195.32,-281.21"/>
</g>
<!-- zero_count -->
<g id="node7" class="node">
<title>zero_count</title>
<polygon fill="pink" stroke="black" points="250.35,-184 130.35,-184 130.35,-148 250.35,-148 250.35,-184"/>
<text text-anchor="middle" x="190.35" y="-162.3" font-family="Times,serif" font-size="14.00">Set Count to 0</text>
</g>
<!-- write_magic&#45;&gt;zero_count -->
<g id="edge6" class="edge">
<title>write_magic&#45;&gt;zero_count</title>
<path fill="none" stroke="black" d="M192.74,-234.8C192.33,-223.16 191.78,-207.55 191.31,-194.24"/>
<polygon fill="black" stroke="black" points="194.81,-194.05 190.96,-184.18 187.81,-194.29 194.81,-194.05"/>
</g>
<!-- clear_cards -->
<g id="node8" class="node">
<title>clear_cards</title>
<polygon fill="pink" stroke="black" points="245.85,-111 114.85,-111 114.85,-73 245.85,-73 245.85,-111"/>
<text text-anchor="middle" x="180.35" y="-95.8" font-family="Times,serif" font-size="14.00">Clear Card Area</text>
<text text-anchor="middle" x="180.35" y="-80.8" font-family="Times,serif" font-size="14.00">(Fill with 0xFF)</text>
</g>
<!-- zero_count&#45;&gt;clear_cards -->
<g id="edge7" class="edge">
<title>zero_count&#45;&gt;clear_cards</title>
<path fill="none" stroke="black" d="M187.98,-147.94C186.88,-139.99 185.53,-130.31 184.28,-121.31"/>
<polygon fill="black" stroke="black" points="187.72,-120.62 182.88,-111.2 180.79,-121.59 187.72,-120.62"/>
</g>
<!-- clear_cards&#45;&gt;normal -->
<g id="edge8" class="edge">
<title>clear_cards&#45;&gt;normal</title>
<path fill="none" stroke="black" d="M158.65,-72.83C147.73,-63.69 134.37,-52.5 122.65,-42.7"/>
<polygon fill="black" stroke="black" points="124.77,-39.91 114.86,-36.17 120.28,-45.27 124.77,-39.91"/>
</g>
</g>
</svg>
