<?xml version="1.0" encoding="UTF-8" standalone="no"?>
<!DOCTYPE svg PUBLIC "-//W3C//DTD SVG 1.1//EN"
 "http://www.w3.org/Graphics/SVG/1.1/DTD/svg11.dtd">
<!-- Generated by graphviz version 2.43.0 (0)
 -->
<!-- Title: memory_layout Pages: 1 -->
<svg width="1327pt" height="132pt"
 viewBox="0.00 0.00 1327.00 132.00" xmlns="http://www.w3.org/2000/svg" xmlns:xlink="http://www.w3.org/1999/xlink">
<g id="graph0" class="graph" transform="scale(1 1) rotate(0) translate(4 128)">
<title>memory_layout</title>
<polygon fill="white" stroke="transparent" points="-4,4 -4,-128 1323,-128 1323,4 -4,4"/>
<g id="clust1" class="cluster">
<title>cluster_sector0</title>
<polygon fill="lightgray" stroke="black" points="8,-8 8,-116 534,-116 534,-8 8,-8"/>
<text text-anchor="middle" x="271" y="-100.8" font-family="Times,serif" font-size="14.00">Sector 0</text>
<text text-anchor="middle" x="271" y="-85.8" font-family="Times,serif" font-size="14.00">(Manufacturer)</text>
</g>
<g id="clust2" class="cluster">
<title>cluster_sector1</title>
<polygon fill="lightblue" stroke="black" points="554,-8 554,-116 1145,-116 1145,-8 554,-8"/>
<text text-anchor="middle" x="849.5" y="-100.8" font-family="Times,serif" font-size="14.00">Sector 1</text>
<text text-anchor="middle" x="849.5" y="-85.8" font-family="Times,serif" font-size="14.00">(Custom Clone Data)</text>
</g>
<g id="clust3" class="cluster">
<title>cluster_sector2</title>
<polygon fill="lightgray" stroke="black" points="1165,-17 1165,-107 1311,-107 1311,-17 1165,-17"/>
<text text-anchor="middle" x="1238" y="-91.8" font-family="Times,serif" font-size="14.00">Sector 2&#45;15</text>
<text text-anchor="middle" x="1238" y="-76.8" font-family="Times,serif" font-size="14.00">(Available)</text>
</g>
<!-- block0 -->
<g id="node1" class="node">
<title>block0</title>
<polygon fill="pink" stroke="black" points="16,-16.5 16,-69.5 164,-69.5 164,-16.5 16,-16.5"/>
<text text-anchor="middle" x="90" y="-54.3" font-family="Times,serif" font-size="14.00">Block 0</text>
<text text-anchor="middle" x="90" y="-39.3" font-family="Times,serif" font-size="14.00">Manufacturer UID</text>
<text text-anchor="middle" x="90" y="-24.3" font-family="Times,serif" font-size="14.00">(Read&#45;only)</text>
</g>
<!-- block1 -->
<g id="node2" class="node">
<title>block1</title>
<polygon fill="white" stroke="black" points="200,-24 200,-62 269,-62 269,-24 200,-24"/>
<text text-anchor="middle" x="234.5" y="-46.8" font-family="Times,serif" font-size="14.00">Block 1</text>
<text text-anchor="middle" x="234.5" y="-31.8" font-family="Times,serif" font-size="14.00">Data</text>
</g>
<!-- block0&#45;&gt;block1 -->
<g id="edge1" class="edge">
<title>block0&#45;&gt;block1</title>
<path fill="none" stroke="black" d="M164.34,-43C172.97,-43 181.56,-43 189.6,-43"/>
<polygon fill="black" stroke="black" points="189.81,-46.5 199.81,-43 189.81,-39.5 189.81,-46.5"/>
</g>
<!-- block2 -->
<g id="node3" class="node">
<title>block2</title>
<polygon fill="white" stroke="black" points="305,-24 305,-62 374,-62 374,-24 305,-24"/>
<text text-anchor="middle" x="339.5" y="-46.8" font-family="Times,serif" font-size="14.00">Block 2</text>
<text text-anchor="middle" x="339.5" y="-31.8" font-family="Times,serif" font-size="14.00">Data</text>
</g>
<!-- block1&#45;&gt;block2 -->
<g id="edge2" class="edge">
<title>block1&#45;&gt;block2</title>
<path fill="none" stroke="black" d="M269.23,-43C277.32,-43 286.08,-43 294.56,-43"/>
<polygon fill="black" stroke="black" points="294.7,-46.5 304.7,-43 294.7,-39.5 294.7,-46.5"/>
</g>
<!-- block3 -->
<g id="node4" class="node">
<title>block3</title>
<polygon fill="yellow" stroke="black" points="410,-24 410,-62 526,-62 526,-24 410,-24"/>
<text text-anchor="middle" x="468" y="-46.8" font-family="Times,serif" font-size="14.00">Block 3</text>
<text text-anchor="middle" x="468" y="-31.8" font-family="Times,serif" font-size="14.00">Sector Trailer</text>
</g>
<!-- block2&#45;&gt;block3 -->
<g id="edge3" class="edge">
<title>block2&#45;&gt;block3</title>
<path fill="none" stroke="black" d="M374.07,-43C382.04,-43 390.84,-43 399.73,-43"/>
<polygon fill="black" stroke="black" points="399.79,-46.5 409.79,-43 399.79,-39.5 399.79,-46.5"/>
</g>
<!-- block4 -->
<g id="node5" class="node">
<title>block4</title>
<polygon fill="lightgreen" stroke="black" points="562,-16.5 562,-69.5 729,-69.5 729,-16.5 562,-16.5"/>
<text text-anchor="middle" x="645.5" y="-54.3" font-family="Times,serif" font-size="14.00">Block 4</text>
<text text-anchor="middle" x="645.5" y="-39.3" font-family="Times,serif" font-size="14.00">Cloned UID (7 bytes)</text>
<text text-anchor="middle" x="645.5" y="-24.3" font-family="Times,serif" font-size="14.00">+ Magic Bytes</text>
</g>
<!-- block3&#45;&gt;block4 -->
<g id="edge4" class="edge">
<title>block3&#45;&gt;block4</title>
<path fill="none" stroke="black" d="M526.47,-43C534.58,-43 543.1,-43 551.68,-43"/>
<polygon fill="black" stroke="black" points="551.76,-46.5 561.76,-43 551.76,-39.5 551.76,-46.5"/>
</g>
<!-- block5 -->
<g id="node6" class="node">
<title>block5</title>
<polygon fill="lightgreen" stroke="black" points="765,-16.5 765,-69.5 866,-69.5 866,-16.5 765,-16.5"/>
<text text-anchor="middle" x="815.5" y="-54.3" font-family="Times,serif" font-size="14.00">Block 5</text>
<text text-anchor="middle" x="815.5" y="-39.3" font-family="Times,serif" font-size="14.00">Timestamp</text>
<text text-anchor="middle" x="815.5" y="-24.3" font-family="Times,serif" font-size="14.00">+ Metadata</text>
</g>
<!-- block4&#45;&gt;block5 -->
<g id="edge5" class="edge">
<title>block4&#45;&gt;block5</title>
<path fill="none" stroke="black" d="M729.02,-43C737.75,-43 746.51,-43 754.9,-43"/>
<polygon fill="black" stroke="black" points="754.94,-46.5 764.94,-43 754.94,-39.5 754.94,-46.5"/>
</g>
<!-- block6 -->
<g id="node7" class="node">
<title>block6</title>
<polygon fill="white" stroke="black" points="902,-24 902,-62 985,-62 985,-24 902,-24"/>
<text text-anchor="middle" x="943.5" y="-46.8" font-family="Times,serif" font-size="14.00">Block 6</text>
<text text-anchor="middle" x="943.5" y="-31.8" font-family="Times,serif" font-size="14.00">Reserved</text>
</g>
<!-- block5&#45;&gt;block6 -->
<g id="edge6" class="edge">
<title>block5&#45;&gt;block6</title>
<path fill="none" stroke="black" d="M866.3,-43C874.71,-43 883.45,-43 891.88,-43"/>
<polygon fill="black" stroke="black" points="891.97,-46.5 901.97,-43 891.97,-39.5 891.97,-46.5"/>
</g>
<!-- block7 -->
<g id="node8" class="node">
<title>block7</title>
<polygon fill="yellow" stroke="black" points="1021,-16.5 1021,-69.5 1137,-69.5 1137,-16.5 1021,-16.5"/>
<text text-anchor="middle" x="1079" y="-54.3" font-family="Times,serif" font-size="14.00">Block 7</text>
<text text-anchor="middle" x="1079" y="-39.3" font-family="Times,serif" font-size="14.00">Sector Trailer</text>
<text text-anchor="middle" x="1079" y="-24.3" font-family="Times,serif" font-size="14.00">(Keys)</text>
</g>
<!-- block6&#45;&gt;block7 -->
<g id="edge7" class="edge">
<title>block6&#45;&gt;block7</title>
<path fill="none" stroke="black" d="M985.28,-43C993.33,-43 1001.97,-43 1010.63,-43"/>
<polygon fill="black" stroke="black" points="1010.76,-46.5 1020.76,-43 1010.76,-39.5 1010.76,-46.5"/>
</g>
<!-- other -->
<g id="node9" class="node">
<title>other</title>
<polygon fill="lightgrey" stroke="black" points="1303,-61 1173,-61 1173,-25 1303,-25 1303,-61"/>
<text text-anchor="middle" x="1238" y="-39.3" font-family="Times,serif" font-size="14.00">Other Sectors...</text>
</g>
<!-- block7&#45;&gt;other -->
<g id="edge8" class="edge">
<title>block7&#45;&gt;other</title>
<path fill="none" stroke="black" d="M1137.12,-43C1145.44,-43 1154.11,-43 1162.71,-43"/>
<polygon fill="black" stroke="black" points="1162.74,-46.5 1172.74,-43 1162.74,-39.5 1162.74,-46.5"/>
</g>
</g>
</svg>
