<svg xmlns="http://www.w3.org/2000/svg" xmlns:xlink="http://www.w3.org/1999/xlink" contentStyleType="text/css" height="756px" preserveAspectRatio="none" style="width:692px;height:756px;background:#FFFFFF;" version="1.1" viewBox="0 0 692 756" width="692px" zoomAndPan="magnify"><defs/><g><rect fill="#FFFFFF" height="537.7969" style="stroke:#181818;stroke-width:1;" width="10" x="235.687" y="112.4297"/><rect fill="#FFFFFF" height="87.3984" style="stroke:#181818;stroke-width:1;" width="10" x="435.1387" y="297.0938"/><rect fill="#FFFFFF" height="29.1328" style="stroke:#181818;stroke-width:1;" width="10" x="557.7222" y="326.2266"/><rect fill="#FFFFFF" height="29.1328" style="stroke:#181818;stroke-width:1;" width="10" x="634.0205" y="479.8906"/><rect fill="none" height="174.4688" style="stroke:#000000;stroke-width:1.5;" width="537.46" x="148.0405" y="441.625"/><line style="stroke:#181818;stroke-width:0.5;stroke-dasharray:5.0,5.0;" x1="23" x2="23" y1="81.2969" y2="675.2266"/><line style="stroke:#181818;stroke-width:0.5;stroke-dasharray:5.0,5.0;" x1="240.0405" x2="240.0405" y1="81.2969" y2="675.2266"/><line style="stroke:#181818;stroke-width:0.5;stroke-dasharray:5.0,5.0;" x1="439.9004" x2="439.9004" y1="81.2969" y2="675.2266"/><line style="stroke:#181818;stroke-width:0.5;stroke-dasharray:5.0,5.0;" x1="561.9038" x2="561.9038" y1="81.2969" y2="675.2266"/><line style="stroke:#181818;stroke-width:0.5;stroke-dasharray:5.0,5.0;" x1="638.5405" x2="638.5405" y1="81.2969" y2="675.2266"/><text fill="#000000" font-family="sans-serif" font-size="14" lengthAdjust="spacing" textLength="31.9102" x="5" y="77.9951">User</text><ellipse cx="23.9551" cy="13.5" fill="#E2E2F0" rx="8" ry="8" style="stroke:#181818;stroke-width:0.5;"/><path d="M23.9551,21.5 L23.9551,48.5 M10.9551,29.5 L36.9551,29.5 M23.9551,48.5 L10.9551,63.5 M23.9551,48.5 L36.9551,63.5 " fill="none" style="stroke:#181818;stroke-width:0.5;"/><text fill="#000000" font-family="sans-serif" font-size="14" lengthAdjust="spacing" textLength="31.9102" x="5" y="687.2217">User</text><ellipse cx="23.9551" cy="699.0234" fill="#E2E2F0" rx="8" ry="8" style="stroke:#181818;stroke-width:0.5;"/><path d="M23.9551,707.0234 L23.9551,734.0234 M10.9551,715.0234 L36.9551,715.0234 M23.9551,734.0234 L10.9551,749.0234 M23.9551,734.0234 L36.9551,749.0234 " fill="none" style="stroke:#181818;stroke-width:0.5;"/><rect fill="#E2E2F0" height="30.2969" rx="2.5" ry="2.5" style="stroke:#181818;stroke-width:0.5;" width="165.293" x="158.0405" y="50"/><text fill="#000000" font-family="sans-serif" font-size="14" lengthAdjust="spacing" textLength="151.293" x="165.0405" y="69.9951">AccessControlSystem</text><rect fill="#E2E2F0" height="30.2969" rx="2.5" ry="2.5" style="stroke:#181818;stroke-width:0.5;" width="165.293" x="158.0405" y="674.2266"/><text fill="#000000" font-family="sans-serif" font-size="14" lengthAdjust="spacing" textLength="151.293" x="165.0405" y="694.2217">AccessControlSystem</text><rect fill="#E2E2F0" height="30.2969" rx="2.5" ry="2.5" style="stroke:#181818;stroke-width:0.5;" width="92.4766" x="393.9004" y="50"/><text fill="#000000" font-family="sans-serif" font-size="14" lengthAdjust="spacing" textLength="78.4766" x="400.9004" y="69.9951">NFCReader</text><rect fill="#E2E2F0" height="30.2969" rx="2.5" ry="2.5" style="stroke:#181818;stroke-width:0.5;" width="92.4766" x="393.9004" y="674.2266"/><text fill="#000000" font-family="sans-serif" font-size="14" lengthAdjust="spacing" textLength="78.4766" x="400.9004" y="694.2217">NFCReader</text><rect fill="#E2E2F0" height="30.2969" rx="2.5" ry="2.5" style="stroke:#181818;stroke-width:0.5;" width="59.6367" x="532.9038" y="50"/><text fill="#000000" font-family="sans-serif" font-size="14" lengthAdjust="spacing" textLength="45.6367" x="539.9038" y="69.9951">PN532</text><rect fill="#E2E2F0" height="30.2969" rx="2.5" ry="2.5" style="stroke:#181818;stroke-width:0.5;" width="59.6367" x="532.9038" y="674.2266"/><text fill="#000000" font-family="sans-serif" font-size="14" lengthAdjust="spacing" textLength="45.6367" x="539.9038" y="694.2217">PN532</text><rect fill="#E2E2F0" height="30.2969" rx="2.5" ry="2.5" style="stroke:#181818;stroke-width:0.5;" width="72.96" x="602.5405" y="50"/><text fill="#000000" font-family="sans-serif" font-size="14" lengthAdjust="spacing" textLength="58.96" x="609.5405" y="69.9951">EEPROM</text><rect fill="#E2E2F0" height="30.2969" rx="2.5" ry="2.5" style="stroke:#181818;stroke-width:0.5;" width="72.96" x="602.5405" y="674.2266"/><text fill="#000000" font-family="sans-serif" font-size="14" lengthAdjust="spacing" textLength="58.96" x="609.5405" y="694.2217">EEPROM</text><rect fill="#FFFFFF" height="537.7969" style="stroke:#181818;stroke-width:1;" width="10" x="235.687" y="112.4297"/><rect fill="#FFFFFF" height="87.3984" style="stroke:#181818;stroke-width:1;" width="10" x="435.1387" y="297.0938"/><rect fill="#FFFFFF" height="29.1328" style="stroke:#181818;stroke-width:1;" width="10" x="557.7222" y="326.2266"/><rect fill="#FFFFFF" height="29.1328" style="stroke:#181818;stroke-width:1;" width="10" x="634.0205" y="479.8906"/><polygon fill="#181818" points="223.687,108.4297,233.687,112.4297,223.687,116.4297,227.687,112.4297" style="stroke:#181818;stroke-width:1;"/><line style="stroke:#181818;stroke-width:1;" x1="23.9551" x2="229.687" y1="112.4297" y2="112.4297"/><text fill="#000000" font-family="sans-serif" font-size="13" lengthAdjust="spacing" textLength="123.0112" x="68.3154" y="107.3638">Press menu button</text><line style="stroke:#181818;stroke-width:1;" x1="245.687" x2="287.687" y1="141.5625" y2="141.5625"/><line style="stroke:#181818;stroke-width:1;" x1="287.687" x2="287.687" y1="141.5625" y2="154.5625"/><line style="stroke:#181818;stroke-width:1;" x1="246.687" x2="287.687" y1="154.5625" y2="154.5625"/><polygon fill="#181818" points="256.687,150.5625,246.687,154.5625,256.687,158.5625,252.687,154.5625" style="stroke:#181818;stroke-width:1;"/><text fill="#000000" font-family="sans-serif" font-size="13" lengthAdjust="spacing" textLength="114.7593" x="252.687" y="136.4966">Enter MENU state</text><polygon fill="#181818" points="223.687,179.6953,233.687,183.6953,223.687,187.6953,227.687,183.6953" style="stroke:#181818;stroke-width:1;"/><line style="stroke:#181818;stroke-width:1;" x1="23.9551" x2="229.687" y1="183.6953" y2="183.6953"/><text fill="#000000" font-family="sans-serif" font-size="13" lengthAdjust="spacing" textLength="187.7319" x="35.9551" y="178.6294">Navigate to REGISTER_CARD</text><line style="stroke:#181818;stroke-width:1;" x1="245.687" x2="287.687" y1="212.8281" y2="212.8281"/><line style="stroke:#181818;stroke-width:1;" x1="287.687" x2="287.687" y1="212.8281" y2="225.8281"/><line style="stroke:#181818;stroke-width:1;" x1="246.687" x2="287.687" y1="225.8281" y2="225.8281"/><polygon fill="#181818" points="256.687,221.8281,246.687,225.8281,256.687,229.8281,252.687,225.8281" style="stroke:#181818;stroke-width:1;"/><text fill="#000000" font-family="sans-serif" font-size="13" lengthAdjust="spacing" textLength="164.3154" x="252.687" y="207.7622">Enter REGISTERING state</text><line style="stroke:#181818;stroke-width:1;" x1="245.687" x2="287.687" y1="254.9609" y2="254.9609"/><line style="stroke:#181818;stroke-width:1;" x1="287.687" x2="287.687" y1="254.9609" y2="267.9609"/><line style="stroke:#181818;stroke-width:1;" x1="246.687" x2="287.687" y1="267.9609" y2="267.9609"/><polygon fill="#181818" points="256.687,263.9609,246.687,267.9609,256.687,271.9609,252.687,267.9609" style="stroke:#181818;stroke-width:1;"/><text fill="#000000" font-family="sans-serif" font-size="13" lengthAdjust="spacing" textLength="131.4155" x="252.687" y="249.895">Display "Place card"</text><polygon fill="#181818" points="423.1387,293.0938,433.1387,297.0938,423.1387,301.0938,427.1387,297.0938" style="stroke:#181818;stroke-width:1;"/><line style="stroke:#181818;stroke-width:1;" x1="23.9551" x2="429.1387" y1="297.0938" y2="297.0938"/><text fill="#000000" font-family="sans-serif" font-size="13" lengthAdjust="spacing" textLength="112.5439" x="173.2749" y="292.0278">Present NFC card</text><polygon fill="#181818" points="545.7222,322.2266,555.7222,326.2266,545.7222,330.2266,549.7222,326.2266" style="stroke:#181818;stroke-width:1;"/><line style="stroke:#181818;stroke-width:1;" x1="445.1387" x2="551.7222" y1="326.2266" y2="326.2266"/><text fill="#000000" font-family="sans-serif" font-size="13" lengthAdjust="spacing" textLength="93.5835" x="454.6387" y="321.1606">Read card UID</text><polygon fill="#181818" points="456.1387,351.3594,446.1387,355.3594,456.1387,359.3594,452.1387,355.3594" style="stroke:#181818;stroke-width:1;"/><line style="stroke:#181818;stroke-width:1;stroke-dasharray:2.0,2.0;" x1="450.1387" x2="561.7222" y1="355.3594" y2="355.3594"/><text fill="#000000" font-family="sans-serif" font-size="13" lengthAdjust="spacing" textLength="71.4429" x="468.209" y="350.2935">Return UID</text><polygon fill="#181818" points="256.687,380.4922,246.687,384.4922,256.687,388.4922,252.687,384.4922" style="stroke:#181818;stroke-width:1;"/><line style="stroke:#181818;stroke-width:1;stroke-dasharray:2.0,2.0;" x1="250.687" x2="439.1387" y1="384.4922" y2="384.4922"/><text fill="#000000" font-family="sans-serif" font-size="13" lengthAdjust="spacing" textLength="129.6064" x="278.1096" y="379.4263">Return NFCCardInfo</text><line style="stroke:#181818;stroke-width:1;" x1="245.687" x2="287.687" y1="413.625" y2="413.625"/><line style="stroke:#181818;stroke-width:1;" x1="287.687" x2="287.687" y1="413.625" y2="426.625"/><line style="stroke:#181818;stroke-width:1;" x1="246.687" x2="287.687" y1="426.625" y2="426.625"/><polygon fill="#181818" points="256.687,422.625,246.687,426.625,256.687,430.625,252.687,426.625" style="stroke:#181818;stroke-width:1;"/><text fill="#000000" font-family="sans-serif" font-size="13" lengthAdjust="spacing" textLength="127.2324" x="252.687" y="408.5591">Check if card exists</text><path d="M148.0405,441.625 L212.4834,441.625 L212.4834,448.7578 L202.4834,458.7578 L148.0405,458.7578 L148.0405,441.625 " fill="#EEEEEE" style="stroke:#000000;stroke-width:1.5;"/><rect fill="none" height="174.4688" style="stroke:#000000;stroke-width:1.5;" width="537.46" x="148.0405" y="441.625"/><text fill="#000000" font-family="sans-serif" font-size="13" font-weight="bold" lengthAdjust="spacing" textLength="19.4429" x="163.0405" y="454.6919">alt</text><text fill="#000000" font-family="sans-serif" font-size="11" font-weight="bold" lengthAdjust="spacing" textLength="182.0854" x="227.4834" y="453.8354">[Card not already registered]</text><polygon fill="#181818" points="622.0205,475.8906,632.0205,479.8906,622.0205,483.8906,626.0205,479.8906" style="stroke:#181818;stroke-width:1;"/><line style="stroke:#181818;stroke-width:1;" x1="245.687" x2="628.0205" y1="479.8906" y2="479.8906"/><text fill="#000000" font-family="sans-serif" font-size="13" lengthAdjust="spacing" textLength="140.8164" x="369.4456" y="474.8247">Save card to EEPROM</text><polygon fill="#181818" points="256.687,505.0234,246.687,509.0234,256.687,513.0234,252.687,509.0234" style="stroke:#181818;stroke-width:1;"/><line style="stroke:#181818;stroke-width:1;stroke-dasharray:2.0,2.0;" x1="250.687" x2="638.0205" y1="509.0234" y2="509.0234"/><text fill="#000000" font-family="sans-serif" font-size="13" lengthAdjust="spacing" textLength="86.0298" x="399.3389" y="503.9575">Confirm save</text><line style="stroke:#181818;stroke-width:1;" x1="245.687" x2="287.687" y1="538.1563" y2="538.1563"/><line style="stroke:#181818;stroke-width:1;" x1="287.687" x2="287.687" y1="538.1563" y2="551.1563"/><line style="stroke:#181818;stroke-width:1;" x1="246.687" x2="287.687" y1="551.1563" y2="551.1563"/><polygon fill="#181818" points="256.687,547.1563,246.687,551.1563,256.687,555.1563,252.687,551.1563" style="stroke:#181818;stroke-width:1;"/><text fill="#000000" font-family="sans-serif" font-size="13" lengthAdjust="spacing" textLength="165.4517" x="252.687" y="533.0903">Display "Card registered"</text><line style="stroke:#000000;stroke-width:1;stroke-dasharray:2.0,2.0;" x1="148.0405" x2="685.5005" y1="560.1563" y2="560.1563"/><text fill="#000000" font-family="sans-serif" font-size="11" font-weight="bold" lengthAdjust="spacing" textLength="129.7334" x="153.0405" y="570.3667">[Card already exists]</text><line style="stroke:#181818;stroke-width:1;" x1="245.687" x2="287.687" y1="595.0938" y2="595.0938"/><line style="stroke:#181818;stroke-width:1;" x1="287.687" x2="287.687" y1="595.0938" y2="608.0938"/><line style="stroke:#181818;stroke-width:1;" x1="246.687" x2="287.687" y1="608.0938" y2="608.0938"/><polygon fill="#181818" points="256.687,604.0938,246.687,608.0938,256.687,612.0938,252.687,608.0938" style="stroke:#181818;stroke-width:1;"/><text fill="#000000" font-family="sans-serif" font-size="13" lengthAdjust="spacing" textLength="136.7285" x="252.687" y="590.0278">Display "Card exists"</text><line style="stroke:#181818;stroke-width:1;" x1="245.687" x2="287.687" y1="649.2266" y2="649.2266"/><line style="stroke:#181818;stroke-width:1;" x1="287.687" x2="287.687" y1="649.2266" y2="662.2266"/><line style="stroke:#181818;stroke-width:1;" x1="240.687" x2="287.687" y1="662.2266" y2="662.2266"/><polygon fill="#181818" points="250.687,658.2266,240.687,662.2266,250.687,666.2266,246.687,662.2266" style="stroke:#181818;stroke-width:1;"/><text fill="#000000" font-family="sans-serif" font-size="13" lengthAdjust="spacing" textLength="131.6313" x="252.687" y="644.1606">Return to IDLE state</text><!--SRC=[VP9DJyCm38Rl_HNMxaXyNdP0che2bLYPMdP69lL6H9UE91lit-DyT6q1KQbgLB-l_TYn4TWGRF4BBiulh-5JrlOjCUzIxL3Z5Wnzx4a9Mf0nkA5P8pSA12bBEabGs5R3ol2PrLOAkKDbOJ8JWkLfgwnkc-feB6qdW0PcQJKM5dTfILYJzk5m72kMnStLfOy-eAu_KTCudcNBycdX1HN3C6AIE20uktNbfh3KZ09RKdjutLlRAaSj3sZ9u_1xacQkArXanGgCPS6FJ0KUvCRvR0jbTfzNprdvaixA-Hz9kdXUtCTSGyrScbs3H-wkGK4WkBD9NooC8P3pe867v2KzU1nK-3XBDvkf3tarhF9vxpWDhpl0sQ1IINQlbNVKzDlJrUdmevovKfRaQjqERH5kr73wHk8Tv3gGqPSqrYJOM709GBKMiD7iEuAc3GT9Kvq0Fp59lDefL7W8ytAN4ExUwqxLkoLmF-Ev1-UDN4lDIyrPl6A0FJJ-ULSUjSUR9DGO2WrqyB6n_rC44TjLFHvI72itbiyVixWs0qAthjy0]--></g></svg>