<svg xmlns="http://www.w3.org/2000/svg" xmlns:xlink="http://www.w3.org/1999/xlink" contentStyleType="text/css" height="839px" preserveAspectRatio="none" style="width:699px;height:839px;background:#FFFFFF;" version="1.1" viewBox="0 0 699 839" width="699px" zoomAndPan="magnify"><defs/><g><rect fill="#FFFFFF" height="621.3906" style="stroke:#181818;stroke-width:1;" width="10" x="175.1958" y="112.4297"/><rect fill="#FFFFFF" height="87.3984" style="stroke:#181818;stroke-width:1;" width="10" x="406.0176" y="225.8281"/><rect fill="#FFFFFF" height="187.7969" style="stroke:#181818;stroke-width:1;" width="10" x="406.0176" y="468.7578"/><rect fill="#FFFFFF" height="29.1328" style="stroke:#181818;stroke-width:1;" width="10" x="658.3853" y="254.9609"/><rect fill="#FFFFFF" height="29.1328" style="stroke:#181818;stroke-width:1;" width="10" x="658.3853" y="497.8906"/><rect fill="#FFFFFF" height="29.1328" style="stroke:#181818;stroke-width:1;" width="10" x="658.3853" y="598.2891"/><line style="stroke:#181818;stroke-width:0.5;stroke-dasharray:5.0,5.0;" x1="23" x2="23" y1="81.2969" y2="758.8203"/><line style="stroke:#181818;stroke-width:0.5;stroke-dasharray:5.0,5.0;" x1="179.5493" x2="179.5493" y1="81.2969" y2="758.8203"/><line style="stroke:#181818;stroke-width:0.5;stroke-dasharray:5.0,5.0;" x1="410.7793" x2="410.7793" y1="81.2969" y2="758.8203"/><line style="stroke:#181818;stroke-width:0.5;stroke-dasharray:5.0,5.0;" x1="662.5669" x2="662.5669" y1="81.2969" y2="758.8203"/><text fill="#000000" font-family="sans-serif" font-size="14" lengthAdjust="spacing" textLength="31.9102" x="5" y="77.9951">User</text><ellipse cx="23.9551" cy="13.5" fill="#E2E2F0" rx="8" ry="8" style="stroke:#181818;stroke-width:0.5;"/><path d="M23.9551,21.5 L23.9551,48.5 M10.9551,29.5 L36.9551,29.5 M23.9551,48.5 L10.9551,63.5 M23.9551,48.5 L36.9551,63.5 " fill="none" style="stroke:#181818;stroke-width:0.5;"/><text fill="#000000" font-family="sans-serif" font-size="14" lengthAdjust="spacing" textLength="31.9102" x="5" y="770.8154">User</text><ellipse cx="23.9551" cy="782.6172" fill="#E2E2F0" rx="8" ry="8" style="stroke:#181818;stroke-width:0.5;"/><path d="M23.9551,790.6172 L23.9551,817.6172 M10.9551,798.6172 L36.9551,798.6172 M23.9551,817.6172 L10.9551,832.6172 M23.9551,817.6172 L36.9551,832.6172 " fill="none" style="stroke:#181818;stroke-width:0.5;"/><rect fill="#E2E2F0" height="30.2969" rx="2.5" ry="2.5" style="stroke:#181818;stroke-width:0.5;" width="165.293" x="97.5493" y="50"/><text fill="#000000" font-family="sans-serif" font-size="14" lengthAdjust="spacing" textLength="151.293" x="104.5493" y="69.9951">AccessControlSystem</text><rect fill="#E2E2F0" height="30.2969" rx="2.5" ry="2.5" style="stroke:#181818;stroke-width:0.5;" width="165.293" x="97.5493" y="757.8203"/><text fill="#000000" font-family="sans-serif" font-size="14" lengthAdjust="spacing" textLength="151.293" x="104.5493" y="777.8154">AccessControlSystem</text><rect fill="#E2E2F0" height="30.2969" rx="2.5" ry="2.5" style="stroke:#181818;stroke-width:0.5;" width="92.4766" x="364.7793" y="50"/><text fill="#000000" font-family="sans-serif" font-size="14" lengthAdjust="spacing" textLength="78.4766" x="371.7793" y="69.9951">NFCReader</text><rect fill="#E2E2F0" height="30.2969" rx="2.5" ry="2.5" style="stroke:#181818;stroke-width:0.5;" width="92.4766" x="364.7793" y="757.8203"/><text fill="#000000" font-family="sans-serif" font-size="14" lengthAdjust="spacing" textLength="78.4766" x="371.7793" y="777.8154">NFCReader</text><rect fill="#E2E2F0" height="30.2969" rx="2.5" ry="2.5" style="stroke:#181818;stroke-width:0.5;" width="59.6367" x="633.5669" y="50"/><text fill="#000000" font-family="sans-serif" font-size="14" lengthAdjust="spacing" textLength="45.6367" x="640.5669" y="69.9951">PN532</text><rect fill="#E2E2F0" height="30.2969" rx="2.5" ry="2.5" style="stroke:#181818;stroke-width:0.5;" width="59.6367" x="633.5669" y="757.8203"/><text fill="#000000" font-family="sans-serif" font-size="14" lengthAdjust="spacing" textLength="45.6367" x="640.5669" y="777.8154">PN532</text><rect fill="#FFFFFF" height="621.3906" style="stroke:#181818;stroke-width:1;" width="10" x="175.1958" y="112.4297"/><rect fill="#FFFFFF" height="87.3984" style="stroke:#181818;stroke-width:1;" width="10" x="406.0176" y="225.8281"/><rect fill="#FFFFFF" height="187.7969" style="stroke:#181818;stroke-width:1;" width="10" x="406.0176" y="468.7578"/><rect fill="#FFFFFF" height="29.1328" style="stroke:#181818;stroke-width:1;" width="10" x="658.3853" y="254.9609"/><rect fill="#FFFFFF" height="29.1328" style="stroke:#181818;stroke-width:1;" width="10" x="658.3853" y="497.8906"/><rect fill="#FFFFFF" height="29.1328" style="stroke:#181818;stroke-width:1;" width="10" x="658.3853" y="598.2891"/><polygon fill="#181818" points="163.1958,108.4297,173.1958,112.4297,163.1958,116.4297,167.1958,112.4297" style="stroke:#181818;stroke-width:1;"/><line style="stroke:#181818;stroke-width:1;" x1="23.9551" x2="169.1958" y1="112.4297" y2="112.4297"/><text fill="#000000" font-family="sans-serif" font-size="13" lengthAdjust="spacing" textLength="132.2407" x="33.4551" y="107.3638">Select CLONE_CARD</text><line style="stroke:#181818;stroke-width:1;" x1="185.1958" x2="227.1958" y1="141.5625" y2="141.5625"/><line style="stroke:#181818;stroke-width:1;" x1="227.1958" x2="227.1958" y1="141.5625" y2="154.5625"/><line style="stroke:#181818;stroke-width:1;" x1="186.1958" x2="227.1958" y1="154.5625" y2="154.5625"/><polygon fill="#181818" points="196.1958,150.5625,186.1958,154.5625,196.1958,158.5625,192.1958,154.5625" style="stroke:#181818;stroke-width:1;"/><text fill="#000000" font-family="sans-serif" font-size="13" lengthAdjust="spacing" textLength="196.8218" x="192.1958" y="136.4966">Enter CLONING_SOURCE state</text><line style="stroke:#181818;stroke-width:1;" x1="185.1958" x2="227.1958" y1="183.6953" y2="183.6953"/><line style="stroke:#181818;stroke-width:1;" x1="227.1958" x2="227.1958" y1="183.6953" y2="196.6953"/><line style="stroke:#181818;stroke-width:1;" x1="186.1958" x2="227.1958" y1="196.6953" y2="196.6953"/><polygon fill="#181818" points="196.1958,192.6953,186.1958,196.6953,196.1958,200.6953,192.1958,196.6953" style="stroke:#181818;stroke-width:1;"/><text fill="#000000" font-family="sans-serif" font-size="13" lengthAdjust="spacing" textLength="176.0459" x="192.1958" y="178.6294">Display "Scan source card"</text><polygon fill="#181818" points="394.0176,221.8281,404.0176,225.8281,394.0176,229.8281,398.0176,225.8281" style="stroke:#181818;stroke-width:1;"/><line style="stroke:#181818;stroke-width:1;" x1="23.9551" x2="400.0176" y1="225.8281" y2="225.8281"/><text fill="#000000" font-family="sans-serif" font-size="13" lengthAdjust="spacing" textLength="129.7207" x="150.126" y="220.7622">Present source card</text><polygon fill="#181818" points="646.3853,250.9609,656.3853,254.9609,646.3853,258.9609,650.3853,254.9609" style="stroke:#181818;stroke-width:1;"/><line style="stroke:#181818;stroke-width:1;" x1="416.0176" x2="652.3853" y1="254.9609" y2="254.9609"/><text fill="#000000" font-family="sans-serif" font-size="13" lengthAdjust="spacing" textLength="118.168" x="478.1174" y="249.895">Read physical UID</text><polygon fill="#181818" points="427.0176,280.0938,417.0176,284.0938,427.0176,288.0938,423.0176,284.0938" style="stroke:#181818;stroke-width:1;"/><line style="stroke:#181818;stroke-width:1;stroke-dasharray:2.0,2.0;" x1="421.0176" x2="662.3853" y1="284.0938" y2="284.0938"/><text fill="#000000" font-family="sans-serif" font-size="13" lengthAdjust="spacing" textLength="71.4429" x="503.98" y="279.0278">Return UID</text><polygon fill="#181818" points="196.1958,309.2266,186.1958,313.2266,196.1958,317.2266,192.1958,313.2266" style="stroke:#181818;stroke-width:1;"/><line style="stroke:#181818;stroke-width:1;stroke-dasharray:2.0,2.0;" x1="190.1958" x2="410.0176" y1="313.2266" y2="313.2266"/><text fill="#000000" font-family="sans-serif" font-size="13" lengthAdjust="spacing" textLength="119.0313" x="238.5911" y="308.1606">Return source UID</text><line style="stroke:#181818;stroke-width:1;" x1="185.1958" x2="227.1958" y1="342.3594" y2="342.3594"/><line style="stroke:#181818;stroke-width:1;" x1="227.1958" x2="227.1958" y1="342.3594" y2="355.3594"/><line style="stroke:#181818;stroke-width:1;" x1="186.1958" x2="227.1958" y1="355.3594" y2="355.3594"/><polygon fill="#181818" points="196.1958,351.3594,186.1958,355.3594,196.1958,359.3594,192.1958,355.3594" style="stroke:#181818;stroke-width:1;"/><text fill="#000000" font-family="sans-serif" font-size="13" lengthAdjust="spacing" textLength="109.7256" x="192.1958" y="337.2935">Store source UID</text><line style="stroke:#181818;stroke-width:1;" x1="185.1958" x2="227.1958" y1="384.4922" y2="384.4922"/><line style="stroke:#181818;stroke-width:1;" x1="227.1958" x2="227.1958" y1="384.4922" y2="397.4922"/><line style="stroke:#181818;stroke-width:1;" x1="186.1958" x2="227.1958" y1="397.4922" y2="397.4922"/><polygon fill="#181818" points="196.1958,393.4922,186.1958,397.4922,196.1958,401.4922,192.1958,397.4922" style="stroke:#181818;stroke-width:1;"/><text fill="#000000" font-family="sans-serif" font-size="13" lengthAdjust="spacing" textLength="194.5938" x="192.1958" y="379.4263">Enter CLONING_TARGET state</text><line style="stroke:#181818;stroke-width:1;" x1="185.1958" x2="227.1958" y1="426.625" y2="426.625"/><line style="stroke:#181818;stroke-width:1;" x1="227.1958" x2="227.1958" y1="426.625" y2="439.625"/><line style="stroke:#181818;stroke-width:1;" x1="186.1958" x2="227.1958" y1="439.625" y2="439.625"/><polygon fill="#181818" points="196.1958,435.625,186.1958,439.625,196.1958,443.625,192.1958,439.625" style="stroke:#181818;stroke-width:1;"/><text fill="#000000" font-family="sans-serif" font-size="13" lengthAdjust="spacing" textLength="172.3452" x="192.1958" y="421.5591">Display "Scan target card"</text><polygon fill="#181818" points="394.0176,464.7578,404.0176,468.7578,394.0176,472.7578,398.0176,468.7578" style="stroke:#181818;stroke-width:1;"/><line style="stroke:#181818;stroke-width:1;" x1="23.9551" x2="400.0176" y1="468.7578" y2="468.7578"/><text fill="#000000" font-family="sans-serif" font-size="13" lengthAdjust="spacing" textLength="126.02" x="151.9763" y="463.6919">Present target card</text><polygon fill="#181818" points="646.3853,493.8906,656.3853,497.8906,646.3853,501.8906,650.3853,497.8906" style="stroke:#181818;stroke-width:1;"/><line style="stroke:#181818;stroke-width:1;" x1="416.0176" x2="652.3853" y1="497.8906" y2="497.8906"/><text fill="#000000" font-family="sans-serif" font-size="13" lengthAdjust="spacing" textLength="109.9795" x="482.2117" y="492.8247">Read target card</text><polygon fill="#181818" points="427.0176,523.0234,417.0176,527.0234,427.0176,531.0234,423.0176,527.0234" style="stroke:#181818;stroke-width:1;"/><line style="stroke:#181818;stroke-width:1;stroke-dasharray:2.0,2.0;" x1="421.0176" x2="662.3853" y1="527.0234" y2="527.0234"/><text fill="#000000" font-family="sans-serif" font-size="13" lengthAdjust="spacing" textLength="83.9858" x="497.7085" y="521.9575">Target ready</text><line style="stroke:#181818;stroke-width:1;" x1="416.0176" x2="458.0176" y1="556.1563" y2="556.1563"/><line style="stroke:#181818;stroke-width:1;" x1="458.0176" x2="458.0176" y1="556.1563" y2="569.1563"/><line style="stroke:#181818;stroke-width:1;" x1="417.0176" x2="458.0176" y1="569.1563" y2="569.1563"/><polygon fill="#181818" points="427.0176,565.1563,417.0176,569.1563,427.0176,573.1563,423.0176,569.1563" style="stroke:#181818;stroke-width:1;"/><text fill="#000000" font-family="sans-serif" font-size="13" lengthAdjust="spacing" textLength="128.0703" x="423.0176" y="551.0903">Authenticate sector</text><polygon fill="#181818" points="646.3853,594.2891,656.3853,598.2891,646.3853,602.2891,650.3853,598.2891" style="stroke:#181818;stroke-width:1;"/><line style="stroke:#181818;stroke-width:1;" x1="416.0176" x2="652.3853" y1="598.2891" y2="598.2891"/><text fill="#000000" font-family="sans-serif" font-size="13" lengthAdjust="spacing" textLength="223.3677" x="425.5176" y="593.2231">Write cloned UID to custom sector</text><polygon fill="#181818" points="427.0176,623.4219,417.0176,627.4219,427.0176,631.4219,423.0176,627.4219" style="stroke:#181818;stroke-width:1;"/><line style="stroke:#181818;stroke-width:1;stroke-dasharray:2.0,2.0;" x1="421.0176" x2="662.3853" y1="627.4219" y2="627.4219"/><text fill="#000000" font-family="sans-serif" font-size="13" lengthAdjust="spacing" textLength="106.3169" x="486.543" y="622.356">Write successful</text><polygon fill="#181818" points="196.1958,652.5547,186.1958,656.5547,196.1958,660.5547,192.1958,656.5547" style="stroke:#181818;stroke-width:1;"/><line style="stroke:#181818;stroke-width:1;stroke-dasharray:2.0,2.0;" x1="190.1958" x2="410.0176" y1="656.5547" y2="656.5547"/><text fill="#000000" font-family="sans-serif" font-size="13" lengthAdjust="spacing" textLength="101.7339" x="247.2397" y="651.4888">Clone complete</text><line style="stroke:#181818;stroke-width:1;" x1="185.1958" x2="227.1958" y1="685.6875" y2="685.6875"/><line style="stroke:#181818;stroke-width:1;" x1="227.1958" x2="227.1958" y1="685.6875" y2="698.6875"/><line style="stroke:#181818;stroke-width:1;" x1="186.1958" x2="227.1958" y1="698.6875" y2="698.6875"/><polygon fill="#181818" points="196.1958,694.6875,186.1958,698.6875,196.1958,702.6875,192.1958,698.6875" style="stroke:#181818;stroke-width:1;"/><text fill="#000000" font-family="sans-serif" font-size="13" lengthAdjust="spacing" textLength="172.3008" x="192.1958" y="680.6216">Display "Clone successful"</text><line style="stroke:#181818;stroke-width:1;" x1="185.1958" x2="227.1958" y1="732.8203" y2="732.8203"/><line style="stroke:#181818;stroke-width:1;" x1="227.1958" x2="227.1958" y1="732.8203" y2="745.8203"/><line style="stroke:#181818;stroke-width:1;" x1="180.1958" x2="227.1958" y1="745.8203" y2="745.8203"/><polygon fill="#181818" points="190.1958,741.8203,180.1958,745.8203,190.1958,749.8203,186.1958,745.8203" style="stroke:#181818;stroke-width:1;"/><text fill="#000000" font-family="sans-serif" font-size="13" lengthAdjust="spacing" textLength="131.6313" x="192.1958" y="727.7544">Return to IDLE state</text><!--SRC=[ZLFBRi8m4BpdArQv8_LvuL0f2Yb5eW4be1wHvMp1gcEdjbEQlw-T1oGj1GvHR7bcPtRMrfHmX9nym-tDtGFiMMPsdlvWeY2AvA3niqH1yHMr9biCEDiAe2WCAiyZr4W5QstN5cqOPGKH1lo0KWiFfJ1AyhJI1dCVY8OWJ8V0-3bCa6IewkDcEKGiuyVxk_hqXQXiJnHwdXE4qPChDuOKEL83uNmHHvimI2RE5ViY1civ-nsWaNDT8sVnT9CkraaOWJOMEe1Dc2uugS1FAH6WPQae0hNg_b6wiJg6fK9jm-YZZlfjFytFiReMnlKH5BjACni_h6SzruS-kmMCUe89cbA9cf7XNqwdrVNImbjxlrYjlq7pgPqezl7_1xWAaccqkXYW8MgBvbA0FTJr0PuadSzlrL2KtLOd4-ofTPoWD3lhqOxA0ZMwIt_IqvjY5a2v59YvxC18eAKsCkzOLvfi2kcoVaRl9Jzlj8izTC90PLvmj1EvCEZ3a1hQKSmVmDeBP3kPJURTQ-cLTc_i1m00]--></g></svg>