<svg xmlns="http://www.w3.org/2000/svg" xmlns:xlink="http://www.w3.org/1999/xlink" contentStyleType="text/css" height="920px" preserveAspectRatio="none" style="width:739px;height:920px;background:#FFFFFF;" version="1.1" viewBox="0 0 739 920" width="739px" zoomAndPan="magnify"><defs/><g><!--class SystemState--><g id="elem_SystemState"><rect codeLine="4" fill="#F1F1F1" height="194.6719" id="SystemState" rx="2.5" ry="2.5" style="stroke:#181818;stroke-width:0.5;" width="143.5508" x="7" y="719"/><ellipse cx="32.0292" cy="735" fill="#EB937F" rx="11" ry="11" style="stroke:#181818;stroke-width:1;"/><path d="M36.1386,741 L28.4198,741 L28.4198,728.6094 L36.1386,728.6094 L36.1386,730.7656 L30.8729,730.7656 L30.8729,733.4375 L35.6386,733.4375 L35.6386,735.5938 L30.8729,735.5938 L30.8729,738.8438 L36.1386,738.8438 L36.1386,741 Z " fill="#000000"/><text fill="#000000" font-family="sans-serif" font-size="14" lengthAdjust="spacing" textLength="89.2637" x="48.2579" y="739.8467">SystemState</text><line style="stroke:#181818;stroke-width:0.5;" x1="8" x2="149.5508" y1="751" y2="751"/><text fill="#000000" font-family="sans-serif" font-size="14" lengthAdjust="spacing" textLength="31.5547" x="13" y="767.9951">IDLE</text><text fill="#000000" font-family="sans-serif" font-size="14" lengthAdjust="spacing" textLength="131.5508" x="13" y="784.292">ACCESS_GRANTED</text><text fill="#000000" font-family="sans-serif" font-size="14" lengthAdjust="spacing" textLength="116.6006" x="13" y="800.5889">ACCESS_DENIED</text><text fill="#000000" font-family="sans-serif" font-size="14" lengthAdjust="spacing" textLength="41.6445" x="13" y="816.8857">MENU</text><text fill="#000000" font-family="sans-serif" font-size="14" lengthAdjust="spacing" textLength="95.0127" x="13" y="833.1826">REGISTERING</text><text fill="#000000" font-family="sans-serif" font-size="14" lengthAdjust="spacing" textLength="70.2734" x="13" y="849.4795">DELETING</text><text fill="#000000" font-family="sans-serif" font-size="14" lengthAdjust="spacing" textLength="110.5645" x="13" y="865.7764">LISTING_CARDS</text><text fill="#000000" font-family="sans-serif" font-size="14" lengthAdjust="spacing" textLength="130.0195" x="13" y="882.0732">CLONING_SOURCE</text><text fill="#000000" font-family="sans-serif" font-size="14" lengthAdjust="spacing" textLength="127.6201" x="13" y="898.3701">CLONING_TARGET</text><line style="stroke:#181818;stroke-width:0.5;" x1="8" x2="149.5508" y1="905.6719" y2="905.6719"/></g><!--class MenuItem--><g id="elem_MenuItem"><rect codeLine="16" fill="#F1F1F1" height="178.375" id="MenuItem" rx="2.5" ry="2.5" style="stroke:#181818;stroke-width:0.5;" width="128.4229" x="186" y="727.5"/><ellipse cx="212.7519" cy="743.5" fill="#EB937F" rx="11" ry="11" style="stroke:#181818;stroke-width:1;"/><path d="M216.8612,749.5 L209.1425,749.5 L209.1425,737.1094 L216.8612,737.1094 L216.8612,739.2656 L211.5956,739.2656 L211.5956,741.9375 L216.3612,741.9375 L216.3612,744.0938 L211.5956,744.0938 L211.5956,747.3438 L216.8612,747.3438 L216.8612,749.5 Z " fill="#000000"/><text fill="#000000" font-family="sans-serif" font-size="14" lengthAdjust="spacing" textLength="70.3076" x="229.3634" y="748.3467">MenuItem</text><line style="stroke:#181818;stroke-width:0.5;" x1="187" x2="313.4229" y1="759.5" y2="759.5"/><text fill="#000000" font-family="sans-serif" font-size="14" lengthAdjust="spacing" textLength="116.4229" x="192" y="776.4951">REGISTER_CARD</text><text fill="#000000" font-family="sans-serif" font-size="14" lengthAdjust="spacing" textLength="100.5293" x="192" y="792.792">DELETE_CARD</text><text fill="#000000" font-family="sans-serif" font-size="14" lengthAdjust="spacing" textLength="85.1143" x="192" y="809.0889">LIST_CARDS</text><text fill="#000000" font-family="sans-serif" font-size="14" lengthAdjust="spacing" textLength="94.7734" x="192" y="825.3857">CLONE_CARD</text><text fill="#000000" font-family="sans-serif" font-size="14" lengthAdjust="spacing" textLength="69.1729" x="192" y="841.6826">SETTINGS</text><text fill="#000000" font-family="sans-serif" font-size="14" lengthAdjust="spacing" textLength="77.9023" x="192" y="857.9795">CLEAR_ALL</text><text fill="#000000" font-family="sans-serif" font-size="14" lengthAdjust="spacing" textLength="79.7617" x="192" y="874.2764">EXIT_MENU</text><text fill="#000000" font-family="sans-serif" font-size="14" lengthAdjust="spacing" textLength="98.7109" x="192" y="890.5732">MENU_COUNT</text><line style="stroke:#181818;stroke-width:0.5;" x1="187" x2="313.4229" y1="897.875" y2="897.875"/></g><!--class StoredCard--><g id="elem_StoredCard"><rect codeLine="27" fill="#F1F1F1" height="96.8906" id="StoredCard" rx="2.5" ry="2.5" style="stroke:#181818;stroke-width:0.5;" width="236.7246" x="349.5" y="768"/><ellipse cx="424.0151" cy="784" fill="#ADD1B2" rx="11" ry="11" style="stroke:#181818;stroke-width:1;"/><path d="M426.9839,789.6406 Q426.4058,789.9375 425.7651,790.0781 Q425.1245,790.2344 424.4214,790.2344 Q421.9214,790.2344 420.5933,788.5938 Q419.2808,786.9375 419.2808,783.8125 Q419.2808,780.6875 420.5933,779.0313 Q421.9214,777.375 424.4214,777.375 Q425.1245,777.375 425.7651,777.5313 Q426.4214,777.6875 426.9839,777.9844 L426.9839,780.7031 Q426.3589,780.125 425.7651,779.8594 Q425.1714,779.5781 424.5464,779.5781 Q423.2026,779.5781 422.5151,780.6563 Q421.8276,781.7188 421.8276,783.8125 Q421.8276,785.9063 422.5151,786.9844 Q423.2026,788.0469 424.5464,788.0469 Q425.1714,788.0469 425.7651,787.7813 Q426.3589,787.5 426.9839,786.9219 L426.9839,789.6406 Z " fill="#000000"/><text fill="#000000" font-family="sans-serif" font-size="14" lengthAdjust="spacing" textLength="79.1943" x="444.5151" y="788.8467">StoredCard</text><line style="stroke:#181818;stroke-width:0.5;" x1="350.5" x2="585.2246" y1="800" y2="800"/><text fill="#000000" font-family="sans-serif" font-size="14" lengthAdjust="spacing" textLength="224.7246" x="355.5" y="816.9951">+uint8_t uid[MAX_UID_LENGTH]</text><text fill="#000000" font-family="sans-serif" font-size="14" lengthAdjust="spacing" textLength="134.8867" x="355.5" y="833.292">+uint8_t uidLength</text><text fill="#000000" font-family="sans-serif" font-size="14" lengthAdjust="spacing" textLength="88.6416" x="355.5" y="849.5889">+bool active</text><line style="stroke:#181818;stroke-width:0.5;" x1="350.5" x2="585.2246" y1="856.8906" y2="856.8906"/></g><!--class AccessControlSystem--><g id="elem_AccessControlSystem"><rect codeLine="33" fill="#F1F1F1" height="634.6875" id="AccessControlSystem" rx="2.5" ry="2.5" style="stroke:#181818;stroke-width:0.5;" width="396.0635" x="161" y="7"/><ellipse cx="279.1353" cy="23" fill="#ADD1B2" rx="11" ry="11" style="stroke:#181818;stroke-width:1;"/><path d="M282.104,28.6406 Q281.5259,28.9375 280.8853,29.0781 Q280.2446,29.2344 279.5415,29.2344 Q277.0415,29.2344 275.7134,27.5938 Q274.4009,25.9375 274.4009,22.8125 Q274.4009,19.6875 275.7134,18.0313 Q277.0415,16.375 279.5415,16.375 Q280.2446,16.375 280.8853,16.5313 Q281.5415,16.6875 282.104,16.9844 L282.104,19.7031 Q281.479,19.125 280.8853,18.8594 Q280.2915,18.5781 279.6665,18.5781 Q278.3228,18.5781 277.6353,19.6563 Q276.9478,20.7188 276.9478,22.8125 Q276.9478,24.9063 277.6353,25.9844 Q278.3228,27.0469 279.6665,27.0469 Q280.2915,27.0469 280.8853,26.7813 Q281.479,26.5 282.104,25.9219 L282.104,28.6406 Z " fill="#000000"/><text fill="#000000" font-family="sans-serif" font-size="14" lengthAdjust="spacing" textLength="151.293" x="299.6353" y="27.8467">AccessControlSystem</text><line style="stroke:#181818;stroke-width:0.5;" x1="162" x2="556.0635" y1="39" y2="39"/><text fill="#000000" font-family="sans-serif" font-size="14" lengthAdjust="spacing" textLength="145.0996" x="167" y="55.9951">-NFCReader&amp; reader</text><text fill="#000000" font-family="sans-serif" font-size="14" lengthAdjust="spacing" textLength="121.2695" x="167" y="72.292">-LiquidCrystal lcd</text><text fill="#000000" font-family="sans-serif" font-size="14" lengthAdjust="spacing" textLength="186.8809" x="167" y="88.5889">-SystemState currentState</text><text fill="#000000" font-family="sans-serif" font-size="14" lengthAdjust="spacing" textLength="201.1748" x="167" y="104.8857">-MenuItem currentMenuItem</text><text fill="#000000" font-family="sans-serif" font-size="14" lengthAdjust="spacing" textLength="224.2666" x="167" y="121.1826">-unsigned long lastStateChange</text><text fill="#000000" font-family="sans-serif" font-size="14" lengthAdjust="spacing" textLength="189.041" x="167" y="137.4795">-uint8_t cloneSourceUID[7]</text><text fill="#000000" font-family="sans-serif" font-size="14" lengthAdjust="spacing" textLength="192.5889" x="167" y="153.7764">-uint8_t cloneSourceLength</text><text fill="#000000" font-family="sans-serif" font-size="14" lengthAdjust="spacing" textLength="146.2549" x="167" y="170.0732">-int totalCardsStored</text><text fill="#000000" font-family="sans-serif" font-size="14" lengthAdjust="spacing" textLength="142.0713" x="167" y="186.3701">-int currentListIndex</text><line style="stroke:#181818;stroke-width:0.5;" x1="162" x2="556.0635" y1="193.6719" y2="193.6719"/><text fill="#000000" font-family="sans-serif" font-size="14" lengthAdjust="spacing" textLength="339.4658" x="167" y="210.667">+AccessControlSystem(NFCReader&amp; nfcReader)</text><text fill="#000000" font-family="sans-serif" font-size="14" lengthAdjust="spacing" textLength="95.8809" x="167" y="226.9639">+void begin()</text><text fill="#000000" font-family="sans-serif" font-size="14" lengthAdjust="spacing" textLength="106.0596" x="167" y="243.2607">+void update()</text><text fill="#000000" font-family="sans-serif" font-size="14" lengthAdjust="spacing" textLength="158.6348" x="167" y="259.5576">+void handleButtons()</text><text fill="#000000" font-family="sans-serif" font-size="14" lengthAdjust="spacing" textLength="4.4502" x="167" y="275.8545">&#160;</text><text fill="#000000" font-family="sans-serif" font-size="14" lengthAdjust="spacing" textLength="160.3438" x="167" y="292.1514">-void handleIdleState()</text><text fill="#000000" font-family="sans-serif" font-size="14" lengthAdjust="spacing" textLength="173.2637" x="167" y="308.4482">-void handleMenuState()</text><text fill="#000000" font-family="sans-serif" font-size="14" lengthAdjust="spacing" textLength="214.7441" x="167" y="324.7451">-void handleRegisteringState()</text><text fill="#000000" font-family="sans-serif" font-size="14" lengthAdjust="spacing" textLength="193.8604" x="167" y="341.042">-void handleDeletingState()</text><text fill="#000000" font-family="sans-serif" font-size="14" lengthAdjust="spacing" textLength="221.2383" x="167" y="357.3389">-void handleListingCardsState()</text><text fill="#000000" font-family="sans-serif" font-size="14" lengthAdjust="spacing" textLength="235.9697" x="167" y="373.6357">-void handleCloningSourceState()</text><text fill="#000000" font-family="sans-serif" font-size="14" lengthAdjust="spacing" textLength="233.4541" x="167" y="389.9326">-void handleCloningTargetState()</text><text fill="#000000" font-family="sans-serif" font-size="14" lengthAdjust="spacing" textLength="4.4502" x="167" y="406.2295">&#160;</text><text fill="#000000" font-family="sans-serif" font-size="14" lengthAdjust="spacing" textLength="384.0635" x="167" y="422.5264">-bool isCardAuthorized(uint8_t* uid, uint8_t uidLength)</text><text fill="#000000" font-family="sans-serif" font-size="14" lengthAdjust="spacing" textLength="351.3057" x="167" y="438.8232">-bool registerCard(uint8_t* uid, uint8_t uidLength)</text><text fill="#000000" font-family="sans-serif" font-size="14" lengthAdjust="spacing" textLength="341.1133" x="167" y="455.1201">-bool deleteCard(uint8_t* uid, uint8_t uidLength)</text><text fill="#000000" font-family="sans-serif" font-size="14" lengthAdjust="spacing" textLength="311.9307" x="167" y="471.417">-int findCard(uint8_t* uid, uint8_t uidLength)</text><text fill="#000000" font-family="sans-serif" font-size="14" lengthAdjust="spacing" textLength="135.8096" x="167" y="487.7139">-void grantAccess()</text><text fill="#000000" font-family="sans-serif" font-size="14" lengthAdjust="spacing" textLength="132.8838" x="167" y="504.0107">-void denyAccess()</text><text fill="#000000" font-family="sans-serif" font-size="14" lengthAdjust="spacing" textLength="138.2021" x="167" y="520.3076">-void displayMenu()</text><text fill="#000000" font-family="sans-serif" font-size="14" lengthAdjust="spacing" textLength="176.5449" x="167" y="536.6045">-void executeMenuItem()</text><text fill="#000000" font-family="sans-serif" font-size="14" lengthAdjust="spacing" textLength="4.4502" x="167" y="552.9014">&#160;</text><text fill="#000000" font-family="sans-serif" font-size="14" lengthAdjust="spacing" textLength="167.3643" x="167" y="569.1982">-void initializeEEPROM()</text><text fill="#000000" font-family="sans-serif" font-size="14" lengthAdjust="spacing" textLength="215.2363" x="167" y="585.4951">-void loadCardsFromEEPROM()</text><text fill="#000000" font-family="sans-serif" font-size="14" lengthAdjust="spacing" textLength="253.1484" x="167" y="601.792">-void saveCardToEEPROM(int index)</text><text fill="#000000" font-family="sans-serif" font-size="14" lengthAdjust="spacing" textLength="142.2354" x="167" y="618.0889">-void clearAllCards()</text><text fill="#000000" font-family="sans-serif" font-size="14" lengthAdjust="spacing" textLength="164.6641" x="167" y="634.3857">-int countStoredCards()</text></g><!--class NFCReader--><g id="elem_NFCReader"><rect fill="#F1F1F1" height="48" id="NFCReader" rx="2.5" ry="2.5" style="stroke:#181818;stroke-width:0.5;" width="110.4766" x="622" y="792.5"/><ellipse cx="637" cy="808.5" fill="#ADD1B2" rx="11" ry="11" style="stroke:#181818;stroke-width:1;"/><path d="M639.9688,814.1406 Q639.3906,814.4375 638.75,814.5781 Q638.1094,814.7344 637.4063,814.7344 Q634.9063,814.7344 633.5781,813.0938 Q632.2656,811.4375 632.2656,808.3125 Q632.2656,805.1875 633.5781,803.5313 Q634.9063,801.875 637.4063,801.875 Q638.1094,801.875 638.75,802.0313 Q639.4063,802.1875 639.9688,802.4844 L639.9688,805.2031 Q639.3438,804.625 638.75,804.3594 Q638.1563,804.0781 637.5313,804.0781 Q636.1875,804.0781 635.5,805.1563 Q634.8125,806.2188 634.8125,808.3125 Q634.8125,810.4063 635.5,811.4844 Q636.1875,812.5469 637.5313,812.5469 Q638.1563,812.5469 638.75,812.2813 Q639.3438,812 639.9688,811.4219 L639.9688,814.1406 Z " fill="#000000"/><text fill="#000000" font-family="sans-serif" font-size="14" lengthAdjust="spacing" textLength="78.4766" x="651" y="813.3467">NFCReader</text><line style="stroke:#181818;stroke-width:0.5;" x1="623" x2="731.4766" y1="824.5" y2="824.5"/><line style="stroke:#181818;stroke-width:0.5;" x1="623" x2="731.4766" y1="832.5" y2="832.5"/></g><!--link AccessControlSystem to SystemState--><g id="link_AccessControlSystem_SystemState"><path codeLine="73" d="M178.11,642.05 C162.5,669.37 150.6066,690.1804 137.3566,713.3704 " fill="none" id="AccessControlSystem-to-SystemState" style="stroke:#181818;stroke-width:1;"/><polygon fill="#181818" points="134.38,718.58,142.318,712.75,136.8605,714.2387,135.3718,708.7812,134.38,718.58" style="stroke:#181818;stroke-width:1;"/></g><!--link AccessControlSystem to MenuItem--><g id="link_AccessControlSystem_MenuItem"><path codeLine="74" d="M288.58,642.05 C281.73,672.88 276.5428,696.1932 270.9128,721.5032 " fill="none" id="AccessControlSystem-to-MenuItem" style="stroke:#181818;stroke-width:1;"/><polygon fill="#181818" points="269.61,727.36,275.4688,719.4433,270.6957,722.4793,267.6596,717.7062,269.61,727.36" style="stroke:#181818;stroke-width:1;"/></g><!--link AccessControlSystem to StoredCard--><g id="link_AccessControlSystem_StoredCard"><path codeLine="75" d="M429.42,642.05 C440.34,691.15 449.0282,730.1929 456.0982,762.0029 " fill="none" id="AccessControlSystem-to-StoredCard" style="stroke:#181818;stroke-width:1;"/><polygon fill="#181818" points="457.4,767.86,459.3521,758.2065,456.3152,762.9791,451.5426,759.9422,457.4,767.86" style="stroke:#181818;stroke-width:1;"/></g><!--link AccessControlSystem to NFCReader--><g id="link_AccessControlSystem_NFCReader"><path codeLine="76" d="M557,630.6 C601.27,698.81 637.9731,755.3674 658.7331,787.3474 " fill="none" id="AccessControlSystem-to-NFCReader" style="stroke:#181818;stroke-width:1;stroke-dasharray:7.0,7.0;"/><polygon fill="#181818" points="662,792.38,660.4547,782.6531,659.2775,788.1862,653.7445,787.0091,662,792.38" style="stroke:#181818;stroke-width:1;"/><text fill="#000000" font-family="sans-serif" font-size="13" lengthAdjust="spacing" textLength="29.7832" x="593" y="685.0669">uses</text></g><!--SRC=[bLHHQzim47xthz3JIBUbT6EmiOU2PwkPmN66xK2X5ADAgYkcI9qaTyt6_liaMKxiDjbe88bqttUwkq-dqnXn2ZRe4RmxU_y1_6J4t4NwEnFtIA4Dm1nf7HkZs4rdQ8QbgDWl2iwYY8fk0wgjDdHJ6MGe-1q1-ydI7Ff5d2Imgff56HSrJCUc51PPi2nXiVQB4YwogePbLYpyFeKvh8TDRY6xRfAuJ2jlIV9LuIpLQbqcS6Agut81w-XFo71fVpEROqXlYEFFsaU2-xqBzYJI2ArWxL8PC1YNJPpdVWSlixhP5UGMJR9Q5puLBoEeZ5IK94YHaCqRq35XFZN6_fEhPNpPhBEqoM6ngBzUFsVaLBJsTdhxZPGS86pO0zr7Y36cMYTI62LvVpaXr1mK5qb94Q7g5L3-FzXpziEUdIZBHXnmJ89zVBUuKueAupS1tWaRi64Vu4verWfA09UY1JQvtZcvGw8TZXXAmvP3AzafJ6tzLn-lZ-CZ2UR0mi18cxMJLFVgZg2GMCwqoGIXZr5Gxe18iv4uuXRtovF0Vv2CW1lQCZ6RcBfxOYkQscnvXDCldJ5IQ0k5T4POPhzUYk0u0Ps8Hy7Ifc2JLKoqHpafvTJyY-3Ki7XGx0WfiOAxGxpa_sFLIBNK3An0yzt9j0iJT-PEAZiro2nSw6lNp6-VT_R9s5c5QjqHBt8aJWBw4ZVNBBTCa9VuU1rQXOJfssag4A5YUz3Ez3r7MtVDKu0-Kcm7xF28ddGE4ymmnAs647uhLykfBvV8fwulbDmS8cZquFMePK1TmSmzYGaDSufKpFlND1kBWsNd7lymlHneHywXOJEVduy7nr7ERbeSFMGNxI3bzFHyFz30Pz1fggE_]--></g></svg>