<svg xmlns="http://www.w3.org/2000/svg" xmlns:xlink="http://www.w3.org/1999/xlink" contentStyleType="text/css" height="237.7793px" preserveAspectRatio="none" style="width:800px;height:237px;background:#FFFFFF;" version="1.1" viewBox="0 0 800 237" width="800.0095px" zoomAndPan="magnify"><defs/><g><ellipse cx="330.6721" cy="7.2604" fill="#222222" rx="4.5378" ry="4.5378" style="stroke:#222222;stroke-width:0.4538;"/><g id="IDLE"><rect fill="#ADD8E6" height="22.8094" rx="5.6722" ry="5.6722" style="stroke:#000000;stroke-width:0.2269;" width="96.2832" x="282.5717" y="39.4786"/><line style="stroke:#000000;stroke-width:0.2269;" x1="282.5717" x2="378.8549" y1="51.4116" y2="51.4116"/><text fill="#000000" font-family="sans-serif" font-size="6.3529" lengthAdjust="spacing" textLength="14.3188" x="323.5539" y="47.6444">IDLE</text><text fill="#000000" font-family="sans-serif" font-size="5.4453" lengthAdjust="spacing" textLength="87.2077" x="284.8406" y="58.7349">Waiting for card or button press</text></g><g id="ACCESS_GRANTED"><rect fill="#ADD8E6" height="22.8094" rx="5.6722" ry="5.6722" style="stroke:#000000;stroke-width:0.2269;" width="78.3812" x="15.5237" y="97.1084"/><line style="stroke:#000000;stroke-width:0.2269;" x1="15.5237" x2="93.9049" y1="109.0413" y2="109.0413"/><text fill="#000000" font-family="sans-serif" font-size="6.3529" lengthAdjust="spacing" textLength="59.6948" x="24.8669" y="105.2741">ACCESS_GRANTED</text><text fill="#000000" font-family="sans-serif" font-size="5.4453" lengthAdjust="spacing" textLength="69.3056" x="17.7926" y="116.3646">Display success message</text></g><g id="ACCESS_DENIED"><rect fill="#ADD8E6" height="22.8094" rx="5.6722" ry="5.6722" style="stroke:#000000;stroke-width:0.2269;" width="70.4791" x="139.8587" y="97.1084"/><line style="stroke:#000000;stroke-width:0.2269;" x1="139.8587" x2="210.3378" y1="109.0413" y2="109.0413"/><text fill="#000000" font-family="sans-serif" font-size="6.3529" lengthAdjust="spacing" textLength="52.9107" x="148.6429" y="105.2741">ACCESS_DENIED</text><text fill="#000000" font-family="sans-serif" font-size="5.4453" lengthAdjust="spacing" textLength="61.4035" x="142.1276" y="116.3646">Display error message</text></g><g id="MENU"><rect fill="#ADD8E6" height="22.8094" rx="5.6722" ry="5.6722" style="stroke:#000000;stroke-width:0.2269;" width="72.5742" x="430.9569" y="97.1084"/><line style="stroke:#000000;stroke-width:0.2269;" x1="430.9569" x2="503.5312" y1="109.0413" y2="109.0413"/><text fill="#000000" font-family="sans-serif" font-size="6.3529" lengthAdjust="spacing" textLength="18.8973" x="457.7954" y="105.2741">MENU</text><text fill="#000000" font-family="sans-serif" font-size="5.4453" lengthAdjust="spacing" textLength="63.4987" x="433.2258" y="116.3646">Navigate menu options</text></g><g id="REGISTERING"><rect fill="#ADD8E6" height="22.8094" rx="5.6722" ry="5.6722" style="stroke:#000000;stroke-width:0.2269;" width="58.4823" x="340.8821" y="154.7381"/><line style="stroke:#000000;stroke-width:0.2269;" x1="340.8821" x2="399.3644" y1="166.671" y2="166.671"/><text fill="#000000" font-family="sans-serif" font-size="6.3529" lengthAdjust="spacing" textLength="43.1146" x="348.566" y="162.9039">REGISTERING</text><text fill="#000000" font-family="sans-serif" font-size="5.4453" lengthAdjust="spacing" textLength="49.4068" x="343.151" y="173.9944">Register new card</text></g><g id="DELETING"><rect fill="#ADD8E6" height="22.8094" rx="5.6722" ry="5.6722" style="stroke:#000000;stroke-width:0.2269;" width="63.933" x="446.1585" y="154.7381"/><line style="stroke:#000000;stroke-width:0.2269;" x1="446.1585" x2="510.0914" y1="166.671" y2="166.671"/><text fill="#000000" font-family="sans-serif" font-size="6.3529" lengthAdjust="spacing" textLength="31.8885" x="462.1807" y="162.9039">DELETING</text><text fill="#000000" font-family="sans-serif" font-size="5.4453" lengthAdjust="spacing" textLength="54.8574" x="448.4273" y="173.9944">Delete existing card</text></g><g id="LISTING_CARDS"><rect fill="#ADD8E6" height="22.8094" rx="5.6722" ry="5.6722" style="stroke:#000000;stroke-width:0.2269;" width="64.821" x="575.485" y="154.7381"/><line style="stroke:#000000;stroke-width:0.2269;" x1="575.485" x2="640.306" y1="166.671" y2="166.671"/><text fill="#000000" font-family="sans-serif" font-size="6.3529" lengthAdjust="spacing" textLength="50.1716" x="582.8097" y="162.9039">LISTING_CARDS</text><text fill="#000000" font-family="sans-serif" font-size="5.4453" lengthAdjust="spacing" textLength="55.7455" x="577.7539" y="173.9944">Display stored cards</text></g><g id="CLONING_SOURCE"><rect fill="#ADD8E6" height="22.8094" rx="5.6722" ry="5.6722" style="stroke:#000000;stroke-width:0.2269;" width="80.261" x="238.7822" y="154.7381"/><line style="stroke:#000000;stroke-width:0.2269;" x1="238.7822" x2="319.0432" y1="166.671" y2="166.671"/><text fill="#000000" font-family="sans-serif" font-size="6.3529" lengthAdjust="spacing" textLength="58.9999" x="249.4127" y="162.9039">CLONING_SOURCE</text><text fill="#000000" font-family="sans-serif" font-size="5.4453" lengthAdjust="spacing" textLength="71.1854" x="241.0511" y="173.9944">Read source card to clone</text></g><g id="CLONING_TARGET"><rect fill="#ADD8E6" height="22.8094" rx="5.6722" ry="5.6722" style="stroke:#000000;stroke-width:0.2269;" width="66.9867" x="480.4186" y="212.3678"/><line style="stroke:#000000;stroke-width:0.2269;" x1="480.4186" x2="547.4053" y1="224.3007" y2="224.3007"/><text fill="#000000" font-family="sans-serif" font-size="6.3529" lengthAdjust="spacing" textLength="57.9111" x="484.9564" y="220.5336">CLONING_TARGET</text><text fill="#000000" font-family="sans-serif" font-size="5.4453" lengthAdjust="spacing" textLength="53.9587" x="482.6875" y="231.6241">Write to target card</text></g><!--link *start* to IDLE--><g id="link_*start*_IDLE"><path d="M330.6721,11.8027 C330.6721,18.1012 330.6721,27.6668 330.6721,36.6834 " fill="none" id="*start*-to-IDLE" style="stroke:#181818;stroke-width:0.4538;"/><polygon fill="#181818" points="330.6721,39.406,332.4872,35.322,330.6721,37.1371,328.857,35.322,330.6721,39.406" style="stroke:#181818;stroke-width:0.4538;"/></g><!--link IDLE to ACCESS_GRANTED--><g id="link_IDLE_ACCESS_GRANTED"><path d="M282.5354,51.4357 C197.611,52.2252 28.3929,56.2548 10.3053,75.7808 C2.7227,83.9624 8.9151,90.2026 20.5272,95.8612 " fill="none" id="IDLE-to-ACCESS_GRANTED" style="stroke:#181818;stroke-width:0.4538;"/><polygon fill="#181818" points="22.9747,97.0539,20.0986,93.6332,20.9351,96.06,18.5083,96.8966,22.9747,97.0539" style="stroke:#181818;stroke-width:0.4538;"/><text fill="#000000" font-family="sans-serif" font-size="5.8991" lengthAdjust="spacing" textLength="74.9947" x="10.7591" y="81.7103">Authorized card detected</text></g><!--link ACCESS_GRANTED to IDLE--><g id="link_ACCESS_GRANTED_IDLE"><path d="M71.597,97.0494 C83.613,89.7799 100.4255,80.7043 116.4892,75.7808 C171.7729,58.8277 235.6167,53.5146 279.7148,51.8856 " fill="none" id="ACCESS_GRANTED-to-IDLE" style="stroke:#181818;stroke-width:0.4538;"/><polygon fill="#181818" points="282.4356,51.7851,278.2874,50.122,280.1682,51.8688,278.4214,53.7497,282.4356,51.7851" style="stroke:#181818;stroke-width:0.4538;"/><text fill="#000000" font-family="sans-serif" font-size="5.8991" lengthAdjust="spacing" textLength="37.5838" x="116.943" y="81.7103">Timeout (3s)</text></g><!--link IDLE to ACCESS_DENIED--><g id="link_IDLE_ACCESS_DENIED"><path d="M282.3766,51.4447 C237.7294,52.7516 176.0157,57.8748 160.5056,75.7808 C155.1601,81.9477 157.6204,88.2504 162.8207,94.9527 " fill="none" id="IDLE-to-ACCESS_DENIED" style="stroke:#181818;stroke-width:0.4538;"/><polygon fill="#181818" points="164.4898,97.1038,163.4203,92.7645,163.0989,95.3112,160.5521,94.9899,164.4898,97.1038" style="stroke:#181818;stroke-width:0.4538;"/><text fill="#000000" font-family="sans-serif" font-size="5.8991" lengthAdjust="spacing" textLength="82.6307" x="160.9594" y="81.7103">Unauthorized card detected</text></g><!--link ACCESS_DENIED to IDLE--><g id="link_ACCESS_DENIED_IDLE"><path d="M208.969,97.0811 C220.74,93.0743 233.954,88.3323 245.8157,83.495 C253.2486,80.4638 254.7325,78.8484 262.1517,75.7808 C273.7094,70.998 284.0058,67.1555 295.441,63.1305 " fill="none" id="ACCESS_DENIED-to-IDLE" style="stroke:#181818;stroke-width:0.4538;"/><polygon fill="#181818" points="298.0092,62.2265,293.5542,61.8703,295.869,62.9798,294.7595,65.2946,298.0092,62.2265" style="stroke:#181818;stroke-width:0.4538;"/><text fill="#000000" font-family="sans-serif" font-size="5.8991" lengthAdjust="spacing" textLength="37.5838" x="262.6055" y="81.7103">Timeout (3s)</text></g><!--link IDLE to MENU--><g id="link_IDLE_MENU"><path d="M343.8906,62.3218 C352.762,69.251 364.9777,77.9045 376.9574,83.495 C386.6546,88.0192 407.6442,93.7234 428.3002,98.8284 " fill="none" id="IDLE-to-MENU" style="stroke:#181818;stroke-width:0.4538;"/><polygon fill="#181818" points="430.9433,99.4816,427.4141,96.7397,428.7407,98.9373,426.5431,100.2639,430.9433,99.4816" style="stroke:#181818;stroke-width:0.4538;"/><text fill="#000000" font-family="sans-serif" font-size="5.8991" lengthAdjust="spacing" textLength="62.7241" x="377.4112" y="81.7103">Menu button pressed</text></g><!--link MENU to IDLE--><g id="link_MENU_IDLE"><path d="M461.5007,97.0993 C457.1626,89.9523 450.551,80.9993 442.3013,75.7808 C423.4333,63.851 402.2833,58.0861 381.4821,54.9097 " fill="none" id="MENU-to-IDLE" style="stroke:#181818;stroke-width:0.4538;"/><polygon fill="#181818" points="378.7907,54.4987,382.5539,56.9095,381.0335,54.8412,383.1019,53.3209,378.7907,54.4987" style="stroke:#181818;stroke-width:0.4538;"/><text fill="#000000" font-family="sans-serif" font-size="5.8991" lengthAdjust="spacing" textLength="53.6824" x="450.9231" y="81.7103">Select EXIT_MENU</text></g><!--link MENU to REGISTERING--><g id="link_MENU_REGISTERING"><path d="M430.8162,117.4421 C413.5137,122.0389 395.1403,127.8881 388.3018,133.4105 C381.5088,138.8967 377.8587,145.132 374.9454,152.1293 " fill="none" id="MENU-to-REGISTERING" style="stroke:#181818;stroke-width:0.4538;"/><polygon fill="#181818" points="373.8989,154.6428,377.1443,151.5702,374.771,152.5482,373.793,150.1749,373.8989,154.6428" style="stroke:#181818;stroke-width:0.4538;"/><text fill="#000000" font-family="sans-serif" font-size="5.8991" lengthAdjust="spacing" textLength="69.1301" x="388.7556" y="139.34">Select REGISTER_CARD</text></g><!--link MENU to DELETING--><g id="link_MENU_DELETING"><path d="M463.7514,119.8063 C462.2403,126.1229 461.2193,134.1774 463.1751,141.1248 C464.5092,145.8758 465.5732,148.3336 468.187,152.3631 " fill="none" id="MENU-to-DELETING" style="stroke:#181818;stroke-width:0.4538;"/><polygon fill="#181818" points="469.6687,154.6473,468.969,150.2332,468.4339,152.7438,465.9234,152.2088,469.6687,154.6473" style="stroke:#181818;stroke-width:0.4538;"/><text fill="#000000" font-family="sans-serif" font-size="5.8991" lengthAdjust="spacing" textLength="62.4332" x="463.6289" y="139.34">Select DELETE_CARD</text></g><!--link MENU to LISTING_CARDS--><g id="link_MENU_LISTING_CARDS"><path d="M495.5158,119.8335 C506.2885,124.0355 518.6675,128.9045 529.8804,133.4105 C547.2237,140.3806 564.136,147.3533 579.2695,153.6472 " fill="none" id="MENU-to-LISTING_CARDS" style="stroke:#181818;stroke-width:0.4538;"/><polygon fill="#181818" points="581.7834,154.6927,578.7096,151.4485,579.6885,153.8214,577.3155,154.8004,581.7834,154.6927" style="stroke:#181818;stroke-width:0.4538;"/><text fill="#000000" font-family="sans-serif" font-size="5.8991" lengthAdjust="spacing" textLength="55.9378" x="547.1239" y="139.34">Select LIST_CARDS</text></g><!--link MENU to CLONING_SOURCE--><g id="link_MENU_CLONING_SOURCE"><path d="M430.8752,117.4285 C426.7776,118.2816 422.6573,119.0893 418.7049,119.7972 C373.8354,127.82 358.7246,114.9327 317.0588,133.4105 C306.0501,138.2932 297.6611,145.4257 290.5504,152.7043 " fill="none" id="MENU-to-CLONING_SOURCE" style="stroke:#181818;stroke-width:0.4538;"/><polygon fill="#181818" points="288.6478,154.6519,292.8001,152.999,290.2333,153.0289,290.2034,150.4621,288.6478,154.6519" style="stroke:#181818;stroke-width:0.4538;"/><text fill="#000000" font-family="sans-serif" font-size="5.8991" lengthAdjust="spacing" textLength="60.0078" x="317.5126" y="139.34">Select CLONE_CARD</text></g><!--link REGISTERING to IDLE--><g id="link_REGISTERING_IDLE"><path d="M360.3628,154.6292 C353.1432,145.844 343.75,132.8796 338.8401,119.7972 C331.5797,100.4482 330.3953,78.7848 330.3953,64.9401 " fill="none" id="REGISTERING-to-IDLE" style="stroke:#181818;stroke-width:0.4538;"/><polygon fill="#181818" points="330.3953,62.2174,328.5802,66.3014,330.3953,64.4863,332.2104,66.3014,330.3953,62.2174" style="stroke:#181818;stroke-width:0.4538;"/><text fill="#000000" font-family="sans-serif" font-size="5.8991" lengthAdjust="spacing" textLength="83.9384" x="339.2939" y="110.5251">Card registered or cancelled</text></g><!--link DELETING to IDLE--><g id="link_DELETING_IDLE"><path d="M510.1819,156.3671 C517.2518,152.7732 523.8769,147.8452 528.0653,141.1248 C544.0927,115.4001 531.9178,95.089 508.5528,75.7808 C489.3263,59.8941 427.3696,54.4111 381.5653,52.4463 " fill="none" id="DELETING-to-IDLE" style="stroke:#181818;stroke-width:0.4538;"/><polygon fill="#181818" points="378.8451,52.3296,382.8476,54.3181,381.1119,52.4268,383.0032,50.6912,378.8451,52.3296" style="stroke:#181818;stroke-width:0.4538;"/><text fill="#000000" font-family="sans-serif" font-size="5.8991" lengthAdjust="spacing" textLength="76.0144" x="535.7795" y="110.5251">Card deleted or cancelled</text></g><!--link LISTING_CARDS to IDLE--><g id="link_LISTING_CARDS_IDLE"><path d="M613.5025,154.6972 C620.1367,139.9586 628.7812,113.6531 615.6443,97.1084 C586.9746,61.0058 455.0246,53.1822 381.5354,51.6031 " fill="none" id="LISTING_CARDS-to-IDLE" style="stroke:#181818;stroke-width:0.4538;"/><polygon fill="#181818" points="378.8134,51.5446,382.8574,53.447,381.0817,51.5933,382.9354,49.8176,378.8134,51.5446" style="stroke:#181818;stroke-width:0.4538;"/><text fill="#000000" font-family="sans-serif" font-size="5.8991" lengthAdjust="spacing" textLength="78.0076" x="622.9047" y="110.5251">Done viewing or cancelled</text></g><!--link CLONING_SOURCE to CLONING_TARGET--><g id="link_CLONING_SOURCE_CLONING_TARGET"><path d="M319.2142,176.2562 C364.6736,187.224 435.1668,204.2372 477.6994,214.5017 " fill="none" id="CLONING_SOURCE-to-CLONING_TARGET" style="stroke:#181818;stroke-width:0.4538;"/><polygon fill="#181818" points="480.346,215.1404,476.8018,212.4178,478.1405,214.6081,475.9502,215.9468,480.346,215.1404" style="stroke:#181818;stroke-width:0.4538;"/><text fill="#000000" font-family="sans-serif" font-size="5.8991" lengthAdjust="spacing" textLength="50.5831" x="410.9907" y="196.9697">Source card read</text></g><!--link CLONING_SOURCE to IDLE--><g id="link_CLONING_SOURCE_IDLE"><path d="M281.2149,154.6972 C284.3233,140.857 290.599,116.4801 299.8152,97.1084 C305.8732,84.3754 313.5008,73.3198 320.3029,64.3713 " fill="none" id="CLONING_SOURCE-to-IDLE" style="stroke:#181818;stroke-width:0.4538;"/><polygon fill="#181818" points="321.9505,62.2038,318.034,64.3567,320.5775,64.0101,320.9241,66.5535,321.9505,62.2038" style="stroke:#181818;stroke-width:0.4538;"/><text fill="#000000" font-family="sans-serif" font-size="5.8991" lengthAdjust="spacing" textLength="28.9972" x="300.269" y="110.5251">Cancelled</text></g><!--link CLONING_TARGET to IDLE--><g id="link_CLONING_TARGET_IDLE"><path d="M547.5822,215.8891 C614.5189,199.712 754.0419,157.6423 704.5847,97.1084 C684.2827,72.2595 478.0871,58.7155 381.673,53.6831 " fill="none" id="CLONING_TARGET-to-IDLE" style="stroke:#181818;stroke-width:0.4538;"/><polygon fill="#181818" points="378.954,53.5412,382.9379,55.5667,381.2198,53.6595,383.1271,51.9414,378.954,53.5412" style="stroke:#181818;stroke-width:0.4538;"/><text fill="#000000" font-family="sans-serif" font-size="5.8991" lengthAdjust="spacing" textLength="84.0709" x="712.7527" y="139.34">Clone complete or cancelled</text></g><!--SRC=[XPFHYvmm4CRVyrVCOriuEEXBwKF1rR08dWVgqa8fIoxEkU7KI19lhotztpjHrrEtvLvScFbDClc-RwqKDK8ZNk3JxIsSLUbEp3wfjXD6D62TS0Y_6S1EoAVAwBujGrrh0ucgJcvNz-XxsfHenlgk9f3zOUpxXnzmS_C5uYZXZFalV8QlGZdLLl18f1Ic1Ffzw9tJBNG6hML16F8yF-wp82ruH1EHibqjVeBjfIG06lg82YzWnDDunQ4nTEQ5kkFfWPgfU5QLVqc3RG-wSqgtbcLy7-S5p-9qJqo6bR8E3RHu7dPZ4KzuCJOZh976yOKGl__GJsYQsiSmoA9ykQhJ1ik1iInCxbCFvVU7BEJ3FQ84gtiZSPJ0QP2rRd56Yo3RyyAhPHHTIdqdJ8Lkl7MKqYjxfLNGkvCswjTqEPIqitHONetCgXrQyURCfE6Tbsxf5J5Rkov-4rwe1dNluDr7-tvZrl-eqItVNJkJa_ZIpSL1xrTsuT843XM-mRPcJQmlZxLNzCgoYVNrxR7JEoQ2VukBe- -nLRWMOEWrDbFKSCY_5At4kiP5uBO3vH2_3Rr-qM8aeZ31iyApJ-fgP9l6vMldrEMBR1eAwx-6vkKk9szEMJ8-so1rqmr_eTK-Vm40]--></g></svg>